<svg width="35" height="33" viewBox="0 0 35 33" fill="none" xmlns="http://www.w3.org/2000/svg">
<path fill-rule="evenodd" clip-rule="evenodd" d="M19.3523 0.746324C19.3523 0.334141 19.6864 0 20.0986 0C22.3484 0 24.2029 0.278724 25.7722 1.32491C26.1152 1.55355 26.2078 2.01692 25.9792 2.35988C25.7506 2.70284 25.2872 2.79551 24.9442 2.56687C23.7454 1.76764 22.2529 1.49265 20.0986 1.49265C19.6864 1.49265 19.3523 1.15851 19.3523 0.746324Z" fill="#EA1D2C"/>
<path fill-rule="evenodd" clip-rule="evenodd" d="M27.83 3.31276C28.0938 2.99611 28.5644 2.95331 28.8811 3.21718C32.9642 6.61958 33.9433 10.5388 34.0399 13.919C34.0517 14.331 33.7272 14.6746 33.3152 14.6863C32.9032 14.6981 32.5596 14.3736 32.5479 13.9616C32.4599 10.8829 31.5936 7.42046 27.9256 4.36388C27.6089 4.10002 27.5661 3.62941 27.83 3.31276Z" fill="#EA1D2C"/>
<path fill-rule="evenodd" clip-rule="evenodd" d="M14.6879 31.9417C14.6879 32.3538 14.3538 32.688 13.9416 32.688C11.6918 32.688 9.83727 32.4093 8.26798 31.3631C7.92503 31.1344 7.83235 30.6711 8.06099 30.3281C8.28963 29.9852 8.753 29.8925 9.09596 30.1211C10.2948 30.9203 11.7873 31.1953 13.9416 31.1953C14.3538 31.1953 14.6879 31.5295 14.6879 31.9417Z" fill="#EA1D2C"/>
<path fill-rule="evenodd" clip-rule="evenodd" d="M6.21019 29.3752C5.94632 29.6919 5.47572 29.7347 5.15906 29.4708C1.07599 26.0684 0.0968431 22.1492 0.000265601 18.769C-0.0115066 18.357 0.312955 18.0134 0.72497 18.0017C1.13699 17.9899 1.48053 18.3144 1.49231 18.7264C1.58027 21.8051 2.44654 25.2675 6.11461 28.3241C6.43126 28.588 6.47406 29.0586 6.21019 29.3752Z" fill="#EA1D2C"/>
<path d="M23.9849 14.1697C23.8871 13.1265 23.314 12.1904 22.4055 11.5885C20.9519 10.6323 18.9392 10.8597 17.6044 12.1369L16.9964 12.7186L16.3954 12.1369C15.0606 10.8597 13.041 10.6323 11.5943 11.5885C10.6928 12.1837 10.1128 13.1265 10.0149 14.1697C9.91709 15.2128 10.3015 16.2359 11.0702 16.9715L15.8364 21.5386C16.1578 21.8462 16.5771 22 16.9964 22C17.4158 22 17.8351 21.8462 18.1565 21.5386L22.9297 16.9715C23.6984 16.2359 24.0828 15.2128 23.9849 14.1697Z" fill="#EF5753"/>
<path fill-rule="evenodd" clip-rule="evenodd" d="M16.9999 11.2462C18.6601 9.82027 21.0897 9.56375 22.9188 10.7592L22.9219 10.7612C24.086 11.5273 24.8498 12.7433 24.9801 14.1242C25.1098 15.4979 24.5975 16.8385 23.5946 17.7919L18.9188 22.2367C18.3786 22.7503 17.6811 23 16.9965 23C16.3119 23 15.6144 22.7503 15.0742 22.2367L10.4053 17.7919C9.40237 16.8385 8.89006 15.4979 9.01975 14.1242C9.15012 12.7432 9.92087 11.5203 11.0789 10.7605M16.9999 11.2462C15.3401 9.82101 12.903 9.56306 11.0789 10.7605L16.9999 11.2462ZM15.6197 13.0847C14.6642 12.1782 13.2674 12.0648 12.3304 12.6801C11.7226 13.0788 11.3566 13.6913 11.2953 14.3405C11.2333 14.9972 11.474 15.6481 11.9771 16.1264L16.646 20.5712C16.7356 20.6563 16.8596 20.706 16.9965 20.706C17.1334 20.706 17.2575 20.6563 17.347 20.5712L22.0227 16.1264C22.5259 15.6481 22.7666 14.9972 22.7046 14.3405C22.6433 13.6915 22.2849 13.0858 21.6701 12.6806C20.7239 12.0632 19.3323 12.1796 18.378 13.0867L16.992 14.4043L15.6197 13.0847Z" fill="#EA1D2C"/>
<path fill-rule="evenodd" clip-rule="evenodd" d="M32.9401 18C33.3523 18 33.6865 18.3341 33.6865 18.7463C33.6865 20.9961 33.4077 22.8507 32.3615 24.4199C32.1329 24.7629 31.6695 24.8556 31.3266 24.6269C30.9836 24.3983 30.891 23.9349 31.1196 23.592C31.9188 22.3931 32.1938 20.9006 32.1938 18.7463C32.1938 18.3341 32.528 18 32.9401 18Z" fill="#EA1D2C"/>
<path fill-rule="evenodd" clip-rule="evenodd" d="M30.3737 26.4777C30.6904 26.7415 30.7332 27.2121 30.4693 27.5288C27.0669 31.6119 23.1477 32.591 19.7675 32.6876C19.3555 32.6994 19.0119 32.3749 19.0002 31.9629C18.9884 31.5509 19.3129 31.2073 19.7249 31.1956C22.8036 31.1076 26.266 30.2413 29.3226 26.5733C29.5865 26.2566 30.0571 26.2138 30.3737 26.4777Z" fill="#EA1D2C"/>
<path fill-rule="evenodd" clip-rule="evenodd" d="M1.10002 14.688C0.687839 14.688 0.353699 14.3538 0.353699 13.9417C0.353699 11.6919 0.632422 9.83733 1.67861 8.26804C1.90725 7.92509 2.37062 7.83241 2.71358 8.06105C3.05653 8.28969 3.14921 8.75306 2.92057 9.09602C2.12134 10.2949 1.84635 11.7874 1.84635 13.9417C1.84635 14.3538 1.51221 14.688 1.10002 14.688Z" fill="#EA1D2C"/>
<path fill-rule="evenodd" clip-rule="evenodd" d="M3.66646 6.21031C3.3498 5.94644 3.30701 5.47584 3.57088 5.15919C6.97327 1.07612 10.8925 0.0969655 14.2727 0.000388147C14.6847 -0.011384 15.0283 0.313077 15.04 0.725093C15.0518 1.13711 14.7273 1.48066 14.3153 1.49243C11.2366 1.58039 7.77416 2.44666 4.71758 6.11473C4.45372 6.43138 3.98311 6.47418 3.66646 6.21031Z" fill="#EA1D2C"/>
</svg>
