<svg width="16" height="15" viewBox="0 0 16 15" fill="none" xmlns="http://www.w3.org/2000/svg">
<path fill-rule="evenodd" clip-rule="evenodd" d="M8.38703 12.4808C8.14618 12.3477 7.85382 12.3477 7.61297 12.4808L4.49755 14.203C3.91309 14.5261 3.21344 14.0331 3.32095 13.374L3.935 9.60963C3.97588 9.35903 3.89536 9.1039 3.71804 8.92216L1.08726 6.22581C0.632532 5.75975 0.895362 4.97466 1.53904 4.87631L5.10588 4.33135C5.3696 4.29105 5.59589 4.12195 5.70925 3.88044L7.27581 0.542892C7.56374 -0.070551 8.43626 -0.0705524 8.72419 0.542891L10.2908 3.88044C10.4041 4.12195 10.6304 4.29105 10.8941 4.33135L14.461 4.87631C15.1046 4.97466 15.3675 5.75975 14.9127 6.22582L12.282 8.92216C12.1046 9.1039 12.0241 9.35903 12.065 9.60963L12.679 13.374C12.7866 14.0331 12.0869 14.5261 11.5024 14.203L8.38703 12.4808Z" fill="#FFBE00"/>
</svg>
