<?xml version="1.0" standalone="no"?>
<!DOCTYPE svg PUBLIC "-//W3C//DTD SVG 1.1//EN" "http://www.w3.org/Graphics/SVG/1.1/DTD/svg11.dtd" >
<svg xmlns="http://www.w3.org/2000/svg" xmlns:xlink="http://www.w3.org/1999/xlink" version="1.1">
<metadata>
Created by FontForge 20170731 at Tue Feb  7 00:45:27 2017
 By Aleksey,,,
Copyright (c) 2016 by Rui Abreu, Portugal. All rights reserved. Designed by Rui Abreu.
</metadata>
<defs>
<font id="SulSans-Regular" horiz-adv-x="492" >
  <font-face 
    font-family="Sul Sans"
    font-weight="400"
    font-stretch="normal"
    units-per-em="2048"
    panose-1="2 11 6 3 3 4 3 2 2 4"
    ascent="1589"
    descent="-459"
    x-height="1032"
    cap-height="1495"
    bbox="-779 -498 2761 1952"
    underline-thickness="50"
    underline-position="-374"
    unicode-range="U+0020-FB02"
  />
<missing-glyph horiz-adv-x="1139" 
d="M498 1309l379 -377l-181 -180l181 -179l-181 -180l181 -178l-236 -235l-377 380l178 179l-178 180l178 178l-178 178z" />
    <glyph glyph-name="fi" unicode="fi" horiz-adv-x="1227" 
d="M242 858h-215v174h215v248q0 83 35 147t98.5 99t146.5 35h187v-175h-162q-55 0 -88 -33.5t-33 -88.5v-232h283v-174h-283v-858h-184v858zM1073 0h-184v1032h184v-1032zM981 1528q58 0 94.5 -37.5t36.5 -93.5t-36.5 -93.5t-94.5 -37.5t-94.5 37.5t-36.5 93.5t36.5 93.5
t94.5 37.5z" />
    <glyph glyph-name="fl" unicode="fl" horiz-adv-x="1227" 
d="M242 858h-215v174h215v248q0 83 35 147t98.5 99t146.5 35h187v-175h-162q-55 0 -88 -33.5t-33 -88.5v-232h283v-174h-283v-858h-184v858zM889 1561h184v-1561h-184v1561z" />
    <glyph glyph-name=".notdef" horiz-adv-x="1139" 
d="M498 1309l379 -377l-181 -180l181 -179l-181 -180l181 -178l-236 -235l-377 380l178 179l-178 180l178 178l-178 178z" />
    <glyph glyph-name=".null" horiz-adv-x="0" 
 />
    <glyph glyph-name="nonmarkingreturn" horiz-adv-x="682" 
 />
    <glyph glyph-name="space" unicode=" " horiz-adv-x="592" 
 />
    <glyph glyph-name="exclam" unicode="!" horiz-adv-x="639" 
d="M420 1495l-19 -1085h-163l-19 1085h201zM319 254q59 0 96 -37.5t37 -95.5t-37 -95.5t-96 -37.5q-58 0 -95.5 38t-37.5 95t37.5 95t95.5 38z" />
    <glyph glyph-name="quotedbl" unicode="&#x22;" horiz-adv-x="766" 
d="M455 1337q-4 66 -4 86q0 40 27 67.5t69 27.5t69 -27.5t27 -67.5q0 -20 -4 -86l-26 -424h-131zM127 1337q-4 66 -4 86q0 40 27 67.5t69 27.5t69 -27.5t27 -67.5q0 -20 -4 -86l-26 -424h-131z" />
    <glyph glyph-name="numbersign" unicode="#" horiz-adv-x="1253" 
d="M951 901l-83 -307h211l-43 -156h-210l-119 -438h-164l119 438h-238l-119 -438h-164l120 438h-212l43 156h211l84 307h-213l43 156h212l120 438h162l-119 -438h237l119 438h164l-119 -438h211l-43 -156h-210zM787 901h-237l-84 -307h238z" />
    <glyph glyph-name="dollar" unicode="$" horiz-adv-x="1167" 
d="M676 94v-231h-182v232q-108 16 -191.5 69.5t-130.5 136t-47 184.5h188q0 -66 35.5 -115t98.5 -75.5t143 -26.5q81 0 141 27t92.5 75t32.5 109q0 62 -35 103.5t-96 62.5q-31 11 -68 16t-95 10t-95 10t-72 15q-124 35 -191 121t-67 205q0 97 44 177.5t125 133.5t188 68v231
h182v-233q102 -17 180.5 -68t122.5 -128.5t45 -172.5h-188q-3 59 -36.5 104t-90.5 70t-131 25q-75 0 -132.5 -26t-89.5 -72t-32 -103q0 -56 33 -97t94 -61q32 -10 67.5 -15t90.5 -10q109 -10 171 -26q126 -32 194 -118.5t68 -211.5q0 -101 -45 -184.5t-127.5 -138.5
t-193.5 -72z" />
    <glyph glyph-name="percent" unicode="%" horiz-adv-x="1886" 
d="M449 1518q110 0 197.5 -50.5t137.5 -138.5t50 -196q0 -109 -49.5 -197t-137.5 -138t-198 -50t-198 50t-138 138t-50 197q0 108 50 196t138 138.5t198 50.5zM1399 1495h205l-1117 -1495h-204zM449 918q61 0 110 27.5t77 76.5t28 111q0 61 -28 110t-77 77t-110 28
q-62 0 -111 -28t-77 -77t-28 -110q0 -62 28 -111t77 -76.5t111 -27.5zM1438 750q110 0 197.5 -50.5t137.5 -138.5t50 -196q0 -109 -49.5 -197t-137.5 -138t-198 -50t-198 50t-137.5 138t-49.5 197q0 108 49.5 196t137.5 138.5t198 50.5zM1438 150q62 0 111 27.5t76.5 76.5
t27.5 111q0 61 -27.5 110t-76.5 77t-111 28t-111 -28t-76.5 -77t-27.5 -110q0 -62 27.5 -111t76.5 -76.5t111 -27.5z" />
    <glyph glyph-name="ampersand" unicode="&#x26;" horiz-adv-x="1413" 
d="M1186 0l-182 197q-73 -107 -177.5 -163.5t-234.5 -56.5q-135 0 -242.5 58t-168 160.5t-60.5 230.5q0 138 74.5 247t212.5 169l-52 55q-51 55 -78.5 122t-27.5 140q0 102 49 183.5t135.5 128.5t196.5 47q108 0 193.5 -46.5t133.5 -128t48 -182.5q0 -106 -54.5 -188.5
t-156.5 -136.5l-101 -54l273 -295l159 320h213l-243 -459l321 -348h-231zM430 1157q0 -91 66 -160l77 -84l117 54q75 34 107 81t32 109q0 56 -24.5 99.5t-69.5 67.5t-104 24q-60 0 -105.5 -24t-70.5 -67.5t-25 -99.5zM874 336l-342 371l-43 -21q-180 -85 -180 -256
q0 -79 36.5 -140.5t102 -95.5t148.5 -34q179 0 278 176z" />
    <glyph glyph-name="quotesingle" unicode="'" horiz-adv-x="438" 
d="M127 1337q-4 66 -4 86q0 40 27 67.5t69 27.5t69 -27.5t27 -67.5q0 -20 -4 -86l-26 -424h-131z" />
    <glyph glyph-name="parenleft" unicode="(" horiz-adv-x="748" 
d="M145 602q0 276 99.5 517.5t279.5 428.5l135 -116q-158 -163 -245.5 -376t-87.5 -454t87.5 -453t245.5 -376l-135 -117q-180 188 -279.5 429t-99.5 517z" />
    <glyph glyph-name="parenright" unicode=")" horiz-adv-x="748" 
d="M603 602q0 -276 -99.5 -517.5t-279.5 -428.5l-135 116q158 163 245.5 376t87.5 454t-87.5 453t-245.5 376l135 117q180 -188 279.5 -429t99.5 -517z" />
    <glyph glyph-name="asterisk" unicode="*" horiz-adv-x="938" 
d="M193 858l167 229l-268 80l43 138l266 -91l-4 281h144l-4 -281l266 91l43 -138l-268 -80l167 -229l-114 -82l-162 230l-162 -230z" />
    <glyph glyph-name="plus" unicode="+" horiz-adv-x="1251" 
d="M141 618v173h400v397h172v-397h397v-173h-397v-397h-172v397h-400z" />
    <glyph glyph-name="comma" unicode="," horiz-adv-x="537" 
d="M403 160q0 -24 -10 -56l-135 -391h-133l86 326q-34 16 -54 48t-20 73q0 57 37.5 95t95.5 38t95.5 -38t37.5 -95z" />
    <glyph glyph-name="hyphen" unicode="-" horiz-adv-x="705" 
d="M594 674v-185h-483v185h483z" />
    <glyph glyph-name="period" unicode="." horiz-adv-x="537" 
d="M268 254q59 0 96 -37.5t37 -95.5t-37 -95.5t-96 -37.5q-58 0 -95.5 38t-37.5 95t37.5 95t95.5 38z" />
    <glyph glyph-name="slash" unicode="/" horiz-adv-x="950" 
d="M55 -47l658 1591h182l-657 -1591h-183z" />
    <glyph glyph-name="zero" unicode="0" horiz-adv-x="1298" 
d="M178 1092q10 120 73 217t166.5 153t231.5 56t232 -56t166.5 -153t72.5 -217q10 -121 10 -344q0 -224 -10 -345q-10 -120 -72.5 -217t-166.5 -153t-232 -56t-231.5 56t-166.5 153t-73 217q-10 121 -10 345q0 223 10 344zM371 420q6 -72 42.5 -129t97.5 -89t138 -32
t138.5 32t98 89t42.5 129q8 92 8 328q0 235 -8 327q-6 72 -42.5 129t-98 89t-138.5 32t-138 -32t-97.5 -89t-42.5 -129q-9 -103 -9 -327t9 -328z" />
    <glyph glyph-name="one" unicode="1" horiz-adv-x="944" 
d="M496 1288l-396 -244v209l396 242h196v-1495h-196v1288z" />
    <glyph glyph-name="two" unicode="2" horiz-adv-x="1200" 
d="M1067 190v-190h-936v172l584 604q73 76 107 142t34 143q0 78 -33.5 138t-94.5 93t-140 33q-77 0 -137 -31.5t-94 -89t-35 -131.5h-197q1 127 59 228.5t163.5 159t242.5 57.5q136 0 240.5 -57t162.5 -158.5t58 -229.5q0 -119 -51.5 -218t-157.5 -208l-442 -457h667z" />
    <glyph glyph-name="three" unicode="3" horiz-adv-x="1196" 
d="M1057 416q0 -125 -60 -225t-167.5 -157t-243.5 -57q-137 0 -244.5 56.5t-167 156t-59.5 222.5h194q3 -71 38.5 -126.5t97.5 -86.5t141 -31q81 0 143.5 32t97.5 90t35 132t-34 131.5t-95.5 90t-140.5 32.5h-148v180h146q73 0 130 30t89.5 84t32.5 122q0 70 -32 123.5
t-89.5 82.5t-130.5 29q-71 0 -127 -27.5t-87.5 -78t-33.5 -117.5h-197q0 117 56.5 211.5t158 148.5t230.5 54q131 0 232.5 -54.5t157.5 -150t56 -215.5q0 -101 -45.5 -187t-125.5 -140q90 -54 141 -147.5t51 -207.5z" />
    <glyph glyph-name="four" unicode="4" horiz-adv-x="1274" 
d="M1214 631v-187h-266v-444h-192v444h-664v154l645 897h211v-864h266zM756 631v605l-437 -605h437z" />
    <glyph glyph-name="five" unicode="5" horiz-adv-x="1268" 
d="M1126 461q0 -137 -63 -247.5t-176 -173.5t-256 -63q-142 0 -256 62t-178 171t-64 243h193q1 -82 40 -147t108 -101.5t157 -36.5q90 0 159 37t107.5 103.5t38.5 150.5q0 85 -38.5 151.5t-108 104t-158.5 37.5h-424l92 743h772v-190h-603l-46 -371h229q137 0 245.5 -61.5
t169 -169.5t60.5 -242z" />
    <glyph glyph-name="six" unicode="6" horiz-adv-x="1257" 
d="M1135 471q0 -140 -64.5 -253t-180 -177t-261.5 -64q-143 0 -259 63.5t-181.5 175t-65.5 249.5q0 94 30 185.5t83 172.5l432 672h221l-357 -553q50 8 97 8q147 0 262 -61.5t179.5 -170.5t64.5 -247zM942 469q0 89 -40 158t-111.5 107t-163.5 38q-91 0 -162 -38
t-110.5 -107t-39.5 -158q0 -86 39.5 -154t110.5 -106.5t162 -38.5q92 0 163.5 38.5t111.5 106.5t40 154z" />
    <glyph glyph-name="seven" unicode="7" horiz-adv-x="1174" 
d="M94 1495h965v-182l-574 -1313h-204l571 1305h-758v190z" />
    <glyph glyph-name="eight" unicode="8" horiz-adv-x="1233" 
d="M1094 418q0 -126 -60.5 -226.5t-169.5 -157.5t-248 -57t-247.5 57t-169 157.5t-60.5 226.5q0 114 50 206t140 147q-78 54 -121.5 139.5t-43.5 187.5q0 120 57 215.5t159.5 150t235.5 54.5t236 -54.5t160 -150t57 -215.5q0 -102 -43.5 -187.5t-121.5 -139.5
q90 -55 140 -147t50 -206zM358 1087q0 -70 32 -124.5t91 -84.5t135 -30q77 0 135.5 30t90.5 84.5t32 124.5q0 72 -32 127t-90.5 85t-135.5 30t-135.5 -30t-90.5 -85t-32 -127zM899 426q0 76 -35.5 135.5t-99.5 93t-148 33.5t-148 -33.5t-99 -93t-35 -135.5t35 -135.5t99 -93
t148 -33.5q85 0 149 33.5t99 93t35 135.5z" />
    <glyph glyph-name="nine" unicode="9" horiz-adv-x="1257" 
d="M1134 1030q0 -94 -30 -185.5t-83 -172.5l-432 -672h-221l357 553q-50 -8 -97 -8q-147 0 -262 61.5t-179.5 170.5t-64.5 247q0 140 64.5 253t180 177t261.5 64q143 0 259 -63.5t181.5 -175t65.5 -249.5zM630 723q91 0 162 38t110.5 107t39.5 158q0 86 -39.5 154
t-110.5 106.5t-162 38.5q-92 0 -163.5 -38.5t-111.5 -106.5t-40 -154q0 -89 40 -158t111.5 -107t163.5 -38z" />
    <glyph glyph-name="colon" unicode=":" horiz-adv-x="537" 
d="M268 254q59 0 96 -37.5t37 -95.5t-37 -95.5t-96 -37.5q-58 0 -95.5 38t-37.5 95t37.5 95t95.5 38zM268 1032q59 0 96 -37.5t37 -95.5t-37 -95.5t-96 -37.5q-58 0 -95.5 38t-37.5 95t37.5 95t95.5 38z" />
    <glyph glyph-name="semicolon" unicode=";" horiz-adv-x="537" 
d="M403 160q0 -24 -10 -56l-135 -391h-133l86 326q-34 16 -54 48t-20 73q0 57 37.5 95t95.5 38t95.5 -38t37.5 -95zM268 1032q59 0 96 -37.5t37 -95.5t-37 -95.5t-96 -37.5q-58 0 -95.5 38t-37.5 95t37.5 95t95.5 38z" />
    <glyph glyph-name="less" unicode="&#x3c;" horiz-adv-x="1251" 
d="M1106 1006l-690 -299l690 -299v-177l-963 416v119l963 416v-176z" />
    <glyph glyph-name="equal" unicode="=" horiz-adv-x="1251" 
d="M1090 999v-170h-928v170h928zM1090 578v-168h-928v168h928z" />
    <glyph glyph-name="greater" unicode="&#x3e;" horiz-adv-x="1251" 
d="M145 407l690 299l-690 299v177l963 -416v-119l-963 -416v176z" />
    <glyph glyph-name="question" unicode="?" horiz-adv-x="977" 
d="M371 446v54q0 87 16 144t53 105.5t109 112.5q82 72 119 127.5t37 126.5q0 63 -27.5 112.5t-76 77t-109.5 27.5t-109.5 -28t-76 -78t-27.5 -113h-189q0 114 52.5 206.5t145 145t206.5 52.5t206 -52t143.5 -142.5t51.5 -201.5q0 -82 -25.5 -146t-70.5 -117.5t-121 -119.5
q-56 -49 -83.5 -82t-39.5 -69t-12 -88v-54h-172zM454 254q59 0 96 -37.5t37 -95.5t-37 -95.5t-96 -37.5q-58 0 -95.5 38t-37.5 95t37.5 95t95.5 38z" />
    <glyph glyph-name="at" unicode="@" horiz-adv-x="1855" 
d="M1733 524q0 -130 -35 -224.5t-102 -145t-162 -50.5q-87 0 -152 37.5t-95 103.5q-50 -66 -127.5 -103.5t-168.5 -37.5q-116 0 -208 55.5t-144 151.5t-52 213q0 118 52 214t144 151t208 55q79 0 146.5 -27.5t117.5 -77.5v85h152v-533q0 -63 35.5 -102t95.5 -39
q145 0 145 272q-1 184 -79.5 333.5t-225.5 236t-346 86.5t-346.5 -86t-226 -234.5t-78.5 -333.5q0 -182 78 -331t225.5 -235.5t345.5 -86.5h358v-147h-356q-240 0 -421.5 104t-280.5 286t-99 408q0 227 98 410t280 288t423 105q239 0 421 -104t281 -286.5t99 -410.5z
M1161 524q0 77 -33 139t-92 97t-135 35q-75 0 -134 -35t-91.5 -97t-32.5 -139t32.5 -138t91.5 -95.5t134 -34.5q76 0 135 34.5t92 95.5t33 138z" />
    <glyph glyph-name="A" unicode="A" horiz-adv-x="1294" 
d="M958 279h-627l-95 -279h-197l512 1495h197l507 -1495h-202zM895 465l-249 737l-251 -737h500z" />
    <glyph glyph-name="B" unicode="B" horiz-adv-x="1430" 
d="M1313 418q0 -119 -56.5 -214.5t-155.5 -149.5t-222 -54h-713v1495h711q123 0 220 -53.5t151.5 -148t54.5 -212.5q0 -103 -45 -189t-125 -141q84 -53 132 -140.5t48 -192.5zM360 1305v-459h517q66 0 118.5 30t82.5 82t30 117q0 66 -30 118.5t-82.5 82t-118.5 29.5h-517z
M1118 424q0 66 -30.5 119t-84 83.5t-120.5 30.5h-523v-467h523q66 0 120 30.5t84.5 84t30.5 119.5z" />
    <glyph glyph-name="C" unicode="C" horiz-adv-x="1542" 
d="M858 1518q194 0 352 -82t257 -228l-156 -119q-72 112 -189.5 175t-263.5 63q-163 0 -291.5 -75.5t-200 -208t-71.5 -298.5q0 -162 71.5 -294t200 -207.5t291.5 -75.5q146 0 263.5 63.5t189.5 176.5l156 -119q-99 -147 -257 -229.5t-352 -82.5q-217 0 -389.5 100.5
t-270.5 275.5t-98 392q0 219 97.5 395.5t270.5 277t390 100.5z" />
    <glyph glyph-name="D" unicode="D" horiz-adv-x="1477" 
d="M1376 748q0 -210 -96.5 -381t-267 -269t-383.5 -98h-463v1495h463q213 0 383.5 -98t267 -269t96.5 -380zM360 190h265q159 0 286 73t199 200.5t72 284.5t-72 284t-199 200t-286 73h-265v-1115z" />
    <glyph glyph-name="E" unicode="E" horiz-adv-x="1405" 
d="M166 1495h1122v-190h-928v-459h533v-191h-533v-465h928v-190h-1122v1495z" />
    <glyph glyph-name="F" unicode="F" horiz-adv-x="1366" 
d="M166 1495h1122v-190h-928v-459h531v-191h-531v-655h-194v1495z" />
    <glyph glyph-name="G" unicode="G" horiz-adv-x="1675" 
d="M1585 717q0 -212 -92 -380.5t-258.5 -264t-380.5 -95.5q-219 0 -390.5 99.5t-267.5 275.5t-96 396q0 219 98 394.5t271.5 275.5t392.5 100q213 0 383 -97t267 -266l-164 -101q-72 126 -199 199.5t-287 73.5q-164 0 -293.5 -75.5t-201.5 -207.5t-72 -296q0 -169 70 -301.5
t197.5 -206.5t293.5 -74q132 0 237.5 45.5t177 128.5t105.5 195h-602v182h811z" />
    <glyph glyph-name="H" unicode="H" horiz-adv-x="1479" 
d="M166 1495h194v-649h758v649h195v-1495h-195v657h-758v-657h-194v1495z" />
    <glyph glyph-name="I" unicode="I" horiz-adv-x="526" 
d="M166 1495h194v-1495h-194v1495z" />
    <glyph glyph-name="J" unicode="J" horiz-adv-x="1174" 
d="M1018 1495v-1042q0 -134 -62 -242.5t-174 -171t-256 -62.5q-141 0 -251.5 61t-173 169t-64.5 242h192q1 -80 39 -144t105 -100.5t153 -36.5t154 37.5t105.5 103t37.5 146.5v1040h195z" />
    <glyph glyph-name="K" unicode="K" horiz-adv-x="1264" 
d="M979 0l-619 714v-714h-194v1495h194v-698l615 698h244l-654 -737l662 -758h-248z" />
    <glyph glyph-name="L" unicode="L" horiz-adv-x="1366" 
d="M166 1495h194v-1305h928v-190h-1122v1495z" />
    <glyph glyph-name="M" unicode="M" horiz-adv-x="1677" 
d="M166 1495h192l482 -1063l477 1063h194v-1495h-194v1053l-479 -1069l-480 1067v-1051h-192v1495z" />
    <glyph glyph-name="N" unicode="N" horiz-adv-x="1487" 
d="M1321 1495v-1495h-195l-766 1159v-1159h-194v1495h194l766 -1159v1159h195z" />
    <glyph glyph-name="O" unicode="O" horiz-adv-x="1733" 
d="M866 1518q220 0 395 -99.5t273 -275t98 -395.5q0 -221 -98 -396.5t-273 -275t-395 -99.5t-394.5 99.5t-273 275t-98.5 396.5q0 220 98.5 395.5t273 275t394.5 99.5zM866 168q165 0 295.5 75t203.5 207.5t73 297.5t-73 297t-203.5 207t-295.5 75t-295.5 -75t-203 -207
t-72.5 -297t72.5 -297.5t203 -207.5t295.5 -75z" />
    <glyph glyph-name="P" unicode="P" horiz-adv-x="1368" 
d="M1282 985q0 -147 -66 -263t-185 -181.5t-271 -65.5h-400v-475h-194v1495h594q152 0 271 -65.5t185 -182t66 -262.5zM1087 985q0 92 -41 165t-114.5 114t-167.5 41h-404v-641h404q94 0 167.5 41.5t114.5 114.5t41 165z" />
    <glyph glyph-name="Q" unicode="Q" horiz-adv-x="1743" 
d="M1665 179v-179h-90l-195 160q-102 -88 -233 -135.5t-281 -47.5q-220 0 -394.5 99.5t-273 275t-98.5 396.5q0 220 98.5 395.5t273 275t394.5 99.5t395 -99.5t273 -275t98 -395.5q0 -123 -32 -234.5t-92 -205.5zM1227 287l-205 168l125 151l209 -172q82 138 82 314
q0 165 -73 297t-203.5 207t-295.5 75t-295.5 -75t-203 -207t-72.5 -297t72.5 -297.5t203 -207.5t295.5 -75q105 0 196.5 30.5t164.5 88.5z" />
    <glyph glyph-name="R" unicode="R" horiz-adv-x="1395" 
d="M744 496h-384v-496h-194v1495h592q150 0 267 -64t182 -178t65 -260q0 -106 -38.5 -199t-109.5 -160.5t-166 -101.5l342 -532h-231zM360 686h400q93 0 165 39.5t112 110t40 159.5q0 92 -39.5 162t-111 109t-164.5 39h-402v-619z" />
    <glyph glyph-name="S" unicode="S" horiz-adv-x="1247" 
d="M616 1331q-90 0 -159.5 -32.5t-107.5 -89.5t-38 -128q0 -69 38.5 -121.5t107.5 -76.5q35 -14 76.5 -20t113.5 -12q68 -6 117.5 -13t97.5 -21q134 -42 208.5 -139.5t74.5 -237.5q0 -132 -64.5 -237.5t-182 -165.5t-271.5 -60q-149 0 -269 57.5t-188 161t-68 236.5h195
q0 -79 43.5 -140t119.5 -94.5t171 -33.5q97 0 170 33.5t112 93.5t39 137t-39.5 128t-109.5 77q-38 14 -81 20.5t-119 13.5q-67 6 -115.5 13t-92.5 20q-134 42 -206 139.5t-72 231.5q0 127 63 229t176.5 160t259.5 58q144 0 259.5 -55.5t181.5 -154.5t67 -225h-196
q-3 74 -43 130.5t-109.5 87t-159.5 30.5z" />
    <glyph glyph-name="T" unicode="T" horiz-adv-x="1251" 
d="M528 1305h-465v190h1125v-190h-465v-1305h-195v1305z" />
    <glyph glyph-name="U" unicode="U" horiz-adv-x="1448" 
d="M1292 539q0 -158 -73.5 -286.5t-202.5 -202t-289 -73.5q-164 0 -294.5 74t-203.5 202t-73 286v956h194v-950q0 -104 48.5 -190.5t134.5 -136.5t192 -50t192 50t134.5 136.5t48.5 190.5v950h192v-956z" />
    <glyph glyph-name="V" unicode="V" horiz-adv-x="1274" 
d="M1235 1495l-502 -1495h-192l-502 1495h203l397 -1191l397 1191h199z" />
    <glyph glyph-name="W" unicode="W" horiz-adv-x="1987" 
d="M1745 1495h199l-443 -1495h-198l-311 1053l-312 -1053h-199l-438 1495h203l339 -1177l341 1177h137l339 -1174z" />
    <glyph glyph-name="X" unicode="X" horiz-adv-x="1346" 
d="M674 606l-420 -606h-225l522 750l-514 745h225l414 -596l414 596h223l-516 -739l524 -756h-227z" />
    <glyph glyph-name="Y" unicode="Y" horiz-adv-x="1307" 
d="M557 512l-530 983h215l413 -768l416 768h209l-528 -981v-514h-195v512z" />
    <glyph glyph-name="Z" unicode="Z" horiz-adv-x="1393" 
d="M117 0v178l911 1127h-911v190h1159v-178l-911 -1127h911v-190h-1159z" />
    <glyph glyph-name="bracketleft" unicode="[" horiz-adv-x="731" 
d="M618 1495v-174h-245v-1438h245v-174h-425v1786h425z" />
    <glyph glyph-name="backslash" unicode="\" horiz-adv-x="950" 
d="M55 1544h183l657 -1591h-182z" />
    <glyph glyph-name="bracketright" unicode="]" horiz-adv-x="731" 
d="M113 -291v174h245v1438h-245v174h425v-1786h-425z" />
    <glyph glyph-name="asciicircum" unicode="^" horiz-adv-x="1071" 
d="M772 680l-236 534l-237 -534h-182l338 760h161l338 -760h-182z" />
    <glyph glyph-name="underscore" unicode="_" horiz-adv-x="913" 
d="M913 -160v-176h-913v176h913z" />
    <glyph glyph-name="grave" unicode="`" horiz-adv-x="1303" 
d="M629 1477l112 -318h-127l-223 318h238z" />
    <glyph glyph-name="a" unicode="a" horiz-adv-x="1069" 
d="M922 678v-678h-181v97q-52 -58 -126 -89t-169 -31q-105 0 -185 40t-123.5 111.5t-43.5 164.5q0 139 94 219.5t263 97.5l290 28v36q0 56 -29.5 102t-81 72t-114.5 26q-84 0 -144 -45.5t-73 -117.5h-180q8 99 60.5 177t140 122.5t196.5 44.5q118 0 210.5 -49t144 -134.5
t51.5 -193.5zM741 365v121l-268 -27q-98 -11 -146 -53t-48 -111q0 -44 23 -79.5t66.5 -56t104.5 -20.5q79 0 140 30.5t94.5 82t33.5 113.5z" />
    <glyph glyph-name="b" unicode="b" horiz-adv-x="1288" 
d="M1204 516q0 -150 -66.5 -273.5t-184.5 -194.5t-267 -71q-103 0 -192.5 37t-155.5 104v-118h-184v1561h184v-649q65 68 154 105.5t194 37.5q149 0 267 -71t184.5 -194.5t66.5 -273.5zM1020 516q0 103 -44 184.5t-122.5 127.5t-179.5 46q-100 0 -178.5 -46t-122 -127.5
t-43.5 -184.5t43.5 -184.5t122 -127.5t178.5 -46q101 0 179.5 46t122.5 127.5t44 184.5z" />
    <glyph glyph-name="c" unicode="c" horiz-adv-x="1108" 
d="M616 1055q136 0 248 -58t183 -161l-146 -108q-46 68 -119.5 106t-165.5 38q-101 0 -180 -45.5t-123.5 -127t-44.5 -183.5t44.5 -183.5t123.5 -127t180 -45.5q92 0 165.5 38t119.5 106l146 -107q-71 -103 -183 -161.5t-248 -58.5q-152 0 -273.5 71t-190 194t-68.5 274
t68.5 274t190 194t273.5 71z" />
    <glyph glyph-name="d" unicode="d" horiz-adv-x="1288" 
d="M1134 1561v-1561h-184v118q-66 -67 -155.5 -104t-192.5 -37q-149 0 -267 71t-184.5 194.5t-66.5 273.5t66.5 273.5t184.5 194.5t267 71q105 0 194 -37.5t154 -105.5v649h184zM958 516q0 103 -43.5 184.5t-122 127.5t-178.5 46q-101 0 -179.5 -46t-122.5 -127.5
t-44 -184.5t44 -184.5t122.5 -127.5t179.5 -46q100 0 178.5 46t122 127.5t43.5 184.5z" />
    <glyph glyph-name="e" unicode="e" horiz-adv-x="1186" 
d="M1097 432h-820q15 -80 61.5 -142.5t117.5 -97t158 -34.5q92 0 166.5 40t121.5 111l151 -99q-71 -108 -185.5 -170.5t-253.5 -62.5q-153 0 -273.5 71t-188.5 194.5t-68 273.5t65.5 273.5t182 194.5t264.5 71t263 -70.5t179 -193.5t64 -275q0 -50 -5 -84zM275 596h640
q-12 84 -55.5 147t-111 97t-152.5 34q-87 0 -155 -34t-111 -96.5t-55 -147.5z" />
    <glyph glyph-name="f" unicode="f" horiz-adv-x="735" 
d="M242 858h-215v174h215v248q0 83 35 147t98.5 99t146.5 35h187v-175h-162q-55 0 -88 -33.5t-33 -88.5v-232h283v-174h-283v-858h-184v858z" />
    <glyph glyph-name="g" unicode="g" horiz-adv-x="1253" 
d="M1100 1032v-999q0 -139 -64 -251t-178.5 -175.5t-259.5 -63.5q-115 0 -212 42t-164.5 118t-97.5 175l173 62q28 -99 108.5 -159t192.5 -60q91 0 163.5 41.5t113 113.5t40.5 161v119q-63 -63 -148.5 -97t-184.5 -34q-141 0 -255 68t-178.5 185.5t-64.5 260.5t64.5 261
t178.5 186.5t255 68.5q98 0 184 -35.5t149 -99.5v112h185zM924 537q0 97 -41.5 174t-116 120t-170.5 43q-94 0 -168.5 -43.5t-117 -120t-42.5 -173.5q0 -94 42.5 -170t117 -119t168.5 -43q96 0 170.5 43t116 118.5t41.5 170.5z" />
    <glyph glyph-name="h" unicode="h" horiz-adv-x="1186" 
d="M1038 639v-639h-184v614q0 73 -32 132.5t-90.5 93.5t-135.5 34q-76 0 -135 -34t-91 -93.5t-32 -132.5v-614h-184v1561h184v-621q53 55 127 85t160 30q119 0 213 -54t147 -149t53 -213z" />
    <glyph glyph-name="i" unicode="i" 
d="M338 0h-184v1032h184v-1032zM246 1528q58 0 94.5 -37.5t36.5 -93.5t-36.5 -93.5t-94.5 -37.5t-94.5 37.5t-36.5 93.5t36.5 93.5t94.5 37.5z" />
    <glyph glyph-name="j" unicode="j" 
d="M338 1032v-1229q0 -71 -29 -124.5t-82.5 -83t-124.5 -29.5h-110v174h71q43 0 67 25t24 67v1200h184zM246 1528q58 0 94.5 -37.5t36.5 -93.5t-36.5 -93.5t-94.5 -37.5t-94.5 37.5t-36.5 93.5t36.5 93.5t94.5 37.5z" />
    <glyph glyph-name="k" unicode="k" horiz-adv-x="1030" 
d="M526 545l478 -545h-238l-428 495v-495h-184v1561h184v-968l428 439h238z" />
    <glyph glyph-name="l" unicode="l" 
d="M154 1561h184v-1561h-184v1561z" />
    <glyph glyph-name="m" unicode="m" horiz-adv-x="1786" 
d="M1638 664v-664h-184v639q0 65 -29 119t-82 85t-122 31q-68 0 -121.5 -31t-83 -85t-29.5 -119v-639h-184v639q0 65 -28.5 118.5t-81.5 85t-122 31.5q-68 0 -121 -31.5t-82.5 -85.5t-29.5 -118v-639h-184v1032h178v-86q50 52 119 80.5t151 28.5q98 0 178 -39.5t132 -109.5
q55 70 138.5 109.5t184.5 39.5q116 0 207.5 -51t143.5 -140.5t52 -199.5z" />
    <glyph glyph-name="n" unicode="n" horiz-adv-x="1184" 
d="M1036 641v-641h-184v614q0 73 -32 132.5t-90.5 93.5t-135.5 34q-75 0 -133.5 -34t-90.5 -93.5t-32 -132.5v-614h-184v1032h184v-91q53 54 127 84t160 30q118 0 211.5 -54t146.5 -148.5t53 -211.5z" />
    <glyph glyph-name="o" unicode="o" horiz-adv-x="1241" 
d="M621 1055q153 0 275 -71.5t191.5 -195t69.5 -272.5t-69.5 -272.5t-191.5 -195t-275 -71.5t-275.5 71.5t-192 195t-69.5 272.5t69.5 272.5t192 195t275.5 71.5zM621 160q103 0 183 45.5t124.5 127t44.5 183.5t-44.5 183.5t-124.5 127t-183 45.5t-183.5 -45.5t-125 -126.5
t-44.5 -184t44.5 -184t125 -126.5t183.5 -45.5z" />
    <glyph glyph-name="p" unicode="p" horiz-adv-x="1288" 
d="M1204 516q0 -150 -66.5 -273.5t-184.5 -194.5t-267 -71q-103 0 -192.5 37t-155.5 104v-552h-184v1466h184v-120q65 68 154 105.5t194 37.5q149 0 267 -71t184.5 -194.5t66.5 -273.5zM1020 516q0 103 -44 184.5t-122.5 127.5t-179.5 46q-100 0 -178.5 -46t-122 -127.5
t-43.5 -184.5t43.5 -184.5t122 -127.5t178.5 -46q101 0 179.5 46t122.5 127.5t44 184.5z" />
    <glyph glyph-name="q" unicode="q" horiz-adv-x="1288" 
d="M1134 1032v-1466h-184v552q-66 -67 -155.5 -104t-192.5 -37q-149 0 -267 71t-184.5 194.5t-66.5 273.5t66.5 273.5t184.5 194.5t267 71q105 0 194 -37.5t154 -105.5v120h184zM958 516q0 103 -43.5 184.5t-122 127.5t-178.5 46q-101 0 -179.5 -46t-122.5 -127.5
t-44 -184.5t44 -184.5t122.5 -127.5t179.5 -46q100 0 178.5 46t122 127.5t43.5 184.5z" />
    <glyph glyph-name="r" unicode="r" horiz-adv-x="778" 
d="M733 1034v-182h-141q-75 0 -133 -34.5t-89.5 -94t-31.5 -131.5v-592h-184v1032h182v-123q46 60 116.5 92.5t155.5 32.5h125z" />
    <glyph glyph-name="s" unicode="s" horiz-adv-x="950" 
d="M479 154q46 0 83.5 11t64 31t41 47t14.5 60q0 34 -13 57.5t-40.5 39t-72 25t-107.5 16.5q-38 5 -66 8.5t-45 7.5q-121 25 -180.5 98t-59.5 179q0 70 29 129t80 101.5t121 66.5t152 24q79 0 147.5 -24.5t118 -67t78 -101t28.5 -127.5h-188q0 33 -14 59.5t-39 45.5
t-60.5 29t-77.5 10q-43 0 -78 -10.5t-60 -29.5t-38.5 -45.5t-13.5 -58.5q0 -49 26.5 -72.5t73 -35t109 -18t135.5 -19.5q118 -23 178.5 -98t60.5 -184q0 -73 -29.5 -134t-82 -104.5t-125.5 -68t-159 -24.5q-82 0 -152.5 25.5t-122 70t-80.5 105.5t-29 133h188
q0 -36 14.5 -65.5t41.5 -49.5t65 -31t84 -11z" />
    <glyph glyph-name="t" unicode="t" horiz-adv-x="793" 
d="M367 1032h350v-174h-350v-526q0 -73 41 -115.5t114 -42.5h195v-174h-234q-89 0 -157.5 38t-106 106.5t-37.5 156.5v557h-141v96l223 277h103v-199z" />
    <glyph glyph-name="u" unicode="u" horiz-adv-x="1180" 
d="M1026 1032v-1032h-184v94q-53 -56 -127 -86.5t-160 -30.5q-117 0 -210 53.5t-145.5 147t-52.5 207.5v647h185v-620q0 -71 31.5 -129t90 -91.5t134.5 -33.5q74 0 132 34t90 93t32 131v616h184z" />
    <glyph glyph-name="v" unicode="v" horiz-adv-x="1042" 
d="M1010 1032l-400 -1032h-178l-399 1032h198l291 -765l293 765h195z" />
    <glyph glyph-name="w" unicode="w" horiz-adv-x="1554" 
d="M1513 1032l-342 -1032h-186l-210 654l-210 -654h-182l-342 1032h195l241 -752l242 752h119l237 -738l246 738h192z" />
    <glyph glyph-name="x" unicode="x" horiz-adv-x="1083" 
d="M825 0l-285 393l-286 -393h-213l381 520l-369 512h215l275 -381l274 381h213l-368 -508l378 -524h-215z" />
    <glyph glyph-name="y" unicode="y" horiz-adv-x="1051" 
d="M1018 1032l-569 -1466h-197l174 450l-393 1016h200l292 -761l294 761h199z" />
    <glyph glyph-name="z" unicode="z" horiz-adv-x="1110" 
d="M96 0v168l668 690h-668v174h918v-168l-668 -690h668v-174h-918z" />
    <glyph glyph-name="braceleft" unicode="{" horiz-adv-x="782" 
d="M551 -117h104v-174h-137q-72 0 -126 29.5t-83.5 83.5t-29.5 125v473q0 44 -25.5 69t-71.5 25h-129v176h129q46 0 71.5 25t25.5 69v473q0 71 29.5 125t83.5 83.5t126 29.5h137v-174h-104q-44 0 -69 -25.5t-25 -68.5v-445q0 -56 -19.5 -102.5t-54.5 -77.5q36 -31 55 -77
t19 -103v-445q0 -43 25 -68.5t69 -25.5z" />
    <glyph glyph-name="bar" unicode="|" horiz-adv-x="662" 
d="M420 1602v-1958h-178v1958h178z" />
    <glyph glyph-name="braceright" unicode="}" horiz-adv-x="782" 
d="M231 1321h-104v174h137q72 0 126 -29.5t83.5 -83.5t29.5 -125v-473q0 -44 25.5 -69t71.5 -25h129v-176h-129q-46 0 -71.5 -25t-25.5 -69v-473q0 -71 -29.5 -125t-83.5 -83.5t-126 -29.5h-137v174h104q44 0 69 25.5t25 68.5v445q0 56 19.5 102.5t54.5 77.5q-36 31 -55 77
t-19 103v445q0 43 -25 68.5t-69 25.5z" />
    <glyph glyph-name="asciitilde" unicode="~" horiz-adv-x="1126" 
d="M367 856q56 -1 103.5 -19t112.5 -52q55 -29 91.5 -43.5t75.5 -14.5q95 0 104 125h153q-7 -157 -75.5 -228t-171.5 -71q-57 1 -105 19t-111 52q-55 29 -91.5 43.5t-75.5 14.5q-48 0 -74 -30t-33 -95h-150q6 157 74.5 228t172.5 71z" />
    <glyph glyph-name="uni00A0" unicode="&#xa0;" horiz-adv-x="592" 
 />
    <glyph glyph-name="exclamdown" unicode="&#xa1;" horiz-adv-x="639" 
d="M320 885q-59 0 -96 37.5t-37 95.5t37 95.5t96 37.5q58 0 95.5 -38t37.5 -95t-37.5 -95t-95.5 -38zM219 -356l19 1085h163l19 -1085h-201z" />
    <glyph glyph-name="cent" unicode="&#xa2;" horiz-adv-x="1208" 
d="M934 525l146 -107q-62 -89 -155.5 -146t-207.5 -70v-251h-180v258q-123 24 -218.5 98.5t-148.5 186t-53 243.5t53 243.5t148.5 186t218.5 98.5v279h180v-272q114 -13 207.5 -69.5t155.5 -145.5l-146 -108q-46 68 -119.5 106t-165.5 38q-101 0 -180 -45.5t-123.5 -127
t-44.5 -183.5t44.5 -183.5t123.5 -127t180 -45.5q92 0 165.5 38t119.5 106z" />
    <glyph glyph-name="sterling" unicode="&#xa3;" horiz-adv-x="1260" 
d="M135 190h160v467h-160v183h160v215q0 132 54 237.5t154 165.5t232 60q120 0 215.5 -53t152 -144.5t62.5 -204.5h-188q-14 97 -78 154t-164 57q-86 0 -142 -38.5t-82 -102.5t-26 -142v-204h418v-183h-418v-467h684v-190h-1034v190z" />
    <glyph glyph-name="currency" unicode="&#xa4;" horiz-adv-x="1253" 
d="M972 474l161 -159l-115 -116l-160 160q-102 -66 -231 -66t-231 66l-160 -160l-115 116l160 159q-33 50 -50.5 110t-17.5 125q0 133 68 235l-160 160l115 115l159 -160q101 67 232 67q128 0 232 -67l159 160l115 -115l-161 -160q68 -102 68 -235q0 -65 -17.5 -125
t-50.5 -110zM881 709q0 75 -32.5 134t-90.5 92.5t-131 33.5q-74 0 -132 -33.5t-90 -92.5t-32 -134q0 -74 32 -133.5t90 -93t132 -33.5q73 0 131 33.5t90.5 93t32.5 133.5z" />
    <glyph glyph-name="yen" unicode="&#xa5;" horiz-adv-x="1313" 
d="M951 975h216v-160h-303l-104 -192h407v-160h-413v-463h-193v463h-414v160h407l-104 192h-303v160h216l-283 520h213l366 -672l365 672h209z" />
    <glyph glyph-name="brokenbar" unicode="&#xa6;" horiz-adv-x="662" 
d="M420 1602v-766h-178v766h178zM420 410v-766h-178v766h178z" />
    <glyph glyph-name="section" unicode="&#xa7;" horiz-adv-x="1200" 
d="M973 127q0 -94 -48 -169.5t-133.5 -118t-195.5 -42.5t-197 41.5t-136.5 116t-49.5 170.5h178q0 -48 25.5 -84.5t72.5 -57t109 -20.5q60 0 105.5 20t70.5 56t25 82q0 48 -28.5 79t-86.5 42q-9 2 -27 3.5t-31 3.5q-56 5 -100 11.5t-86 18.5q-133 37 -208.5 138t-75.5 238
q0 109 49.5 195t138.5 134q-53 37 -79.5 92t-26.5 124q0 90 46 162.5t129.5 114t190.5 41.5q106 0 189 -41t130 -113.5t48 -163.5h-178q0 69 -52.5 110.5t-138.5 41.5q-55 0 -98 -19.5t-66.5 -53.5t-23.5 -77q0 -48 31 -77.5t90 -39.5q16 -3 81 -12q34 -4 71.5 -10t68.5 -14
q142 -34 221.5 -136t79.5 -247q0 -107 -48.5 -192.5t-133.5 -135.5q98 -73 98 -211zM887 659q0 75 -37.5 132.5t-103 88.5t-146.5 31q-80 0 -143 -30.5t-98 -87t-35 -129.5q0 -75 37.5 -132.5t102.5 -88.5t146 -31q80 0 143 30.5t98.5 87t35.5 129.5z" />
    <glyph glyph-name="dieresis" unicode="&#xa8;" horiz-adv-x="1303" 
d="M455 1444q54 0 89.5 -36t35.5 -89t-35.5 -89t-89.5 -36q-55 0 -90 36t-35 89t35 89t90 36zM848 1444q55 0 90 -36t35 -89t-35 -89t-90 -36t-90 36t-35 89t35 89t90 36z" />
    <glyph glyph-name="copyright" unicode="&#xa9;" horiz-adv-x="1700" 
d="M850 1503q216 0 387.5 -97t268 -269.5t96.5 -388.5q0 -217 -96.5 -389t-268 -269.5t-387.5 -97.5t-387.5 97.5t-268 269.5t-96.5 389q0 216 96.5 388.5t268 269.5t387.5 97zM850 147q171 0 305.5 77.5t210.5 214.5t76 309q0 171 -76 308t-211 214.5t-305 77.5t-305 -77.5
t-211 -214.5t-76 -308q0 -172 76 -309t210.5 -214.5t305.5 -77.5zM860 1165q108 0 196 -46t142 -128l-129 -93q-33 51 -87 79.5t-122 28.5q-72 0 -129.5 -33.5t-90 -92t-32.5 -132.5t32.5 -133.5t90 -93.5t129.5 -34q68 0 122 29t88 80l128 -93q-54 -82 -142 -128.5
t-196 -46.5q-119 0 -213.5 55t-147.5 151t-53 214q0 117 53 212.5t147.5 150t213.5 54.5z" />
    <glyph glyph-name="ordfeminine" unicode="&#xaa;" horiz-adv-x="797" 
d="M676 1260v-457h-141v57q-72 -72 -189 -72q-71 0 -126 27t-85.5 75t-30.5 109q0 94 65 148t177 65l189 19v29q0 52 -39.5 87t-98.5 35q-54 0 -91.5 -28t-44.5 -74h-141q5 68 41.5 122t98 85t137.5 31q81 0 144.5 -33.5t99 -92t35.5 -132.5zM535 1049v67l-166 -14
q-58 -6 -88.5 -32t-30.5 -66q0 -41 31.5 -68t89.5 -27q48 0 85.5 18.5t58 50.5t20.5 71z" />
    <glyph glyph-name="guillemotleft" unicode="&#xab;" horiz-adv-x="1100" 
d="M399 934h199l-285 -387l285 -387h-199l-282 387zM766 934h199l-285 -387l285 -387h-199l-282 387z" />
    <glyph glyph-name="logicalnot" unicode="&#xac;" horiz-adv-x="1251" 
d="M141 618v173h969v-570h-174v397h-795z" />
    <glyph glyph-name="uni00AD" unicode="&#xad;" horiz-adv-x="705" 
d="M594 674v-185h-483v185h483z" />
    <glyph glyph-name="registered" unicode="&#xae;" horiz-adv-x="926" 
d="M846 1139q0 -104 -50 -192t-138 -139.5t-195 -51.5t-195 51.5t-138 139.5t-50 192q0 103 50 190.5t138 139t195 51.5t195 -51.5t138 -139t50 -190.5zM758 1139q0 82 -38.5 150t-106 107.5t-150.5 39.5t-150.5 -39.5t-106 -107.5t-38.5 -150t38.5 -150t106 -107.5
t150.5 -39.5t150.5 39.5t106 107.5t38.5 150zM562 1078l71 -124h-94l-60 105h-67v-105h-86v379h159q62 0 103 -39.5t41 -99.5q0 -38 -18 -68.5t-49 -47.5zM412 1137h73q25 0 40.5 16.5t15.5 40.5q0 25 -15 40t-41 15h-73v-112z" />
    <glyph glyph-name="macron" unicode="&#xaf;" horiz-adv-x="1303" 
d="M940 1393v-150h-578v150h578z" />
    <glyph glyph-name="degree" unicode="&#xb0;" horiz-adv-x="758" 
d="M379 1518q84 0 151 -38.5t104.5 -105.5t37.5 -147t-37.5 -147t-104.5 -105.5t-151 -38.5t-151 38.5t-104.5 105.5t-37.5 147t37.5 147t104.5 105.5t151 38.5zM379 1067q47 0 84 21.5t57.5 58t20.5 80.5q0 45 -20.5 81t-57.5 57t-84 21t-84 -21t-57.5 -57t-20.5 -81
q0 -44 20.5 -80.5t57.5 -58t84 -21.5z" />
    <glyph glyph-name="plusminus" unicode="&#xb1;" horiz-adv-x="1251" 
d="M188 803v172h353v334h172v-334h350v-172h-350v-332h-172v332h-353zM1063 293v-172h-875v172h875z" />
    <glyph glyph-name="two.sups" unicode="&#xb2;" horiz-adv-x="803" 
d="M688 954v-149h-567v135l319 315q43 45 62.5 79t19.5 75q0 57 -34.5 91t-90.5 34q-55 0 -90.5 -31t-36.5 -82h-153q0 76 35 136t99 94.5t146 34.5q83 0 146 -34t98 -95t35 -138q0 -75 -33.5 -136.5t-101.5 -127.5l-204 -201h351z" />
    <glyph glyph-name="three.sups" unicode="&#xb3;" horiz-adv-x="805" 
d="M686 1053q0 -74 -36.5 -133.5t-102 -93t-148.5 -33.5q-84 0 -150 33.5t-102 92t-36 132.5h155q3 -49 40 -80t93 -31q59 0 95 33t36 86q0 55 -35 88t-94 33h-86v135h84q54 0 87.5 31.5t33.5 80.5t-33 79t-86 30q-52 0 -83.5 -27t-34.5 -73h-156q1 71 36 128t97 89.5
t141 32.5q80 0 142.5 -33t96.5 -90.5t34 -128.5q0 -55 -23 -102.5t-65 -79.5q48 -33 74 -84.5t26 -114.5z" />
    <glyph glyph-name="acute" unicode="&#xb4;" horiz-adv-x="1303" 
d="M689 1159h-127l112 318h238z" />
    <glyph glyph-name="uni00B5" unicode="&#xb5;" horiz-adv-x="1178" 
d="M1024 1032v-1032h-182v96q-53 -57 -126.5 -88t-160.5 -31q-121 0 -218 58l17 -469h-200v1466h184v-629q0 -69 30.5 -124.5t87 -88t130.5 -32.5q75 0 132.5 33.5t89.5 91t32 127.5v622h184z" />
    <glyph glyph-name="paragraph" unicode="&#xb6;" horiz-adv-x="1237" 
d="M770 1323h-164v-745q-152 0 -257.5 55t-159.5 156.5t-54 240.5q0 152 59 256.5t165 156.5t247 52h514v-172h-172v-1612h-178v1612z" />
    <glyph glyph-name="periodcentered" unicode="&#xb7;" horiz-adv-x="537" 
d="M268 735q59 0 96 -37.5t37 -95.5t-37 -95.5t-96 -37.5q-58 0 -95.5 38t-37.5 95t37.5 95t95.5 38z" />
    <glyph glyph-name="cedilla" unicode="&#xb8;" horiz-adv-x="1300" 
d="M791 -240q0 -48 -23.5 -87t-65.5 -62t-94 -23h-151v119h141q27 0 44 15t17 38q0 25 -17 40.5t-46 15.5h-109l74 254h119l-39 -144q67 -10 108.5 -56t41.5 -110z" />
    <glyph glyph-name="one.sups" unicode="&#xb9;" horiz-adv-x="801" 
d="M356 1509l-225 -135v162l225 135h154v-866h-154v704z" />
    <glyph glyph-name="ordmasculine" unicode="&#xba;" horiz-adv-x="889" 
d="M444 1518q103 0 186 -48.5t130 -132t47 -184.5t-47 -184.5t-130 -132t-186 -48.5q-102 0 -185 48.5t-130 132t-47 184.5t47 184.5t130 132t185 48.5zM444 930q64 0 114 29t78 79.5t28 114.5t-28 114.5t-78 79.5t-114 29q-63 0 -113 -29t-78 -79.5t-28 -114.5t28 -114.5
t78 -79.5t113 -29z" />
    <glyph glyph-name="guillemotright" unicode="&#xbb;" horiz-adv-x="1100" 
d="M334 162h-199l285 387l-285 387h199l282 -387zM701 162h-199l285 387l-285 387h199l282 -387z" />
    <glyph glyph-name="onequarter" unicode="&#xbc;" horiz-adv-x="2042" 
d="M436 629v704l-225 -135v162l225 135h154v-866h-154zM1524 1495l-835 -1495h-177l836 1495h176zM1829 379v-142h-135v-237h-151v237h-373v115l358 516h166v-489h135zM1543 379v295l-205 -295h205z" />
    <glyph glyph-name="onehalf" unicode="&#xbd;" horiz-adv-x="2099" 
d="M436 629v704l-225 -135v162l225 135h154v-866h-154zM1524 1495l-835 -1495h-177l836 1495h176zM1870 149v-149h-567v135l319 315q39 40 60.5 75t21.5 79q0 57 -34.5 91t-90.5 34q-55 0 -90 -31t-37 -82h-153q0 57 20 105.5t57 84t88.5 55.5t114.5 20t114.5 -20t88 -55
t56.5 -84.5t20 -107.5q0 -40 -9.5 -74.5t-26.5 -66.5t-42.5 -62t-56.5 -61l-204 -201h351z" />
    <glyph glyph-name="threequarters" unicode="&#xbe;" horiz-adv-x="2126" 
d="M768 877q0 -56 -21 -104t-59.5 -82.5t-91 -54t-115.5 -19.5q-65 0 -118 19.5t-90.5 54t-58.5 81.5t-21 103h155q3 -50 39.5 -80.5t93.5 -30.5q60 0 95.5 33t35.5 86q0 56 -35 88.5t-94 32.5h-86v135h84q54 0 87.5 31.5t33.5 80.5q0 50 -33 79.5t-86 29.5q-52 0 -83.5 -27
t-34.5 -73h-156q1 54 21 99.5t56 79t86.5 52.5t110.5 19q61 0 111.5 -19.5t86.5 -53t55.5 -79.5t19.5 -100q0 -56 -23 -103t-65 -79q48 -33 74 -84.5t26 -114.5zM1614 1495l-835 -1495h-177l836 1495h176zM1913 379v-142h-135v-237h-151v237h-373v115l358 516h166v-489h135z
M1627 379v295l-205 -295h205z" />
    <glyph glyph-name="questiondown" unicode="&#xbf;" horiz-adv-x="977" 
d="M523 885q-59 0 -96 37.5t-37 95.5t37 95.5t96 37.5q58 0 95.5 -38t37.5 -95t-37.5 -95t-95.5 -38zM606 693v-54q0 -87 -16 -144t-53 -105.5t-109 -112.5q-82 -72 -119 -127.5t-37 -126.5q0 -63 27.5 -112.5t76 -77t109.5 -27.5t109.5 28t76 78t27.5 113h189
q0 -114 -52.5 -206.5t-145 -145t-206.5 -52.5t-206 52t-143.5 142.5t-51.5 201.5q0 82 25.5 146t70.5 117.5t121 119.5q56 49 83.5 82t39.5 69t12 88v54h172z" />
    <glyph glyph-name="Agrave" unicode="&#xc0;" horiz-adv-x="1294" 
d="M958 279h-627l-95 -279h-197l512 1495h197l507 -1495h-202zM895 465l-249 737l-251 -737h500zM629 1907l112 -318h-127l-223 318h238z" />
    <glyph glyph-name="Aacute" unicode="&#xc1;" horiz-adv-x="1294" 
d="M958 279h-627l-95 -279h-197l512 1495h197l507 -1495h-202zM895 465l-249 737l-251 -737h500zM685 1589h-127l112 318h238z" />
    <glyph glyph-name="Acircumflex" unicode="&#xc2;" horiz-adv-x="1294" 
d="M958 279h-627l-95 -279h-197l512 1495h197l507 -1495h-202zM895 465l-249 737l-251 -737h500zM723 1907l213 -318h-127l-162 156l-162 -156h-124l210 318h152z" />
    <glyph glyph-name="Atilde" unicode="&#xc3;" horiz-adv-x="1294" 
d="M958 279h-627l-95 -279h-197l512 1495h197l507 -1495h-202zM895 465l-249 737l-251 -737h500zM797 1620q-46 0 -82.5 15t-85.5 44q-37 23 -64.5 35t-56.5 12q-39 0 -59.5 -24.5t-26.5 -77.5h-132q6 140 65.5 198t142.5 58q46 0 83 -15.5t84 -44.5q42 -25 67.5 -36
t54.5 -11q39 0 59.5 25t26.5 78h132q-6 -140 -65.5 -198t-142.5 -58z" />
    <glyph glyph-name="Adieresis" unicode="&#xc4;" horiz-adv-x="1294" 
d="M958 279h-627l-95 -279h-197l512 1495h197l507 -1495h-202zM895 465l-249 737l-251 -737h500zM451 1874q54 0 89.5 -36t35.5 -89t-35.5 -89t-89.5 -36q-55 0 -90 36t-35 89t35 89t90 36zM844 1874q55 0 90 -36t35 -89t-35 -89t-90 -36t-90 36t-35 89t35 89t90 36z" />
    <glyph glyph-name="Aring" unicode="&#xc5;" horiz-adv-x="1294" 
d="M958 279h-627l-95 -279h-197l483 1411q-52 31 -82 85t-30 120q0 65 30.5 119t84.5 85t122 31q69 0 123 -31t84.5 -85t30.5 -119q0 -64 -29 -117.5t-80 -85.5l479 -1413h-202zM531 1616q0 -51 32 -86t84 -35q53 0 85 35t32 86q0 49 -32.5 84t-84.5 35t-84 -35t-32 -84z
M895 465l-249 737l-251 -737h500z" />
    <glyph glyph-name="AE" unicode="&#xc6;" horiz-adv-x="1989" 
d="M1063 1305v-459h467v-191h-467v-465h809v-190h-1004v279h-507l-148 -279h-203l795 1495h1067v-190h-809zM868 465v770l-408 -770h408z" />
    <glyph glyph-name="Ccedilla" unicode="&#xc7;" horiz-adv-x="1542" 
d="M1311 408l156 -119q-99 -147 -257 -229.5t-352 -82.5h-10l-14 -51q67 -10 108.5 -56t41.5 -110q0 -48 -23.5 -87t-65.5 -62t-94 -23h-151v119h141q27 0 44 15t17 38q0 25 -17 40.5t-46 15.5h-109l50 171q-184 28 -327.5 133t-223 267.5t-79.5 357.5q0 219 97.5 395.5
t270.5 277t390 100.5q194 0 352 -82t257 -228l-156 -119q-72 112 -189.5 175t-263.5 63q-163 0 -291.5 -75.5t-200 -208t-71.5 -298.5q0 -162 71.5 -294t200 -207.5t291.5 -75.5q146 0 263.5 63.5t189.5 176.5z" />
    <glyph glyph-name="Egrave" unicode="&#xc8;" horiz-adv-x="1405" 
d="M166 1495h1122v-190h-928v-459h533v-191h-533v-465h928v-190h-1122v1495zM715 1907l112 -318h-127l-223 318h238z" />
    <glyph glyph-name="Eacute" unicode="&#xc9;" horiz-adv-x="1405" 
d="M166 1495h1122v-190h-928v-459h533v-191h-533v-465h928v-190h-1122v1495zM771 1589h-127l112 318h238z" />
    <glyph glyph-name="Ecircumflex" unicode="&#xca;" horiz-adv-x="1405" 
d="M166 1495h1122v-190h-928v-459h533v-191h-533v-465h928v-190h-1122v1495zM809 1907l213 -318h-127l-162 156l-162 -156h-124l210 318h152z" />
    <glyph glyph-name="Edieresis" unicode="&#xcb;" horiz-adv-x="1405" 
d="M166 1495h1122v-190h-928v-459h533v-191h-533v-465h928v-190h-1122v1495zM537 1874q54 0 89.5 -36t35.5 -89t-35.5 -89t-89.5 -36q-55 0 -90 36t-35 89t35 89t90 36zM930 1874q55 0 90 -36t35 -89t-35 -89t-90 -36t-90 36t-35 89t35 89t90 36z" />
    <glyph glyph-name="Igrave" unicode="&#xcc;" horiz-adv-x="526" 
d="M166 1495h194v-1495h-194v1495zM246 1907l112 -318h-127l-223 318h238z" />
    <glyph glyph-name="Iacute" unicode="&#xcd;" horiz-adv-x="526" 
d="M166 1495h194v-1495h-194v1495zM302 1589h-127l112 318h238z" />
    <glyph glyph-name="Icircumflex" unicode="&#xce;" horiz-adv-x="526" 
d="M166 1495h194v-1495h-194v1495zM340 1907l213 -318h-127l-162 156l-162 -156h-124l210 318h152z" />
    <glyph glyph-name="Idieresis" unicode="&#xcf;" horiz-adv-x="526" 
d="M166 1495h194v-1495h-194v1495zM68 1874q54 0 89.5 -36t35.5 -89t-35.5 -89t-89.5 -36q-55 0 -90 36t-35 89t35 89t90 36zM461 1874q55 0 90 -36t35 -89t-35 -89t-90 -36t-90 36t-35 89t35 89t90 36z" />
    <glyph glyph-name="Eth" unicode="&#xd0;" horiz-adv-x="1477" 
d="M1376 748q0 -210 -96.5 -381t-267 -269t-383.5 -98h-463v664h-154v176h154v655h463q213 0 383.5 -98t267 -269t96.5 -380zM1182 748q0 157 -72 284t-199 200t-286 73h-265v-465h361v-176h-361v-474h265q159 0 286 73t199 200.5t72 284.5z" />
    <glyph glyph-name="Ntilde" unicode="&#xd1;" horiz-adv-x="1487" 
d="M1321 1495v-1495h-195l-766 1159v-1159h-194v1495h194l766 -1159v1159h195zM893 1620q-46 0 -82.5 15t-85.5 44q-37 23 -64.5 35t-56.5 12q-39 0 -59.5 -24.5t-26.5 -77.5h-132q6 140 65.5 198t142.5 58q46 0 83 -15.5t84 -44.5q42 -25 67.5 -36t54.5 -11q39 0 59.5 25
t26.5 78h132q-6 -140 -65.5 -198t-142.5 -58z" />
    <glyph glyph-name="Ograve" unicode="&#xd2;" horiz-adv-x="1733" 
d="M866 1518q220 0 395 -99.5t273 -275t98 -395.5q0 -221 -98 -396.5t-273 -275t-395 -99.5t-394.5 99.5t-273 275t-98.5 396.5q0 220 98.5 395.5t273 275t394.5 99.5zM866 168q165 0 295.5 75t203.5 207.5t73 297.5t-73 297t-203.5 207t-295.5 75t-295.5 -75t-203 -207
t-72.5 -297t72.5 -297.5t203 -207.5t295.5 -75zM848 1907l112 -318h-127l-223 318h238z" />
    <glyph glyph-name="Oacute" unicode="&#xd3;" horiz-adv-x="1733" 
d="M866 1518q220 0 395 -99.5t273 -275t98 -395.5q0 -221 -98 -396.5t-273 -275t-395 -99.5t-394.5 99.5t-273 275t-98.5 396.5q0 220 98.5 395.5t273 275t394.5 99.5zM866 168q165 0 295.5 75t203.5 207.5t73 297.5t-73 297t-203.5 207t-295.5 75t-295.5 -75t-203 -207
t-72.5 -297t72.5 -297.5t203 -207.5t295.5 -75zM904 1589h-127l112 318h238z" />
    <glyph glyph-name="Ocircumflex" unicode="&#xd4;" horiz-adv-x="1733" 
d="M866 1518q220 0 395 -99.5t273 -275t98 -395.5q0 -221 -98 -396.5t-273 -275t-395 -99.5t-394.5 99.5t-273 275t-98.5 396.5q0 220 98.5 395.5t273 275t394.5 99.5zM866 168q165 0 295.5 75t203.5 207.5t73 297.5t-73 297t-203.5 207t-295.5 75t-295.5 -75t-203 -207
t-72.5 -297t72.5 -297.5t203 -207.5t295.5 -75zM942 1907l213 -318h-127l-162 156l-162 -156h-124l210 318h152z" />
    <glyph glyph-name="Otilde" unicode="&#xd5;" horiz-adv-x="1733" 
d="M866 1518q220 0 395 -99.5t273 -275t98 -395.5q0 -221 -98 -396.5t-273 -275t-395 -99.5t-394.5 99.5t-273 275t-98.5 396.5q0 220 98.5 395.5t273 275t394.5 99.5zM866 168q165 0 295.5 75t203.5 207.5t73 297.5t-73 297t-203.5 207t-295.5 75t-295.5 -75t-203 -207
t-72.5 -297t72.5 -297.5t203 -207.5t295.5 -75zM1016 1620q-46 0 -82.5 15t-85.5 44q-37 23 -64.5 35t-56.5 12q-39 0 -59.5 -24.5t-26.5 -77.5h-132q6 140 65.5 198t142.5 58q46 0 83 -15.5t84 -44.5q42 -25 67.5 -36t54.5 -11q39 0 59.5 25t26.5 78h132
q-6 -140 -65.5 -198t-142.5 -58z" />
    <glyph glyph-name="Odieresis" unicode="&#xd6;" horiz-adv-x="1733" 
d="M866 1518q220 0 395 -99.5t273 -275t98 -395.5q0 -221 -98 -396.5t-273 -275t-395 -99.5t-394.5 99.5t-273 275t-98.5 396.5q0 220 98.5 395.5t273 275t394.5 99.5zM866 168q165 0 295.5 75t203.5 207.5t73 297.5t-73 297t-203.5 207t-295.5 75t-295.5 -75t-203 -207
t-72.5 -297t72.5 -297.5t203 -207.5t295.5 -75zM670 1874q54 0 89.5 -36t35.5 -89t-35.5 -89t-89.5 -36q-55 0 -90 36t-35 89t35 89t90 36zM1063 1874q55 0 90 -36t35 -89t-35 -89t-90 -36t-90 36t-35 89t35 89t90 36z" />
    <glyph glyph-name="multiply" unicode="&#xd7;" horiz-adv-x="1249" 
d="M197 1010l122 123l306 -306l305 306l123 -123l-305 -305l305 -306l-123 -123l-305 306l-306 -306l-122 123l305 306z" />
    <glyph glyph-name="Oslash" unicode="&#xd8;" horiz-adv-x="1733" 
d="M1632 748q0 -221 -98 -396.5t-273 -275t-395 -99.5q-116 0 -221 28.5t-194 82.5l-154 -197l-123 97l153 196q-109 104 -168 249t-59 315q0 220 98.5 395.5t273 275t394.5 99.5q116 0 221 -28.5t194 -82.5l153 197l122 -97l-152 -195q109 -104 168.5 -249t59.5 -315z
M448 339l712 914q-132 74 -294 74q-165 0 -295.5 -75t-203 -207t-72.5 -297q0 -121 39.5 -226t113.5 -183zM1438 748q0 121 -40.5 226t-114.5 183l-712 -914q131 -75 295 -75q165 0 295.5 75t203.5 207.5t73 297.5z" />
    <glyph glyph-name="Ugrave" unicode="&#xd9;" horiz-adv-x="1448" 
d="M1292 539q0 -158 -73.5 -286.5t-202.5 -202t-289 -73.5q-164 0 -294.5 74t-203.5 202t-73 286v956h194v-950q0 -104 48.5 -190.5t134.5 -136.5t192 -50t192 50t134.5 136.5t48.5 190.5v950h192v-956zM707 1907l112 -318h-127l-223 318h238z" />
    <glyph glyph-name="Uacute" unicode="&#xda;" horiz-adv-x="1448" 
d="M1292 539q0 -158 -73.5 -286.5t-202.5 -202t-289 -73.5q-164 0 -294.5 74t-203.5 202t-73 286v956h194v-950q0 -104 48.5 -190.5t134.5 -136.5t192 -50t192 50t134.5 136.5t48.5 190.5v950h192v-956zM763 1589h-127l112 318h238z" />
    <glyph glyph-name="Ucircumflex" unicode="&#xdb;" horiz-adv-x="1448" 
d="M1292 539q0 -158 -73.5 -286.5t-202.5 -202t-289 -73.5q-164 0 -294.5 74t-203.5 202t-73 286v956h194v-950q0 -104 48.5 -190.5t134.5 -136.5t192 -50t192 50t134.5 136.5t48.5 190.5v950h192v-956zM801 1907l213 -318h-127l-162 156l-162 -156h-124l210 318h152z" />
    <glyph glyph-name="Udieresis" unicode="&#xdc;" horiz-adv-x="1448" 
d="M1292 539q0 -158 -73.5 -286.5t-202.5 -202t-289 -73.5q-164 0 -294.5 74t-203.5 202t-73 286v956h194v-950q0 -104 48.5 -190.5t134.5 -136.5t192 -50t192 50t134.5 136.5t48.5 190.5v950h192v-956zM529 1874q54 0 89.5 -36t35.5 -89t-35.5 -89t-89.5 -36q-55 0 -90 36
t-35 89t35 89t90 36zM922 1874q55 0 90 -36t35 -89t-35 -89t-90 -36t-90 36t-35 89t35 89t90 36z" />
    <glyph glyph-name="Yacute" unicode="&#xdd;" horiz-adv-x="1307" 
d="M557 512l-530 983h215l413 -768l416 768h209l-528 -981v-514h-195v512zM691 1589h-127l112 318h238z" />
    <glyph glyph-name="Thorn" unicode="&#xde;" horiz-adv-x="1368" 
d="M1282 752q0 -147 -66 -263t-185 -181.5t-271 -65.5h-400v-242h-194v1495h194v-233h400q152 0 271 -65.5t185 -181.5t66 -263zM1087 752q0 92 -41 165t-114.5 114.5t-167.5 41.5h-404v-643h404q94 0 167.5 41.5t114.5 114.5t41 166z" />
    <glyph glyph-name="germandbls" unicode="&#xdf;" horiz-adv-x="1243" 
d="M1163 457q0 -125 -60 -230t-165.5 -166t-237.5 -61h-196v176h198q80 0 143 36.5t98.5 100.5t35.5 142q0 79 -35.5 143t-98.5 100.5t-143 36.5h-188v174h125q70 0 125 32.5t86 89t31 124.5q0 73 -32 129t-92.5 87.5t-142.5 31.5q-128 0 -202 -71.5t-74 -196.5v-1135h-184
v1161q0 125 58.5 221t162.5 148.5t237 52.5q131 0 234 -52.5t161 -147.5t58 -216q0 -101 -42.5 -183t-119.5 -132q120 -49 190 -154.5t70 -240.5z" />
    <glyph glyph-name="agrave" unicode="&#xe0;" horiz-adv-x="1069" 
d="M922 678v-678h-181v97q-52 -58 -126 -89t-169 -31q-105 0 -185 40t-123.5 111.5t-43.5 164.5q0 139 94 219.5t263 97.5l290 28v36q0 56 -29.5 102t-81 72t-114.5 26q-84 0 -144 -45.5t-73 -117.5h-180q8 99 60.5 177t140 122.5t196.5 44.5q118 0 210.5 -49t144 -134.5
t51.5 -193.5zM741 365v121l-268 -27q-98 -11 -146 -53t-48 -111q0 -44 23 -79.5t66.5 -56t104.5 -20.5q79 0 140 30.5t94.5 82t33.5 113.5zM498 1477l112 -318h-127l-223 318h238z" />
    <glyph glyph-name="aacute" unicode="&#xe1;" horiz-adv-x="1069" 
d="M922 678v-678h-181v97q-52 -58 -126 -89t-169 -31q-105 0 -185 40t-123.5 111.5t-43.5 164.5q0 139 94 219.5t263 97.5l290 28v36q0 56 -29.5 102t-81 72t-114.5 26q-84 0 -144 -45.5t-73 -117.5h-180q8 99 60.5 177t140 122.5t196.5 44.5q118 0 210.5 -49t144 -134.5
t51.5 -193.5zM741 365v121l-268 -27q-98 -11 -146 -53t-48 -111q0 -44 23 -79.5t66.5 -56t104.5 -20.5q79 0 140 30.5t94.5 82t33.5 113.5zM554 1159h-127l112 318h238z" />
    <glyph glyph-name="acircumflex" unicode="&#xe2;" horiz-adv-x="1069" 
d="M922 678v-678h-181v97q-52 -58 -126 -89t-169 -31q-105 0 -185 40t-123.5 111.5t-43.5 164.5q0 139 94 219.5t263 97.5l290 28v36q0 56 -29.5 102t-81 72t-114.5 26q-84 0 -144 -45.5t-73 -117.5h-180q8 99 60.5 177t140 122.5t196.5 44.5q118 0 210.5 -49t144 -134.5
t51.5 -193.5zM741 365v121l-268 -27q-98 -11 -146 -53t-48 -111q0 -44 23 -79.5t66.5 -56t104.5 -20.5q79 0 140 30.5t94.5 82t33.5 113.5zM592 1477l213 -318h-127l-162 156l-162 -156h-124l210 318h152z" />
    <glyph glyph-name="atilde" unicode="&#xe3;" horiz-adv-x="1069" 
d="M922 678v-678h-181v97q-52 -58 -126 -89t-169 -31q-105 0 -185 40t-123.5 111.5t-43.5 164.5q0 139 94 219.5t263 97.5l290 28v36q0 56 -29.5 102t-81 72t-114.5 26q-84 0 -144 -45.5t-73 -117.5h-180q8 99 60.5 177t140 122.5t196.5 44.5q118 0 210.5 -49t144 -134.5
t51.5 -193.5zM741 365v121l-268 -27q-98 -11 -146 -53t-48 -111q0 -44 23 -79.5t66.5 -56t104.5 -20.5q79 0 140 30.5t94.5 82t33.5 113.5zM666 1190q-46 0 -82.5 15t-85.5 44q-37 23 -64.5 35t-56.5 12q-39 0 -59.5 -24.5t-26.5 -77.5h-132q6 140 65.5 198t142.5 58
q46 0 83 -15.5t84 -44.5q42 -25 67.5 -36t54.5 -11q39 0 59.5 25t26.5 78h132q-6 -140 -65.5 -198t-142.5 -58z" />
    <glyph glyph-name="adieresis" unicode="&#xe4;" horiz-adv-x="1069" 
d="M922 678v-678h-181v97q-52 -58 -126 -89t-169 -31q-105 0 -185 40t-123.5 111.5t-43.5 164.5q0 139 94 219.5t263 97.5l290 28v36q0 56 -29.5 102t-81 72t-114.5 26q-84 0 -144 -45.5t-73 -117.5h-180q8 99 60.5 177t140 122.5t196.5 44.5q118 0 210.5 -49t144 -134.5
t51.5 -193.5zM741 365v121l-268 -27q-98 -11 -146 -53t-48 -111q0 -44 23 -79.5t66.5 -56t104.5 -20.5q79 0 140 30.5t94.5 82t33.5 113.5zM320 1444q54 0 89.5 -36t35.5 -89t-35.5 -89t-89.5 -36q-55 0 -90 36t-35 89t35 89t90 36zM713 1444q55 0 90 -36t35 -89t-35 -89
t-90 -36t-90 36t-35 89t35 89t90 36z" />
    <glyph glyph-name="aring" unicode="&#xe5;" horiz-adv-x="1069" 
d="M922 678v-678h-181v97q-52 -58 -126 -89t-169 -31q-105 0 -185 40t-123.5 111.5t-43.5 164.5q0 139 94 219.5t263 97.5l290 28v36q0 56 -29.5 102t-81 72t-114.5 26q-84 0 -144 -45.5t-73 -117.5h-180q8 99 60.5 177t140 122.5t196.5 44.5q118 0 210.5 -49t144 -134.5
t51.5 -193.5zM741 365v121l-268 -27q-98 -11 -146 -53t-48 -111q0 -44 23 -79.5t66.5 -56t104.5 -20.5q79 0 140 30.5t94.5 82t33.5 113.5zM516 1595q69 0 123 -31t84.5 -85t30.5 -119q0 -66 -30.5 -120.5t-84.5 -86t-123 -31.5q-68 0 -122 31.5t-84.5 86t-30.5 120.5
q0 65 30.5 119t84.5 85t122 31zM516 1239q53 0 85 35t32 86q0 49 -32.5 84t-84.5 35t-84 -35t-32 -84q0 -51 32 -86t84 -35z" />
    <glyph glyph-name="ae" unicode="&#xe6;" horiz-adv-x="1806" 
d="M1716 432h-804q14 -80 59 -142.5t114 -97t154 -34.5q90 0 164 40.5t121 111.5l150 -98q-70 -109 -184 -172t-253 -63q-124 0 -228 51t-174 142q-53 -90 -149.5 -141.5t-224.5 -51.5q-112 0 -195 39.5t-127.5 110t-44.5 160.5q0 137 93.5 216.5t261.5 94.5l284 29v51
q0 56 -28.5 100.5t-79 70t-113.5 25.5q-85 0 -144.5 -45t-70.5 -118h-180q7 99 59 177t139.5 122.5t196.5 44.5q111 0 198.5 -44t140.5 -123q68 79 164 123t208 44q146 0 259.5 -70.5t176.5 -193.5t63 -275q0 -43 -6 -84zM910 596h625q-12 84 -54 147t-108.5 97t-149.5 34
q-128 0 -212 -75t-101 -203zM733 362v112l-260 -25q-97 -11 -145.5 -52t-48.5 -108q0 -42 22.5 -76t66 -54t103.5 -20q76 0 136 30t93 81t33 112z" />
    <glyph glyph-name="ccedilla" unicode="&#xe7;" horiz-adv-x="1108" 
d="M901 304l146 -107q-68 -98 -173.5 -156.5t-234.5 -63.5l-14 -51q67 -10 108.5 -56t41.5 -110q0 -48 -23.5 -87t-65.5 -62t-94 -23h-151v119h141q27 0 44 15t17 38q0 25 -17 40.5t-46 15.5h-109l49 169q-128 21 -227 95.5t-154 188t-55 247.5q0 151 68.5 274t190 194
t273.5 71q136 0 248 -58t183 -161l-146 -108q-46 68 -119.5 106t-165.5 38q-101 0 -180 -45.5t-123.5 -127t-44.5 -183.5t44.5 -183.5t123.5 -127t180 -45.5q92 0 165.5 38t119.5 106z" />
    <glyph glyph-name="egrave" unicode="&#xe8;" horiz-adv-x="1186" 
d="M1097 432h-820q15 -80 61.5 -142.5t117.5 -97t158 -34.5q92 0 166.5 40t121.5 111l151 -99q-71 -108 -185.5 -170.5t-253.5 -62.5q-153 0 -273.5 71t-188.5 194.5t-68 273.5t65.5 273.5t182 194.5t264.5 71t263 -70.5t179 -193.5t64 -275q0 -50 -5 -84zM275 596h640
q-12 84 -55.5 147t-111 97t-152.5 34q-87 0 -155 -34t-111 -96.5t-55 -147.5zM574 1477l112 -318h-127l-223 318h238z" />
    <glyph glyph-name="eacute" unicode="&#xe9;" horiz-adv-x="1186" 
d="M1097 432h-820q15 -80 61.5 -142.5t117.5 -97t158 -34.5q92 0 166.5 40t121.5 111l151 -99q-71 -108 -185.5 -170.5t-253.5 -62.5q-153 0 -273.5 71t-188.5 194.5t-68 273.5t65.5 273.5t182 194.5t264.5 71t263 -70.5t179 -193.5t64 -275q0 -50 -5 -84zM275 596h640
q-12 84 -55.5 147t-111 97t-152.5 34q-87 0 -155 -34t-111 -96.5t-55 -147.5zM630 1159h-127l112 318h238z" />
    <glyph glyph-name="ecircumflex" unicode="&#xea;" horiz-adv-x="1186" 
d="M1097 432h-820q15 -80 61.5 -142.5t117.5 -97t158 -34.5q92 0 166.5 40t121.5 111l151 -99q-71 -108 -185.5 -170.5t-253.5 -62.5q-153 0 -273.5 71t-188.5 194.5t-68 273.5t65.5 273.5t182 194.5t264.5 71t263 -70.5t179 -193.5t64 -275q0 -50 -5 -84zM275 596h640
q-12 84 -55.5 147t-111 97t-152.5 34q-87 0 -155 -34t-111 -96.5t-55 -147.5zM668 1477l213 -318h-127l-162 156l-162 -156h-124l210 318h152z" />
    <glyph glyph-name="edieresis" unicode="&#xeb;" horiz-adv-x="1186" 
d="M1097 432h-820q15 -80 61.5 -142.5t117.5 -97t158 -34.5q92 0 166.5 40t121.5 111l151 -99q-71 -108 -185.5 -170.5t-253.5 -62.5q-153 0 -273.5 71t-188.5 194.5t-68 273.5t65.5 273.5t182 194.5t264.5 71t263 -70.5t179 -193.5t64 -275q0 -50 -5 -84zM275 596h640
q-12 84 -55.5 147t-111 97t-152.5 34q-87 0 -155 -34t-111 -96.5t-55 -147.5zM396 1444q54 0 89.5 -36t35.5 -89t-35.5 -89t-89.5 -36q-55 0 -90 36t-35 89t35 89t90 36zM789 1444q55 0 90 -36t35 -89t-35 -89t-90 -36t-90 36t-35 89t35 89t90 36z" />
    <glyph glyph-name="igrave" unicode="&#xec;" 
d="M338 0h-184v1032h184v-1032zM228 1477l112 -318h-127l-223 318h238z" />
    <glyph glyph-name="iacute" unicode="&#xed;" 
d="M338 0h-184v1032h184v-1032zM284 1159h-127l112 318h238z" />
    <glyph glyph-name="icircumflex" unicode="&#xee;" 
d="M338 0h-184v1032h184v-1032zM322 1477l213 -318h-127l-162 156l-162 -156h-124l210 318h152z" />
    <glyph glyph-name="idieresis" unicode="&#xef;" 
d="M338 0h-184v1032h184v-1032zM50 1444q54 0 89.5 -36t35.5 -89t-35.5 -89t-89.5 -36q-55 0 -90 36t-35 89t35 89t90 36zM443 1444q55 0 90 -36t35 -89t-35 -89t-90 -36t-90 36t-35 89t35 89t90 36z" />
    <glyph glyph-name="eth" unicode="&#xf0;" horiz-adv-x="1208" 
d="M1116 512q0 -152 -67 -274.5t-185 -191.5t-266 -69q-147 0 -265.5 68.5t-185.5 187t-67 261.5t67 261.5t185 186.5t264 68q126 0 231 -58q-76 142 -190 256l-182 -149l-103 123l162 133q-89 68 -196 120l89 146q135 -62 248 -151l179 147l102 -123l-160 -132
q165 -169 252.5 -382t87.5 -428zM932 494q0 97 -43 173t-119 119t-172 43q-97 0 -173 -43t-118.5 -119.5t-42.5 -172.5t42.5 -172t118.5 -119t173 -43t173 43t118.5 119t42.5 172z" />
    <glyph glyph-name="ntilde" unicode="&#xf1;" horiz-adv-x="1184" 
d="M1036 641v-641h-184v614q0 73 -32 132.5t-90.5 93.5t-135.5 34q-75 0 -133.5 -34t-90.5 -93.5t-32 -132.5v-614h-184v1032h184v-91q53 54 127 84t160 30q118 0 211.5 -54t146.5 -148.5t53 -211.5zM736 1190q-46 0 -82.5 15t-85.5 44q-37 23 -64.5 35t-56.5 12
q-39 0 -59.5 -24.5t-26.5 -77.5h-132q6 140 65.5 198t142.5 58q46 0 83 -15.5t84 -44.5q42 -25 67.5 -36t54.5 -11q39 0 59.5 25t26.5 78h132q-6 -140 -65.5 -198t-142.5 -58z" />
    <glyph glyph-name="ograve" unicode="&#xf2;" horiz-adv-x="1241" 
d="M621 1055q153 0 275 -71.5t191.5 -195t69.5 -272.5t-69.5 -272.5t-191.5 -195t-275 -71.5t-275.5 71.5t-192 195t-69.5 272.5t69.5 272.5t192 195t275.5 71.5zM621 160q103 0 183 45.5t124.5 127t44.5 183.5t-44.5 183.5t-124.5 127t-183 45.5t-183.5 -45.5t-125 -126.5
t-44.5 -184t44.5 -184t125 -126.5t183.5 -45.5zM603 1477l112 -318h-127l-223 318h238z" />
    <glyph glyph-name="oacute" unicode="&#xf3;" horiz-adv-x="1241" 
d="M621 1055q153 0 275 -71.5t191.5 -195t69.5 -272.5t-69.5 -272.5t-191.5 -195t-275 -71.5t-275.5 71.5t-192 195t-69.5 272.5t69.5 272.5t192 195t275.5 71.5zM621 160q103 0 183 45.5t124.5 127t44.5 183.5t-44.5 183.5t-124.5 127t-183 45.5t-183.5 -45.5t-125 -126.5
t-44.5 -184t44.5 -184t125 -126.5t183.5 -45.5zM659 1159h-127l112 318h238z" />
    <glyph glyph-name="ocircumflex" unicode="&#xf4;" horiz-adv-x="1241" 
d="M621 1055q153 0 275 -71.5t191.5 -195t69.5 -272.5t-69.5 -272.5t-191.5 -195t-275 -71.5t-275.5 71.5t-192 195t-69.5 272.5t69.5 272.5t192 195t275.5 71.5zM621 160q103 0 183 45.5t124.5 127t44.5 183.5t-44.5 183.5t-124.5 127t-183 45.5t-183.5 -45.5t-125 -126.5
t-44.5 -184t44.5 -184t125 -126.5t183.5 -45.5zM697 1477l213 -318h-127l-162 156l-162 -156h-124l210 318h152z" />
    <glyph glyph-name="otilde" unicode="&#xf5;" horiz-adv-x="1241" 
d="M621 1055q153 0 275 -71.5t191.5 -195t69.5 -272.5t-69.5 -272.5t-191.5 -195t-275 -71.5t-275.5 71.5t-192 195t-69.5 272.5t69.5 272.5t192 195t275.5 71.5zM621 160q103 0 183 45.5t124.5 127t44.5 183.5t-44.5 183.5t-124.5 127t-183 45.5t-183.5 -45.5t-125 -126.5
t-44.5 -184t44.5 -184t125 -126.5t183.5 -45.5zM771 1190q-46 0 -82.5 15t-85.5 44q-37 23 -64.5 35t-56.5 12q-39 0 -59.5 -24.5t-26.5 -77.5h-132q6 140 65.5 198t142.5 58q46 0 83 -15.5t84 -44.5q42 -25 67.5 -36t54.5 -11q39 0 59.5 25t26.5 78h132q-6 -140 -65.5 -198
t-142.5 -58z" />
    <glyph glyph-name="odieresis" unicode="&#xf6;" horiz-adv-x="1241" 
d="M621 1055q153 0 275 -71.5t191.5 -195t69.5 -272.5t-69.5 -272.5t-191.5 -195t-275 -71.5t-275.5 71.5t-192 195t-69.5 272.5t69.5 272.5t192 195t275.5 71.5zM621 160q103 0 183 45.5t124.5 127t44.5 183.5t-44.5 183.5t-124.5 127t-183 45.5t-183.5 -45.5t-125 -126.5
t-44.5 -184t44.5 -184t125 -126.5t183.5 -45.5zM425 1444q54 0 89.5 -36t35.5 -89t-35.5 -89t-89.5 -36q-55 0 -90 36t-35 89t35 89t90 36zM818 1444q55 0 90 -36t35 -89t-35 -89t-90 -36t-90 36t-35 89t35 89t90 36z" />
    <glyph glyph-name="divide" unicode="&#xf7;" horiz-adv-x="1251" 
d="M627 1257q55 0 91 -36.5t36 -90.5q0 -53 -36 -89.5t-91 -36.5q-56 0 -91.5 36t-35.5 90q0 55 35.5 91t91.5 36zM162 791h928v-173h-928v173zM627 406q54 0 90.5 -36.5t36.5 -90.5t-36 -90.5t-91 -36.5q-56 0 -91.5 36t-35.5 91q0 54 35.5 90.5t91.5 36.5z" />
    <glyph glyph-name="oslash" unicode="&#xf8;" horiz-adv-x="1241" 
d="M1157 516q0 -149 -69.5 -272.5t-191.5 -195t-275 -71.5q-160 0 -286 78l-118 -149l-115 90l120 152q-66 73 -102 167.5t-36 200.5q0 149 69.5 272.5t192 195t275.5 71.5q143 0 262 -64l112 142l117 -93l-109 -139q74 -74 114 -173t40 -212zM337 295l431 549
q-68 28 -147 28q-103 0 -183.5 -45.5t-125 -126.5t-44.5 -184q0 -64 18 -120t51 -101zM973 516q0 71 -22 132.5t-62 108.5l-440 -557q77 -40 172 -40q103 0 183 45.5t124.5 127t44.5 183.5z" />
    <glyph glyph-name="ugrave" unicode="&#xf9;" horiz-adv-x="1180" 
d="M1026 1032v-1032h-184v94q-53 -56 -127 -86.5t-160 -30.5q-117 0 -210 53.5t-145.5 147t-52.5 207.5v647h185v-620q0 -71 31.5 -129t90 -91.5t134.5 -33.5q74 0 132 34t90 93t32 131v616h184zM570 1477l112 -318h-127l-223 318h238z" />
    <glyph glyph-name="uacute" unicode="&#xfa;" horiz-adv-x="1180" 
d="M1026 1032v-1032h-184v94q-53 -56 -127 -86.5t-160 -30.5q-117 0 -210 53.5t-145.5 147t-52.5 207.5v647h185v-620q0 -71 31.5 -129t90 -91.5t134.5 -33.5q74 0 132 34t90 93t32 131v616h184zM626 1159h-127l112 318h238z" />
    <glyph glyph-name="ucircumflex" unicode="&#xfb;" horiz-adv-x="1180" 
d="M1026 1032v-1032h-184v94q-53 -56 -127 -86.5t-160 -30.5q-117 0 -210 53.5t-145.5 147t-52.5 207.5v647h185v-620q0 -71 31.5 -129t90 -91.5t134.5 -33.5q74 0 132 34t90 93t32 131v616h184zM664 1477l213 -318h-127l-162 156l-162 -156h-124l210 318h152z" />
    <glyph glyph-name="udieresis" unicode="&#xfc;" horiz-adv-x="1180" 
d="M1026 1032v-1032h-184v94q-53 -56 -127 -86.5t-160 -30.5q-117 0 -210 53.5t-145.5 147t-52.5 207.5v647h185v-620q0 -71 31.5 -129t90 -91.5t134.5 -33.5q74 0 132 34t90 93t32 131v616h184zM392 1444q54 0 89.5 -36t35.5 -89t-35.5 -89t-89.5 -36q-55 0 -90 36t-35 89
t35 89t90 36zM785 1444q55 0 90 -36t35 -89t-35 -89t-90 -36t-90 36t-35 89t35 89t90 36z" />
    <glyph glyph-name="yacute" unicode="&#xfd;" horiz-adv-x="1051" 
d="M1018 1032l-569 -1466h-197l174 450l-393 1016h200l292 -761l294 761h199zM562 1159h-127l112 318h238z" />
    <glyph glyph-name="thorn" unicode="&#xfe;" horiz-adv-x="1288" 
d="M1204 516q0 -150 -66.5 -273.5t-184.5 -194.5t-267 -71q-103 0 -192.5 37t-155.5 104v-552h-184v1995h184v-649q65 68 154 105.5t194 37.5q149 0 267 -71t184.5 -194.5t66.5 -273.5zM1020 516q0 103 -44 184.5t-122.5 127.5t-179.5 46q-100 0 -178.5 -46t-122 -127.5
t-43.5 -184.5t43.5 -184.5t122 -127.5t178.5 -46q101 0 179.5 46t122.5 127.5t44 184.5z" />
    <glyph glyph-name="ydieresis" unicode="&#xff;" horiz-adv-x="1051" 
d="M1018 1032l-569 -1466h-197l174 450l-393 1016h200l292 -761l294 761h199zM328 1444q54 0 89.5 -36t35.5 -89t-35.5 -89t-89.5 -36q-55 0 -90 36t-35 89t35 89t90 36zM721 1444q55 0 90 -36t35 -89t-35 -89t-90 -36t-90 36t-35 89t35 89t90 36z" />
    <glyph glyph-name="Amacron" unicode="&#x100;" horiz-adv-x="1294" 
d="M958 279h-627l-95 -279h-197l512 1495h197l507 -1495h-202zM895 465l-249 737l-251 -737h500zM936 1823v-150h-578v150h578z" />
    <glyph glyph-name="amacron" unicode="&#x101;" horiz-adv-x="1069" 
d="M922 678v-678h-181v97q-52 -58 -126 -89t-169 -31q-105 0 -185 40t-123.5 111.5t-43.5 164.5q0 139 94 219.5t263 97.5l290 28v36q0 56 -29.5 102t-81 72t-114.5 26q-84 0 -144 -45.5t-73 -117.5h-180q8 99 60.5 177t140 122.5t196.5 44.5q118 0 210.5 -49t144 -134.5
t51.5 -193.5zM741 365v121l-268 -27q-98 -11 -146 -53t-48 -111q0 -44 23 -79.5t66.5 -56t104.5 -20.5q79 0 140 30.5t94.5 82t33.5 113.5zM805 1393v-150h-578v150h578z" />
    <glyph glyph-name="Abreve" unicode="&#x102;" horiz-adv-x="1294" 
d="M958 279h-627l-95 -279h-197l512 1495h197l507 -1495h-202zM895 465l-249 737l-251 -737h500zM647 1593q-92 0 -158 39t-102 107.5t-39 156.5h139q6 -76 45.5 -121t114.5 -45q76 0 116.5 45t45.5 121h137q-2 -88 -37.5 -156.5t-102.5 -107.5t-159 -39z" />
    <glyph glyph-name="abreve" unicode="&#x103;" horiz-adv-x="1069" 
d="M922 678v-678h-181v97q-52 -58 -126 -89t-169 -31q-105 0 -185 40t-123.5 111.5t-43.5 164.5q0 139 94 219.5t263 97.5l290 28v36q0 56 -29.5 102t-81 72t-114.5 26q-84 0 -144 -45.5t-73 -117.5h-180q8 99 60.5 177t140 122.5t196.5 44.5q118 0 210.5 -49t144 -134.5
t51.5 -193.5zM741 365v121l-268 -27q-98 -11 -146 -53t-48 -111q0 -44 23 -79.5t66.5 -56t104.5 -20.5q79 0 140 30.5t94.5 82t33.5 113.5zM516 1163q-92 0 -158 39t-102 107.5t-39 156.5h139q6 -76 45.5 -121t114.5 -45q76 0 116.5 45t45.5 121h137q-2 -88 -37.5 -156.5
t-102.5 -107.5t-159 -39z" />
    <glyph glyph-name="Aogonek" unicode="&#x104;" horiz-adv-x="1294" 
d="M1163 -254h92v-145h-142q-67 0 -113.5 24.5t-69.5 66.5t-23 93q0 59 33.5 114.5t107.5 114.5l-90 265h-627l-95 -279h-197l512 1495h197l507 -1495q-73 -55 -109 -88.5t-48.5 -56.5t-12.5 -48q0 -27 18.5 -44t59.5 -17zM895 465l-249 737l-251 -737h500z" />
    <glyph glyph-name="aogonek" unicode="&#x105;" horiz-adv-x="1069" 
d="M752 -193q0 -27 18.5 -44t59.5 -17h92v-145h-142q-67 0 -113.5 24.5t-69.5 66.5t-23 93q0 64 39.5 124t127.5 125v63q-52 -58 -126 -89t-169 -31q-105 0 -185 40t-123.5 111.5t-43.5 164.5q0 139 94 219.5t263 97.5l290 28v36q0 56 -29.5 102t-81 72t-114.5 26
q-84 0 -144 -45.5t-73 -117.5h-180q8 99 60.5 177t140 122.5t196.5 44.5q118 0 210.5 -49t144 -134.5t51.5 -193.5v-678q-73 -55 -109 -88.5t-48.5 -56.5t-12.5 -48zM741 365v121l-268 -27q-98 -11 -146 -53t-48 -111q0 -44 23 -79.5t66.5 -56t104.5 -20.5q79 0 140 30.5
t94.5 82t33.5 113.5z" />
    <glyph glyph-name="Cacute" unicode="&#x106;" horiz-adv-x="1542" 
d="M858 1518q194 0 352 -82t257 -228l-156 -119q-72 112 -189.5 175t-263.5 63q-163 0 -291.5 -75.5t-200 -208t-71.5 -298.5q0 -162 71.5 -294t200 -207.5t291.5 -75.5q146 0 263.5 63.5t189.5 176.5l156 -119q-99 -147 -257 -229.5t-352 -82.5q-217 0 -389.5 100.5
t-270.5 275.5t-98 392q0 219 97.5 395.5t270.5 277t390 100.5zM874 1589h-127l112 318h238z" />
    <glyph glyph-name="cacute" unicode="&#x107;" horiz-adv-x="1108" 
d="M616 1055q136 0 248 -58t183 -161l-146 -108q-46 68 -119.5 106t-165.5 38q-101 0 -180 -45.5t-123.5 -127t-44.5 -183.5t44.5 -183.5t123.5 -127t180 -45.5q92 0 165.5 38t119.5 106l146 -107q-71 -103 -183 -161.5t-248 -58.5q-152 0 -273.5 71t-190 194t-68.5 274
t68.5 274t190 194t273.5 71zM634 1159h-127l112 318h238z" />
    <glyph glyph-name="Ccircumflex" unicode="&#x108;" horiz-adv-x="1542" 
d="M858 1518q194 0 352 -82t257 -228l-156 -119q-72 112 -189.5 175t-263.5 63q-163 0 -291.5 -75.5t-200 -208t-71.5 -298.5q0 -162 71.5 -294t200 -207.5t291.5 -75.5q146 0 263.5 63.5t189.5 176.5l156 -119q-99 -147 -257 -229.5t-352 -82.5q-217 0 -389.5 100.5
t-270.5 275.5t-98 392q0 219 97.5 395.5t270.5 277t390 100.5zM912 1907l213 -318h-127l-162 156l-162 -156h-124l210 318h152z" />
    <glyph glyph-name="ccircumflex" unicode="&#x109;" horiz-adv-x="1108" 
d="M616 1055q136 0 248 -58t183 -161l-146 -108q-46 68 -119.5 106t-165.5 38q-101 0 -180 -45.5t-123.5 -127t-44.5 -183.5t44.5 -183.5t123.5 -127t180 -45.5q92 0 165.5 38t119.5 106l146 -107q-71 -103 -183 -161.5t-248 -58.5q-152 0 -273.5 71t-190 194t-68.5 274
t68.5 274t190 194t273.5 71zM672 1477l213 -318h-127l-162 156l-162 -156h-124l210 318h152z" />
    <glyph glyph-name="Cdotaccent" unicode="&#x10a;" horiz-adv-x="1542" 
d="M858 1518q194 0 352 -82t257 -228l-156 -119q-72 112 -189.5 175t-263.5 63q-163 0 -291.5 -75.5t-200 -208t-71.5 -298.5q0 -162 71.5 -294t200 -207.5t291.5 -75.5q146 0 263.5 63.5t189.5 176.5l156 -119q-99 -147 -257 -229.5t-352 -82.5q-217 0 -389.5 100.5
t-270.5 275.5t-98 392q0 219 97.5 395.5t270.5 277t390 100.5zM836 1876q55 0 91 -36.5t36 -90.5t-36 -90.5t-91 -36.5t-91 36.5t-36 90.5t36 90.5t91 36.5z" />
    <glyph glyph-name="cdotaccent" unicode="&#x10b;" horiz-adv-x="1108" 
d="M616 1055q136 0 248 -58t183 -161l-146 -108q-46 68 -119.5 106t-165.5 38q-101 0 -180 -45.5t-123.5 -127t-44.5 -183.5t44.5 -183.5t123.5 -127t180 -45.5q92 0 165.5 38t119.5 106l146 -107q-71 -103 -183 -161.5t-248 -58.5q-152 0 -273.5 71t-190 194t-68.5 274
t68.5 274t190 194t273.5 71zM596 1446q55 0 91 -36.5t36 -90.5t-36 -90.5t-91 -36.5t-91 36.5t-36 90.5t36 90.5t91 36.5z" />
    <glyph glyph-name="Ccaron" unicode="&#x10c;" horiz-adv-x="1542" 
d="M858 1518q194 0 352 -82t257 -228l-156 -119q-72 112 -189.5 175t-263.5 63q-163 0 -291.5 -75.5t-200 -208t-71.5 -298.5q0 -162 71.5 -294t200 -207.5t291.5 -75.5q146 0 263.5 63.5t189.5 176.5l156 -119q-99 -147 -257 -229.5t-352 -82.5q-217 0 -389.5 100.5
t-270.5 275.5t-98 392q0 219 97.5 395.5t270.5 277t390 100.5zM761 1589l-213 318h127l162 -156l162 156h124l-210 -318h-152z" />
    <glyph glyph-name="ccaron" unicode="&#x10d;" horiz-adv-x="1108" 
d="M616 1055q136 0 248 -58t183 -161l-146 -108q-46 68 -119.5 106t-165.5 38q-101 0 -180 -45.5t-123.5 -127t-44.5 -183.5t44.5 -183.5t123.5 -127t180 -45.5q92 0 165.5 38t119.5 106l146 -107q-71 -103 -183 -161.5t-248 -58.5q-152 0 -273.5 71t-190 194t-68.5 274
t68.5 274t190 194t273.5 71zM521 1159l-213 318h127l162 -156l162 156h124l-210 -318h-152z" />
    <glyph glyph-name="Dcaron" unicode="&#x10e;" horiz-adv-x="1477" 
d="M1376 748q0 -210 -96.5 -381t-267 -269t-383.5 -98h-463v1495h463q213 0 383.5 -98t267 -269t96.5 -380zM360 190h265q159 0 286 73t199 200.5t72 284.5t-72 284t-199 200t-286 73h-265v-1115zM591 1589l-213 318h127l162 -156l162 156h124l-210 -318h-152z" />
    <glyph glyph-name="dcaron" unicode="&#x10f;" horiz-adv-x="1526" 
d="M1134 1561v-1561h-184v118q-66 -67 -155.5 -104t-192.5 -37q-149 0 -267 71t-184.5 194.5t-66.5 273.5t66.5 273.5t184.5 194.5t267 71q105 0 194 -37.5t154 -105.5v649h184zM958 516q0 103 -43.5 184.5t-122 127.5t-178.5 46q-101 0 -179.5 -46t-122.5 -127.5
t-44 -184.5t44 -184.5t122.5 -127.5t179.5 -46q100 0 178.5 46t122 127.5t43.5 184.5zM1536 1436q0 -27 -10 -56l-117 -319h-123l72 260q-35 14 -54.5 44.5t-19.5 70.5q0 55 35.5 91t91.5 36q55 0 90 -36t35 -91z" />
    <glyph glyph-name="Dcroat" unicode="&#x110;" horiz-adv-x="1477" 
d="M1376 748q0 -210 -96.5 -381t-267 -269t-383.5 -98h-463v664h-154v176h154v655h463q213 0 383.5 -98t267 -269t96.5 -380zM1182 748q0 157 -72 284t-199 200t-286 73h-265v-465h361v-176h-361v-474h265q159 0 286 73t199 200.5t72 284.5z" />
    <glyph glyph-name="dcroat" unicode="&#x111;" horiz-adv-x="1288" 
d="M1282 1200h-148v-1200h-184v118q-66 -67 -155.5 -104t-192.5 -37q-149 0 -267 71t-184.5 194.5t-66.5 273.5t66.5 273.5t184.5 194.5t267 71q105 0 194 -37.5t154 -105.5v288h-336v160h336v201h184v-201h148v-160zM958 516q0 103 -43.5 184.5t-122 127.5t-178.5 46
q-101 0 -179.5 -46t-122.5 -127.5t-44 -184.5t44 -184.5t122.5 -127.5t179.5 -46q100 0 178.5 46t122 127.5t43.5 184.5z" />
    <glyph glyph-name="Emacron" unicode="&#x112;" horiz-adv-x="1405" 
d="M166 1495h1122v-190h-928v-459h533v-191h-533v-465h928v-190h-1122v1495zM1022 1823v-150h-578v150h578z" />
    <glyph glyph-name="emacron" unicode="&#x113;" horiz-adv-x="1186" 
d="M1097 432h-820q15 -80 61.5 -142.5t117.5 -97t158 -34.5q92 0 166.5 40t121.5 111l151 -99q-71 -108 -185.5 -170.5t-253.5 -62.5q-153 0 -273.5 71t-188.5 194.5t-68 273.5t65.5 273.5t182 194.5t264.5 71t263 -70.5t179 -193.5t64 -275q0 -50 -5 -84zM275 596h640
q-12 84 -55.5 147t-111 97t-152.5 34q-87 0 -155 -34t-111 -96.5t-55 -147.5zM881 1393v-150h-578v150h578z" />
    <glyph glyph-name="Ebreve" unicode="&#x114;" horiz-adv-x="1405" 
d="M166 1495h1122v-190h-928v-459h533v-191h-533v-465h928v-190h-1122v1495zM733 1593q-92 0 -158 39t-102 107.5t-39 156.5h139q6 -76 45.5 -121t114.5 -45q76 0 116.5 45t45.5 121h137q-2 -88 -37.5 -156.5t-102.5 -107.5t-159 -39z" />
    <glyph glyph-name="ebreve" unicode="&#x115;" horiz-adv-x="1186" 
d="M1097 432h-820q15 -80 61.5 -142.5t117.5 -97t158 -34.5q92 0 166.5 40t121.5 111l151 -99q-71 -108 -185.5 -170.5t-253.5 -62.5q-153 0 -273.5 71t-188.5 194.5t-68 273.5t65.5 273.5t182 194.5t264.5 71t263 -70.5t179 -193.5t64 -275q0 -50 -5 -84zM275 596h640
q-12 84 -55.5 147t-111 97t-152.5 34q-87 0 -155 -34t-111 -96.5t-55 -147.5zM592 1163q-92 0 -158 39t-102 107.5t-39 156.5h139q6 -76 45.5 -121t114.5 -45q76 0 116.5 45t45.5 121h137q-2 -88 -37.5 -156.5t-102.5 -107.5t-159 -39z" />
    <glyph glyph-name="Edotaccent" unicode="&#x116;" horiz-adv-x="1405" 
d="M166 1495h1122v-190h-928v-459h533v-191h-533v-465h928v-190h-1122v1495zM733 1876q55 0 91 -36.5t36 -90.5t-36 -90.5t-91 -36.5t-91 36.5t-36 90.5t36 90.5t91 36.5z" />
    <glyph glyph-name="edotaccent" unicode="&#x117;" horiz-adv-x="1186" 
d="M1097 432h-820q15 -80 61.5 -142.5t117.5 -97t158 -34.5q92 0 166.5 40t121.5 111l151 -99q-71 -108 -185.5 -170.5t-253.5 -62.5q-153 0 -273.5 71t-188.5 194.5t-68 273.5t65.5 273.5t182 194.5t264.5 71t263 -70.5t179 -193.5t64 -275q0 -50 -5 -84zM275 596h640
q-12 84 -55.5 147t-111 97t-152.5 34q-87 0 -155 -34t-111 -96.5t-55 -147.5zM592 1446q55 0 91 -36.5t36 -90.5t-36 -90.5t-91 -36.5t-91 36.5t-36 90.5t36 90.5t91 36.5z" />
    <glyph glyph-name="Eogonek" unicode="&#x118;" horiz-adv-x="1405" 
d="M360 1305v-459h533v-191h-533v-465h928v-190q-73 -55 -109 -88.5t-48.5 -56.5t-12.5 -48q0 -27 18.5 -44t59.5 -17h92v-145h-142q-67 0 -113.5 24.5t-69.5 66.5t-23 93q0 56 29.5 108t94.5 107h-898v1495h1122v-190h-928z" />
    <glyph glyph-name="eogonek" unicode="&#x119;" horiz-adv-x="1186" 
d="M1096 432h-821q15 -80 61.5 -142.5t117.5 -97t158 -34.5q93 0 167.5 40t121.5 111l151 -99q-52 -81 -139 -147q-82 -58 -126.5 -99t-61 -70.5t-16.5 -57.5q0 -39 28 -64.5t84 -25.5h68v-145h-127q-73 0 -125 27t-78.5 72t-26.5 99q0 46 20 89.5t62 88.5h-2
q-151 0 -271.5 71.5t-188.5 195t-68 272.5q0 151 65 274t181 194t264 71t263.5 -70.5t180 -193.5t64.5 -275q0 -43 -6 -84zM273 596h642q-12 84 -55.5 147t-111 97t-152.5 34q-88 0 -156.5 -34t-111.5 -96.5t-55 -147.5z" />
    <glyph glyph-name="Ecaron" unicode="&#x11a;" horiz-adv-x="1405" 
d="M166 1495h1122v-190h-928v-459h533v-191h-533v-465h928v-190h-1122v1495zM658 1589l-213 318h127l162 -156l162 156h124l-210 -318h-152z" />
    <glyph glyph-name="ecaron" unicode="&#x11b;" horiz-adv-x="1186" 
d="M1097 432h-820q15 -80 61.5 -142.5t117.5 -97t158 -34.5q92 0 166.5 40t121.5 111l151 -99q-71 -108 -185.5 -170.5t-253.5 -62.5q-153 0 -273.5 71t-188.5 194.5t-68 273.5t65.5 273.5t182 194.5t264.5 71t263 -70.5t179 -193.5t64 -275q0 -50 -5 -84zM275 596h640
q-12 84 -55.5 147t-111 97t-152.5 34q-87 0 -155 -34t-111 -96.5t-55 -147.5zM517 1159l-213 318h127l162 -156l162 156h124l-210 -318h-152z" />
    <glyph glyph-name="Gcircumflex" unicode="&#x11c;" horiz-adv-x="1675" 
d="M1585 717q0 -212 -92 -380.5t-258.5 -264t-380.5 -95.5q-219 0 -390.5 99.5t-267.5 275.5t-96 396q0 219 98 394.5t271.5 275.5t392.5 100q213 0 383 -97t267 -266l-164 -101q-72 126 -199 199.5t-287 73.5q-164 0 -293.5 -75.5t-201.5 -207.5t-72 -296q0 -169 70 -301.5
t197.5 -206.5t293.5 -74q132 0 237.5 45.5t177 128.5t105.5 195h-602v182h811zM912 1907l213 -318h-127l-162 156l-162 -156h-124l210 318h152z" />
    <glyph glyph-name="gcircumflex" unicode="&#x11d;" horiz-adv-x="1253" 
d="M1100 1032v-999q0 -139 -64 -251t-178.5 -175.5t-259.5 -63.5q-115 0 -212 42t-164.5 118t-97.5 175l173 62q28 -99 108.5 -159t192.5 -60q91 0 163.5 41.5t113 113.5t40.5 161v119q-63 -63 -148.5 -97t-184.5 -34q-141 0 -255 68t-178.5 185.5t-64.5 260.5t64.5 261
t178.5 186.5t255 68.5q98 0 184 -35.5t149 -99.5v112h185zM924 537q0 97 -41.5 174t-116 120t-170.5 43q-94 0 -168.5 -43.5t-117 -120t-42.5 -173.5q0 -94 42.5 -170t117 -119t168.5 -43q96 0 170.5 43t116 118.5t41.5 170.5zM670 1477l213 -318h-127l-162 156l-162 -156
h-124l210 318h152z" />
    <glyph glyph-name="Gbreve" unicode="&#x11e;" horiz-adv-x="1675" 
d="M1585 717q0 -212 -92 -380.5t-258.5 -264t-380.5 -95.5q-219 0 -390.5 99.5t-267.5 275.5t-96 396q0 219 98 394.5t271.5 275.5t392.5 100q213 0 383 -97t267 -266l-164 -101q-72 126 -199 199.5t-287 73.5q-164 0 -293.5 -75.5t-201.5 -207.5t-72 -296q0 -169 70 -301.5
t197.5 -206.5t293.5 -74q132 0 237.5 45.5t177 128.5t105.5 195h-602v182h811zM836 1593q-92 0 -158 39t-102 107.5t-39 156.5h139q6 -76 45.5 -121t114.5 -45q76 0 116.5 45t45.5 121h137q-2 -88 -37.5 -156.5t-102.5 -107.5t-159 -39z" />
    <glyph glyph-name="gbreve" unicode="&#x11f;" horiz-adv-x="1253" 
d="M1100 1032v-999q0 -139 -64 -251t-178.5 -175.5t-259.5 -63.5q-115 0 -212 42t-164.5 118t-97.5 175l173 62q28 -99 108.5 -159t192.5 -60q91 0 163.5 41.5t113 113.5t40.5 161v119q-63 -63 -148.5 -97t-184.5 -34q-141 0 -255 68t-178.5 185.5t-64.5 260.5t64.5 261
t178.5 186.5t255 68.5q98 0 184 -35.5t149 -99.5v112h185zM924 537q0 97 -41.5 174t-116 120t-170.5 43q-94 0 -168.5 -43.5t-117 -120t-42.5 -173.5q0 -94 42.5 -170t117 -119t168.5 -43q96 0 170.5 43t116 118.5t41.5 170.5zM594 1163q-92 0 -158 39t-102 107.5t-39 156.5
h139q6 -76 45.5 -121t114.5 -45q76 0 116.5 45t45.5 121h137q-2 -88 -37.5 -156.5t-102.5 -107.5t-159 -39z" />
    <glyph glyph-name="Gdotaccent" unicode="&#x120;" horiz-adv-x="1675" 
d="M1585 717q0 -212 -92 -380.5t-258.5 -264t-380.5 -95.5q-219 0 -390.5 99.5t-267.5 275.5t-96 396q0 219 98 394.5t271.5 275.5t392.5 100q213 0 383 -97t267 -266l-164 -101q-72 126 -199 199.5t-287 73.5q-164 0 -293.5 -75.5t-201.5 -207.5t-72 -296q0 -169 70 -301.5
t197.5 -206.5t293.5 -74q132 0 237.5 45.5t177 128.5t105.5 195h-602v182h811zM836 1876q55 0 91 -36.5t36 -90.5t-36 -90.5t-91 -36.5t-91 36.5t-36 90.5t36 90.5t91 36.5z" />
    <glyph glyph-name="gdotaccent" unicode="&#x121;" horiz-adv-x="1253" 
d="M1100 1032v-999q0 -139 -64 -251t-178.5 -175.5t-259.5 -63.5q-115 0 -212 42t-164.5 118t-97.5 175l173 62q28 -99 108.5 -159t192.5 -60q91 0 163.5 41.5t113 113.5t40.5 161v119q-63 -63 -148.5 -97t-184.5 -34q-141 0 -255 68t-178.5 185.5t-64.5 260.5t64.5 261
t178.5 186.5t255 68.5q98 0 184 -35.5t149 -99.5v112h185zM924 537q0 97 -41.5 174t-116 120t-170.5 43q-94 0 -168.5 -43.5t-117 -120t-42.5 -173.5q0 -94 42.5 -170t117 -119t168.5 -43q96 0 170.5 43t116 118.5t41.5 170.5zM594 1446q55 0 91 -36.5t36 -90.5t-36 -90.5
t-91 -36.5t-91 36.5t-36 90.5t36 90.5t91 36.5z" />
    <glyph glyph-name="Gcommaaccent" unicode="&#x122;" horiz-adv-x="1675" 
d="M1585 717q0 -212 -92 -380.5t-258.5 -264t-380.5 -95.5q-219 0 -390.5 99.5t-267.5 275.5t-96 396q0 219 98 394.5t271.5 275.5t392.5 100q213 0 383 -97t267 -266l-164 -101q-72 126 -199 199.5t-287 73.5q-164 0 -293.5 -75.5t-201.5 -207.5t-72 -296q0 -169 70 -301.5
t197.5 -206.5t293.5 -74q132 0 237.5 45.5t177 128.5t105.5 195h-602v182h811zM981 -193q0 -30 -14 -65l-98 -240h-117l53 189q-36 14 -57 45t-21 71q0 56 35.5 93t91.5 37t91.5 -37t35.5 -93z" />
    <glyph glyph-name="gcommaaccent" unicode="&#x123;" horiz-adv-x="1253" 
d="M1100 1032v-999q0 -139 -64 -251t-178.5 -175.5t-259.5 -63.5q-115 0 -212 42t-164.5 118t-97.5 175l173 62q28 -99 108.5 -159t192.5 -60q91 0 163.5 41.5t113 113.5t40.5 161v119q-63 -63 -148.5 -97t-184.5 -34q-141 0 -255 68t-178.5 185.5t-64.5 260.5t64.5 261
t178.5 186.5t255 68.5q98 0 184 -35.5t149 -99.5v112h185zM924 537q0 97 -41.5 174t-116 120t-170.5 43q-94 0 -168.5 -43.5t-117 -120t-42.5 -173.5q0 -94 42.5 -170t117 -119t168.5 -43q96 0 170.5 43t116 118.5t41.5 170.5zM721 1249q0 -56 -35 -91.5t-92 -35.5t-92 35.5
t-35 91.5q0 33 15 63l98 244h117l-53 -189q36 -14 56.5 -45t20.5 -73z" />
    <glyph glyph-name="Hcircumflex" unicode="&#x124;" horiz-adv-x="1479" 
d="M166 1495h194v-649h758v649h195v-1495h-195v657h-758v-657h-194v1495zM815 1907l213 -318h-127l-162 156l-162 -156h-124l210 318h152z" />
    <glyph glyph-name="hcircumflex" unicode="&#x125;" horiz-adv-x="1186" 
d="M1038 639v-639h-184v614q0 73 -32 132.5t-90.5 93.5t-135.5 34q-76 0 -135 -34t-91 -93.5t-32 -132.5v-614h-184v1561h184v-621q53 55 127 85t160 30q119 0 213 -54t147 -149t53 -213zM318 1952l213 -318h-127l-162 156l-162 -156h-124l210 318h152z" />
    <glyph glyph-name="Hbar" unicode="&#x126;" horiz-adv-x="1479" 
d="M1470 1108h-157v-1108h-195v657h-758v-657h-194v1108h-158v162h158v225h194v-225h758v225h195v-225h157v-162zM1118 1108h-758v-262h758v262z" />
    <glyph glyph-name="hbar" unicode="&#x127;" horiz-adv-x="1186" 
d="M1038 639v-639h-184v614q0 73 -32 132.5t-90.5 93.5t-135.5 34q-76 0 -135 -34t-91 -93.5t-32 -132.5v-614h-184v1200h-154v160h154v201h184v-201h330v-160h-330v-260q53 55 127 85t160 30q119 0 213 -54t147 -149t53 -213z" />
    <glyph glyph-name="Itilde" unicode="&#x128;" horiz-adv-x="526" 
d="M166 1495h194v-1495h-194v1495zM414 1620q-46 0 -82.5 15t-85.5 44q-37 23 -64.5 35t-56.5 12q-39 0 -59.5 -24.5t-26.5 -77.5h-132q6 140 65.5 198t142.5 58q46 0 83 -15.5t84 -44.5q42 -25 67.5 -36t54.5 -11q39 0 59.5 25t26.5 78h132q-6 -140 -65.5 -198t-142.5 -58z
" />
    <glyph glyph-name="itilde" unicode="&#x129;" 
d="M338 0h-184v1032h184v-1032zM396 1190q-46 0 -82.5 15t-85.5 44q-37 23 -64.5 35t-56.5 12q-39 0 -59.5 -24.5t-26.5 -77.5h-132q6 140 65.5 198t142.5 58q46 0 83 -15.5t84 -44.5q42 -25 67.5 -36t54.5 -11q39 0 59.5 25t26.5 78h132q-6 -140 -65.5 -198t-142.5 -58z
" />
    <glyph glyph-name="Imacron" unicode="&#x12a;" horiz-adv-x="526" 
d="M166 1495h194v-1495h-194v1495zM553 1823v-150h-578v150h578z" />
    <glyph glyph-name="imacron" unicode="&#x12b;" 
d="M338 0h-184v1032h184v-1032zM535 1393v-150h-578v150h578z" />
    <glyph glyph-name="Ibreve" unicode="&#x12c;" horiz-adv-x="526" 
d="M166 1495h194v-1495h-194v1495zM264 1593q-92 0 -158 39t-102 107.5t-39 156.5h139q6 -76 45.5 -121t114.5 -45q76 0 116.5 45t45.5 121h137q-2 -88 -37.5 -156.5t-102.5 -107.5t-159 -39z" />
    <glyph glyph-name="ibreve" unicode="&#x12d;" 
d="M338 0h-184v1032h184v-1032zM246 1163q-92 0 -158 39t-102 107.5t-39 156.5h139q6 -76 45.5 -121t114.5 -45q76 0 116.5 45t45.5 121h137q-2 -88 -37.5 -156.5t-102.5 -107.5t-159 -39z" />
    <glyph glyph-name="Iogonek" unicode="&#x12e;" horiz-adv-x="526" 
d="M416 -254v-145h-140q-69 0 -118 25t-74 68t-25 95q0 57 26.5 112.5t80.5 117.5v1476h194v-1495q-68 -79 -91 -119.5t-23 -73.5q0 -26 19.5 -43.5t58.5 -17.5h92z" />
    <glyph glyph-name="iogonek" unicode="&#x12f;" 
d="M115 1397q0 56 36.5 93.5t94.5 37.5t94.5 -37.5t36.5 -93.5t-36.5 -93.5t-94.5 -37.5t-94.5 37.5t-36.5 93.5zM393 -254v-145h-139q-69 0 -117.5 25t-73 68t-24.5 95q0 59 28.5 117t86.5 123v1003h184v-1032q-67 -80 -90 -120t-23 -73q0 -26 18.5 -43.5t57.5 -17.5h92z
" />
    <glyph glyph-name="Idotaccent" unicode="&#x130;" horiz-adv-x="526" 
d="M166 1495h194v-1495h-194v1495zM264 1876q55 0 91 -36.5t36 -90.5t-36 -90.5t-91 -36.5t-91 36.5t-36 90.5t36 90.5t91 36.5z" />
    <glyph glyph-name="dotlessi" unicode="&#x131;" 
d="M338 0h-184v1032h184v-1032z" />
    <glyph glyph-name="IJ" unicode="&#x132;" horiz-adv-x="1700" 
d="M166 1495h194v-1495h-194v1495zM1544 1495v-1042q0 -134 -62 -242.5t-174 -171t-256 -62.5q-141 0 -251.5 61t-173 169t-64.5 242h192q1 -80 39 -144t105 -100.5t153 -36.5t154 37.5t105.5 103t37.5 146.5v1040h195z" />
    <glyph glyph-name="ij" unicode="&#x133;" horiz-adv-x="984" 
d="M338 0h-184v1032h184v-1032zM246 1528q58 0 94.5 -37.5t36.5 -93.5t-36.5 -93.5t-94.5 -37.5t-94.5 37.5t-36.5 93.5t36.5 93.5t94.5 37.5zM830 1032v-1229q0 -71 -29 -124.5t-82.5 -83t-124.5 -29.5h-110v174h71q43 0 67 25t24 67v1200h184zM738 1528q58 0 94.5 -37.5
t36.5 -93.5t-36.5 -93.5t-94.5 -37.5t-94.5 37.5t-36.5 93.5t36.5 93.5t94.5 37.5z" />
    <glyph glyph-name="Jcircumflex" unicode="&#x134;" horiz-adv-x="1174" 
d="M1018 1495v-1042q0 -134 -62 -242.5t-174 -171t-256 -62.5q-141 0 -251.5 61t-173 169t-64.5 242h192q1 -80 39 -144t105 -100.5t153 -36.5t154 37.5t105.5 103t37.5 146.5v1040h195zM998 1907l213 -318h-127l-162 156l-162 -156h-124l210 318h152z" />
    <glyph glyph-name="jcircumflex" unicode="&#x135;" 
d="M338 1032v-1229q0 -71 -29 -124.5t-82.5 -83t-124.5 -29.5h-110v174h71q43 0 67 25t24 67v1200h184zM322 1477l213 -318h-127l-162 156l-162 -156h-124l210 318h152z" />
    <glyph glyph-name="Kcommaaccent" unicode="&#x136;" horiz-adv-x="1264" 
d="M979 0l-619 714v-714h-194v1495h194v-698l615 698h244l-654 -737l662 -758h-248zM784 -193q0 -30 -14 -65l-98 -240h-117l53 189q-36 14 -57 45t-21 71q0 56 35.5 93t91.5 37t91.5 -37t35.5 -93z" />
    <glyph glyph-name="kcommaaccent" unicode="&#x137;" horiz-adv-x="1030" 
d="M526 545l478 -545h-238l-428 495v-495h-184v1561h184v-968l428 439h238zM664 -193q0 -30 -14 -65l-98 -240h-117l53 189q-36 14 -57 45t-21 71q0 56 35.5 93t91.5 37t91.5 -37t35.5 -93z" />
    <glyph glyph-name="kgreenlandic" unicode="&#x138;" horiz-adv-x="1030" 
d="M526 545l478 -545h-238l-428 495v-495h-184v1032h184v-439l428 439h238z" />
    <glyph glyph-name="Lacute" unicode="&#x139;" horiz-adv-x="1366" 
d="M166 1495h194v-1305h928v-190h-1122v1495zM310 1589h-127l112 318h238z" />
    <glyph glyph-name="lacute" unicode="&#x13a;" 
d="M154 1561h184v-1561h-184v1561zM284 1634h-127l112 318h238z" />
    <glyph glyph-name="Lcommaaccent" unicode="&#x13b;" horiz-adv-x="1366" 
d="M166 1495h194v-1305h928v-190h-1122v1495zM827 -193q0 -30 -14 -65l-98 -240h-117l53 189q-36 14 -57 45t-21 71q0 56 35.5 93t91.5 37t91.5 -37t35.5 -93z" />
    <glyph glyph-name="lcommaaccent" unicode="&#x13c;" 
d="M154 1561h184v-1561h-184v1561zM373 -193q0 -30 -14 -65l-98 -240h-117l53 189q-36 14 -57 45t-21 71q0 56 35.5 93t91.5 37t91.5 -37t35.5 -93z" />
    <glyph glyph-name="Lcaron" unicode="&#x13d;" horiz-adv-x="1366" 
d="M166 1495h194v-1305h928v-190h-1122v1495zM848 1393q0 -25 -8 -49l-127 -371h-129l82 304q-34 15 -54 46t-20 70q0 55 36.5 91t92.5 36q57 0 92 -35.5t35 -91.5z" />
    <glyph glyph-name="lcaron" unicode="&#x13e;" horiz-adv-x="725" 
d="M154 1561h184v-1561h-184v1561zM735 1436q0 -27 -10 -56l-117 -319h-123l72 260q-35 14 -54.5 44.5t-19.5 70.5q0 55 35.5 91t91.5 36q55 0 90 -36t35 -91z" />
    <glyph glyph-name="Ldot" unicode="&#x13f;" horiz-adv-x="1366" 
d="M166 1495h194v-1305h928v-190h-1122v1495zM942 975q59 0 96 -37.5t37 -95.5t-37 -95.5t-96 -37.5q-58 0 -95.5 38t-37.5 95t37.5 95t95.5 38z" />
    <glyph glyph-name="ldot" unicode="&#x140;" horiz-adv-x="815" 
d="M154 1561h184v-1561h-184v1561zM635 860q55 0 91 -36.5t36 -90.5t-36 -90.5t-91 -36.5t-91 36.5t-36 90.5t36 90.5t91 36.5z" />
    <glyph glyph-name="Lslash" unicode="&#x141;" horiz-adv-x="1366" 
d="M1288 190v-190h-1122v517l-146 -87v195l146 87v783h194v-668l287 170v-194l-287 -171v-442h928z" />
    <glyph glyph-name="lslash" unicode="&#x142;" 
d="M489 973v-189l-151 -95v-689h-184v574l-152 -95v189l152 95v798h184v-683z" />
    <glyph glyph-name="Nacute" unicode="&#x143;" horiz-adv-x="1487" 
d="M1321 1495v-1495h-195l-766 1159v-1159h-194v1495h194l766 -1159v1159h195zM781 1589h-127l112 318h238z" />
    <glyph glyph-name="nacute" unicode="&#x144;" horiz-adv-x="1184" 
d="M1036 641v-641h-184v614q0 73 -32 132.5t-90.5 93.5t-135.5 34q-75 0 -133.5 -34t-90.5 -93.5t-32 -132.5v-614h-184v1032h184v-91q53 54 127 84t160 30q118 0 211.5 -54t146.5 -148.5t53 -211.5zM624 1159h-127l112 318h238z" />
    <glyph glyph-name="Ncommaaccent" unicode="&#x145;" horiz-adv-x="1487" 
d="M1321 1495v-1495h-195l-766 1159v-1159h-194v1495h194l766 -1159v1159h195zM870 -193q0 -30 -14 -65l-98 -240h-117l53 189q-36 14 -57 45t-21 71q0 56 35.5 93t91.5 37t91.5 -37t35.5 -93z" />
    <glyph glyph-name="ncommaaccent" unicode="&#x146;" horiz-adv-x="1184" 
d="M1036 641v-641h-184v614q0 73 -32 132.5t-90.5 93.5t-135.5 34q-75 0 -133.5 -34t-90.5 -93.5t-32 -132.5v-614h-184v1032h184v-91q53 54 127 84t160 30q118 0 211.5 -54t146.5 -148.5t53 -211.5zM713 -193q0 -30 -14 -65l-98 -240h-117l53 189q-36 14 -57 45t-21 71
q0 56 35.5 93t91.5 37t91.5 -37t35.5 -93z" />
    <glyph glyph-name="Ncaron" unicode="&#x147;" horiz-adv-x="1487" 
d="M1321 1495v-1495h-195l-766 1159v-1159h-194v1495h194l766 -1159v1159h195zM668 1589l-213 318h127l162 -156l162 156h124l-210 -318h-152z" />
    <glyph glyph-name="ncaron" unicode="&#x148;" horiz-adv-x="1184" 
d="M1036 641v-641h-184v614q0 73 -32 132.5t-90.5 93.5t-135.5 34q-75 0 -133.5 -34t-90.5 -93.5t-32 -132.5v-614h-184v1032h184v-91q53 54 127 84t160 30q118 0 211.5 -54t146.5 -148.5t53 -211.5zM511 1159l-213 318h127l162 -156l162 156h124l-210 -318h-152z" />
    <glyph glyph-name="napostrophe" unicode="&#x149;" horiz-adv-x="1184" 
d="M1036 641v-641h-184v614q0 73 -32 132.5t-90.5 93.5t-135.5 34q-75 0 -133.5 -34t-90.5 -93.5t-32 -132.5v-614h-184v1032h184v-91q53 54 127 84t160 30q118 0 211.5 -54t146.5 -148.5t53 -211.5zM407 1419q0 -30 -14 -65l-98 -240h-117l53 189q-36 14 -57 45t-21 71
q0 56 35.5 93t91.5 37t91.5 -37t35.5 -93z" />
    <glyph glyph-name="Eng" unicode="&#x14a;" horiz-adv-x="1487" 
d="M166 1495h194l768 -1159v1159h193v-1675q0 -76 -31.5 -133.5t-89 -89t-133.5 -31.5h-125v174h86q48 0 74 26t26 72v162l-768 1159v-1159h-194v1495z" />
    <glyph glyph-name="eng" unicode="&#x14b;" horiz-adv-x="1171" 
d="M1024 649v-846q0 -71 -30 -124.5t-84.5 -83t-125.5 -29.5h-106v174h70q42 0 67 25t25 67v789q0 71 -31 128.5t-88.5 91t-134.5 33.5q-72 0 -128.5 -33.5t-88 -91.5t-31.5 -128v-621h-184v1032h184v-91q52 54 124.5 84t158.5 30q115 0 207 -53t144 -145.5t52 -207.5z" />
    <glyph glyph-name="Omacron" unicode="&#x14c;" horiz-adv-x="1733" 
d="M866 1518q220 0 395 -99.5t273 -275t98 -395.5q0 -221 -98 -396.5t-273 -275t-395 -99.5t-394.5 99.5t-273 275t-98.5 396.5q0 220 98.5 395.5t273 275t394.5 99.5zM866 168q165 0 295.5 75t203.5 207.5t73 297.5t-73 297t-203.5 207t-295.5 75t-295.5 -75t-203 -207
t-72.5 -297t72.5 -297.5t203 -207.5t295.5 -75zM1155 1823v-150h-578v150h578z" />
    <glyph glyph-name="omacron" unicode="&#x14d;" horiz-adv-x="1241" 
d="M621 1055q153 0 275 -71.5t191.5 -195t69.5 -272.5t-69.5 -272.5t-191.5 -195t-275 -71.5t-275.5 71.5t-192 195t-69.5 272.5t69.5 272.5t192 195t275.5 71.5zM621 160q103 0 183 45.5t124.5 127t44.5 183.5t-44.5 183.5t-124.5 127t-183 45.5t-183.5 -45.5t-125 -126.5
t-44.5 -184t44.5 -184t125 -126.5t183.5 -45.5zM910 1393v-150h-578v150h578z" />
    <glyph glyph-name="Obreve" unicode="&#x14e;" horiz-adv-x="1733" 
d="M866 1518q220 0 395 -99.5t273 -275t98 -395.5q0 -221 -98 -396.5t-273 -275t-395 -99.5t-394.5 99.5t-273 275t-98.5 396.5q0 220 98.5 395.5t273 275t394.5 99.5zM866 168q165 0 295.5 75t203.5 207.5t73 297.5t-73 297t-203.5 207t-295.5 75t-295.5 -75t-203 -207
t-72.5 -297t72.5 -297.5t203 -207.5t295.5 -75zM866 1593q-92 0 -158 39t-102 107.5t-39 156.5h139q6 -76 45.5 -121t114.5 -45q76 0 116.5 45t45.5 121h137q-2 -88 -37.5 -156.5t-102.5 -107.5t-159 -39z" />
    <glyph glyph-name="obreve" unicode="&#x14f;" horiz-adv-x="1241" 
d="M621 1055q153 0 275 -71.5t191.5 -195t69.5 -272.5t-69.5 -272.5t-191.5 -195t-275 -71.5t-275.5 71.5t-192 195t-69.5 272.5t69.5 272.5t192 195t275.5 71.5zM621 160q103 0 183 45.5t124.5 127t44.5 183.5t-44.5 183.5t-124.5 127t-183 45.5t-183.5 -45.5t-125 -126.5
t-44.5 -184t44.5 -184t125 -126.5t183.5 -45.5zM621 1163q-92 0 -158 39t-102 107.5t-39 156.5h139q6 -76 45.5 -121t114.5 -45q76 0 116.5 45t45.5 121h137q-2 -88 -37.5 -156.5t-102.5 -107.5t-159 -39z" />
    <glyph glyph-name="Ohungarumlaut" unicode="&#x150;" horiz-adv-x="1733" 
d="M866 1518q220 0 395 -99.5t273 -275t98 -395.5q0 -221 -98 -396.5t-273 -275t-395 -99.5t-394.5 99.5t-273 275t-98.5 396.5q0 220 98.5 395.5t273 275t394.5 99.5zM866 168q165 0 295.5 75t203.5 207.5t73 297.5t-73 297t-203.5 207t-295.5 75t-295.5 -75t-203 -207
t-72.5 -297t72.5 -297.5t203 -207.5t295.5 -75zM735 1589h-127l144 318h210zM1040 1589h-127l154 318h211z" />
    <glyph glyph-name="ohungarumlaut" unicode="&#x151;" horiz-adv-x="1241" 
d="M621 1055q153 0 275 -71.5t191.5 -195t69.5 -272.5t-69.5 -272.5t-191.5 -195t-275 -71.5t-275.5 71.5t-192 195t-69.5 272.5t69.5 272.5t192 195t275.5 71.5zM621 160q103 0 183 45.5t124.5 127t44.5 183.5t-44.5 183.5t-124.5 127t-183 45.5t-183.5 -45.5t-125 -126.5
t-44.5 -184t44.5 -184t125 -126.5t183.5 -45.5zM490 1159h-127l144 318h210zM795 1159h-127l154 318h211z" />
    <glyph glyph-name="OE" unicode="&#x152;" horiz-adv-x="2116" 
d="M848 0q-213 0 -384 98t-267.5 269t-96.5 381q0 209 96.5 380t267.5 269t384 98h1147v-190h-809v-459h469v-191h-469v-465h813v-190h-1151zM995 1305h-143q-160 0 -287 -72.5t-198.5 -199.5t-71.5 -285q0 -156 72 -283.5t199 -201t286 -73.5h143v1115z" />
    <glyph glyph-name="oe" unicode="&#x153;" horiz-adv-x="2036" 
d="M1946 432h-806q15 -81 60 -143.5t114 -97.5t154 -35q90 0 164.5 41t122.5 111l149 -98q-70 -108 -183.5 -170.5t-252.5 -62.5q-133 0 -244 59t-180 162q-72 -104 -183.5 -162.5t-246.5 -58.5q-151 0 -272 71.5t-189.5 195t-68.5 272.5q0 150 68.5 273.5t189.5 194.5
t272 71q134 0 245.5 -58.5t182.5 -159.5q68 102 174 160t236 58q146 0 259.5 -70.5t177 -193.5t63.5 -275q0 -43 -6 -84zM1138 596h629q-12 84 -54.5 147t-109.5 97t-151 34q-127 0 -211 -75t-103 -203zM958 516q0 102 -43.5 183.5t-122 127t-178.5 45.5
q-101 0 -179.5 -45.5t-122.5 -127t-44 -183.5t44 -183.5t122.5 -127t179.5 -45.5q100 0 178.5 45.5t122 127t43.5 183.5z" />
    <glyph glyph-name="Racute" unicode="&#x154;" horiz-adv-x="1395" 
d="M744 496h-384v-496h-194v1495h592q150 0 267 -64t182 -178t65 -260q0 -106 -38.5 -199t-109.5 -160.5t-166 -101.5l342 -532h-231zM360 686h400q93 0 165 39.5t112 110t40 159.5q0 92 -39.5 162t-111 109t-164.5 39h-402v-619zM710 1589h-127l112 318h238z" />
    <glyph glyph-name="racute" unicode="&#x155;" horiz-adv-x="778" 
d="M733 1034v-182h-141q-75 0 -133 -34.5t-89.5 -94t-31.5 -131.5v-592h-184v1032h182v-123q46 60 116.5 92.5t155.5 32.5h125zM458 1159h-127l112 318h238z" />
    <glyph glyph-name="Rcommaaccent" unicode="&#x156;" horiz-adv-x="1395" 
d="M744 496h-384v-496h-194v1495h592q150 0 267 -64t182 -178t65 -260q0 -106 -38.5 -199t-109.5 -160.5t-166 -101.5l342 -532h-231zM360 686h400q93 0 165 39.5t112 110t40 159.5q0 92 -39.5 162t-111 109t-164.5 39h-402v-619zM825 -193q0 -30 -14 -65l-98 -240h-117
l53 189q-36 14 -57 45t-21 71q0 56 35.5 93t91.5 37t91.5 -37t35.5 -93z" />
    <glyph glyph-name="rcommaaccent" unicode="&#x157;" horiz-adv-x="778" 
d="M733 1034v-182h-141q-75 0 -133 -34.5t-89.5 -94t-31.5 -131.5v-592h-184v1032h182v-123q46 60 116.5 92.5t155.5 32.5h125zM381 -193q0 -30 -14 -65l-98 -240h-117l53 189q-36 14 -57 45t-21 71q0 56 35.5 93t91.5 37t91.5 -37t35.5 -93z" />
    <glyph glyph-name="Rcaron" unicode="&#x158;" horiz-adv-x="1395" 
d="M744 496h-384v-496h-194v1495h592q150 0 267 -64t182 -178t65 -260q0 -106 -38.5 -199t-109.5 -160.5t-166 -101.5l342 -532h-231zM360 686h400q93 0 165 39.5t112 110t40 159.5q0 92 -39.5 162t-111 109t-164.5 39h-402v-619zM597 1589l-213 318h127l162 -156l162 156
h124l-210 -318h-152z" />
    <glyph glyph-name="rcaron" unicode="&#x159;" horiz-adv-x="778" 
d="M733 1034v-182h-141q-75 0 -133 -34.5t-89.5 -94t-31.5 -131.5v-592h-184v1032h182v-123q46 60 116.5 92.5t155.5 32.5h125zM345 1159l-213 318h127l162 -156l162 156h124l-210 -318h-152z" />
    <glyph glyph-name="Sacute" unicode="&#x15a;" horiz-adv-x="1247" 
d="M616 1331q-90 0 -159.5 -32.5t-107.5 -89.5t-38 -128q0 -69 38.5 -121.5t107.5 -76.5q35 -14 76.5 -20t113.5 -12q68 -6 117.5 -13t97.5 -21q134 -42 208.5 -139.5t74.5 -237.5q0 -132 -64.5 -237.5t-182 -165.5t-271.5 -60q-149 0 -269 57.5t-188 161t-68 236.5h195
q0 -79 43.5 -140t119.5 -94.5t171 -33.5q97 0 170 33.5t112 93.5t39 137t-39.5 128t-109.5 77q-38 14 -81 20.5t-119 13.5q-67 6 -115.5 13t-92.5 20q-134 42 -206 139.5t-72 231.5q0 127 63 229t176.5 160t259.5 58q144 0 259.5 -55.5t181.5 -154.5t67 -225h-196
q-3 74 -43 130.5t-109.5 87t-159.5 30.5zM656 1589h-127l112 318h238z" />
    <glyph glyph-name="sacute" unicode="&#x15b;" horiz-adv-x="950" 
d="M479 154q46 0 83.5 11t64 31t41 47t14.5 60q0 34 -13 57.5t-40.5 39t-72 25t-107.5 16.5q-38 5 -66 8.5t-45 7.5q-121 25 -180.5 98t-59.5 179q0 70 29 129t80 101.5t121 66.5t152 24q79 0 147.5 -24.5t118 -67t78 -101t28.5 -127.5h-188q0 33 -14 59.5t-39 45.5
t-60.5 29t-77.5 10q-43 0 -78 -10.5t-60 -29.5t-38.5 -45.5t-13.5 -58.5q0 -49 26.5 -72.5t73 -35t109 -18t135.5 -19.5q118 -23 178.5 -98t60.5 -184q0 -73 -29.5 -134t-82 -104.5t-125.5 -68t-159 -24.5q-82 0 -152.5 25.5t-122 70t-80.5 105.5t-29 133h188
q0 -36 14.5 -65.5t41.5 -49.5t65 -31t84 -11zM507 1159h-127l112 318h238z" />
    <glyph glyph-name="Scircumflex" unicode="&#x15c;" horiz-adv-x="1247" 
d="M616 1331q-90 0 -159.5 -32.5t-107.5 -89.5t-38 -128q0 -69 38.5 -121.5t107.5 -76.5q35 -14 76.5 -20t113.5 -12q68 -6 117.5 -13t97.5 -21q134 -42 208.5 -139.5t74.5 -237.5q0 -132 -64.5 -237.5t-182 -165.5t-271.5 -60q-149 0 -269 57.5t-188 161t-68 236.5h195
q0 -79 43.5 -140t119.5 -94.5t171 -33.5q97 0 170 33.5t112 93.5t39 137t-39.5 128t-109.5 77q-38 14 -81 20.5t-119 13.5q-67 6 -115.5 13t-92.5 20q-134 42 -206 139.5t-72 231.5q0 127 63 229t176.5 160t259.5 58q144 0 259.5 -55.5t181.5 -154.5t67 -225h-196
q-3 74 -43 130.5t-109.5 87t-159.5 30.5zM694 1907l213 -318h-127l-162 156l-162 -156h-124l210 318h152z" />
    <glyph glyph-name="scircumflex" unicode="&#x15d;" horiz-adv-x="950" 
d="M479 154q46 0 83.5 11t64 31t41 47t14.5 60q0 34 -13 57.5t-40.5 39t-72 25t-107.5 16.5q-38 5 -66 8.5t-45 7.5q-121 25 -180.5 98t-59.5 179q0 70 29 129t80 101.5t121 66.5t152 24q79 0 147.5 -24.5t118 -67t78 -101t28.5 -127.5h-188q0 33 -14 59.5t-39 45.5
t-60.5 29t-77.5 10q-43 0 -78 -10.5t-60 -29.5t-38.5 -45.5t-13.5 -58.5q0 -49 26.5 -72.5t73 -35t109 -18t135.5 -19.5q118 -23 178.5 -98t60.5 -184q0 -73 -29.5 -134t-82 -104.5t-125.5 -68t-159 -24.5q-82 0 -152.5 25.5t-122 70t-80.5 105.5t-29 133h188
q0 -36 14.5 -65.5t41.5 -49.5t65 -31t84 -11zM545 1477l213 -318h-127l-162 156l-162 -156h-124l210 318h152z" />
    <glyph glyph-name="Scedilla" unicode="&#x15e;" horiz-adv-x="1247" 
d="M669 -22l-14 -52q67 -10 108.5 -56t41.5 -110q0 -48 -23.5 -87t-65.5 -62t-94 -23h-151v119h141q27 0 44 15t17 38q0 25 -17 40.5t-46 15.5h-109l48 165q-130 14 -231.5 74.5t-158.5 158t-57 218.5h195q0 -79 43.5 -140t119.5 -94.5t171 -33.5q97 0 170 33.5t112 93.5
t39 137t-39.5 128t-109.5 77q-38 14 -81 20.5t-119 13.5q-67 6 -115.5 13t-92.5 20q-134 42 -206 139.5t-72 231.5q0 127 63 229t176.5 160t259.5 58q144 0 259.5 -55.5t181.5 -154.5t67 -225h-196q-3 74 -43 130.5t-109.5 87t-159.5 30.5t-159.5 -32.5t-107.5 -89.5
t-38 -128q0 -69 38.5 -121.5t107.5 -76.5q35 -14 76.5 -20t113.5 -12q68 -6 117.5 -13t97.5 -21q134 -42 208.5 -139.5t74.5 -237.5q0 -126 -59 -228t-167 -164t-250 -70z" />
    <glyph glyph-name="scedilla" unicode="&#x15f;" horiz-adv-x="950" 
d="M531 -20l-15 -54q67 -10 108.5 -56t41.5 -110q0 -48 -23.5 -87t-65.5 -62t-94 -23h-151v119h141q27 0 44 15t17 38q0 25 -17 40.5t-46 15.5h-109l48 165q-94 12 -167.5 57t-115 115.5t-41.5 157.5h188q0 -73 56.5 -115t148.5 -42q61 0 107 19t71 53t25 77q0 89 -104 117
q-41 11 -129 21q-76 8 -111 16q-118 23 -179 96.5t-61 175.5q0 92 47.5 166.5t133 117t194.5 42.5q108 0 194 -40.5t135 -113.5t50 -166h-188q0 66 -53 105t-138 39q-86 0 -138 -40t-52 -104q0 -42 25.5 -70t74.5 -40q26 -7 59 -11.5t65 -7.5q81 -9 120 -16q115 -21 177 -96
t62 -181q0 -88 -41.5 -160t-117.5 -117.5t-176 -55.5z" />
    <glyph glyph-name="Scaron" unicode="&#x160;" horiz-adv-x="1247" 
d="M616 1331q-90 0 -159.5 -32.5t-107.5 -89.5t-38 -128q0 -69 38.5 -121.5t107.5 -76.5q35 -14 76.5 -20t113.5 -12q68 -6 117.5 -13t97.5 -21q134 -42 208.5 -139.5t74.5 -237.5q0 -132 -64.5 -237.5t-182 -165.5t-271.5 -60q-149 0 -269 57.5t-188 161t-68 236.5h195
q0 -79 43.5 -140t119.5 -94.5t171 -33.5q97 0 170 33.5t112 93.5t39 137t-39.5 128t-109.5 77q-38 14 -81 20.5t-119 13.5q-67 6 -115.5 13t-92.5 20q-134 42 -206 139.5t-72 231.5q0 127 63 229t176.5 160t259.5 58q144 0 259.5 -55.5t181.5 -154.5t67 -225h-196
q-3 74 -43 130.5t-109.5 87t-159.5 30.5zM543 1589l-213 318h127l162 -156l162 156h124l-210 -318h-152z" />
    <glyph glyph-name="scaron" unicode="&#x161;" horiz-adv-x="950" 
d="M479 154q46 0 83.5 11t64 31t41 47t14.5 60q0 34 -13 57.5t-40.5 39t-72 25t-107.5 16.5q-38 5 -66 8.5t-45 7.5q-121 25 -180.5 98t-59.5 179q0 70 29 129t80 101.5t121 66.5t152 24q79 0 147.5 -24.5t118 -67t78 -101t28.5 -127.5h-188q0 33 -14 59.5t-39 45.5
t-60.5 29t-77.5 10q-43 0 -78 -10.5t-60 -29.5t-38.5 -45.5t-13.5 -58.5q0 -49 26.5 -72.5t73 -35t109 -18t135.5 -19.5q118 -23 178.5 -98t60.5 -184q0 -73 -29.5 -134t-82 -104.5t-125.5 -68t-159 -24.5q-82 0 -152.5 25.5t-122 70t-80.5 105.5t-29 133h188
q0 -36 14.5 -65.5t41.5 -49.5t65 -31t84 -11zM394 1159l-213 318h127l162 -156l162 156h124l-210 -318h-152z" />
    <glyph glyph-name="uni0162" unicode="&#x162;" horiz-adv-x="1251" 
d="M682 0l-20 -74q67 -10 108.5 -56t41.5 -110q0 -48 -23.5 -87t-65.5 -62t-94 -23h-151v119h141q27 0 44 15t17 38q0 25 -17 40.5t-46 15.5h-109l54 184h-34v1305h-465v190h1125v-190h-465v-1305h-41z" />
    <glyph glyph-name="uni0163" unicode="&#x163;" horiz-adv-x="793" 
d="M367 858v-526q0 -73 41 -115.5t114 -42.5h195v-174h-228l-20 -74q67 -10 108.5 -56t41.5 -110q0 -48 -23.5 -87t-65.5 -62t-94 -23h-151v119h141q27 0 44 15t17 38q0 25 -17 40.5t-46 15.5h-109l59 201q-89 30 -140.5 105.5t-51.5 178.5v557h-141v96l223 277h103v-199
h350v-174h-350z" />
    <glyph glyph-name="Tcaron" unicode="&#x164;" horiz-adv-x="1251" 
d="M528 1305h-465v190h1125v-190h-465v-1305h-195v1305zM550 1589l-213 318h127l162 -156l162 156h124l-210 -318h-152z" />
    <glyph glyph-name="tcaron" unicode="&#x165;" horiz-adv-x="793" 
d="M367 1032h350v-174h-350v-526q0 -73 41 -115.5t114 -42.5h195v-174h-234q-89 0 -157.5 38t-106 106.5t-37.5 156.5v557h-141v96l223 277h103v-199zM690 1458q0 -30 -14 -65l-98 -240h-117l53 189q-36 14 -57 45t-21 71q0 56 35.5 93t91.5 37t91.5 -37t35.5 -93z" />
    <glyph glyph-name="Tbar" unicode="&#x166;" horiz-adv-x="1251" 
d="M723 1305v-476h270v-176h-270v-653h-195v653h-270v176h270v476h-465v190h1125v-190h-465z" />
    <glyph glyph-name="tbar" unicode="&#x167;" horiz-adv-x="793" 
d="M367 858v-223h352v-174h-352v-135q0 -70 40 -111t109 -41h203v-174h-236q-89 0 -157.5 38t-106 106t-37.5 155v162h-141v174h141v223h-141v96l223 277h103v-199h352v-174h-352z" />
    <glyph glyph-name="Utilde" unicode="&#x168;" horiz-adv-x="1448" 
d="M1292 539q0 -158 -73.5 -286.5t-202.5 -202t-289 -73.5q-164 0 -294.5 74t-203.5 202t-73 286v956h194v-950q0 -104 48.5 -190.5t134.5 -136.5t192 -50t192 50t134.5 136.5t48.5 190.5v950h192v-956zM875 1620q-46 0 -82.5 15t-85.5 44q-37 23 -64.5 35t-56.5 12
q-39 0 -59.5 -24.5t-26.5 -77.5h-132q6 140 65.5 198t142.5 58q46 0 83 -15.5t84 -44.5q42 -25 67.5 -36t54.5 -11q39 0 59.5 25t26.5 78h132q-6 -140 -65.5 -198t-142.5 -58z" />
    <glyph glyph-name="utilde" unicode="&#x169;" horiz-adv-x="1180" 
d="M1026 1032v-1032h-184v94q-53 -56 -127 -86.5t-160 -30.5q-117 0 -210 53.5t-145.5 147t-52.5 207.5v647h185v-620q0 -71 31.5 -129t90 -91.5t134.5 -33.5q74 0 132 34t90 93t32 131v616h184zM738 1190q-46 0 -82.5 15t-85.5 44q-37 23 -64.5 35t-56.5 12
q-39 0 -59.5 -24.5t-26.5 -77.5h-132q6 140 65.5 198t142.5 58q46 0 83 -15.5t84 -44.5q42 -25 67.5 -36t54.5 -11q39 0 59.5 25t26.5 78h132q-6 -140 -65.5 -198t-142.5 -58z" />
    <glyph glyph-name="Umacron" unicode="&#x16a;" horiz-adv-x="1448" 
d="M1292 539q0 -158 -73.5 -286.5t-202.5 -202t-289 -73.5q-164 0 -294.5 74t-203.5 202t-73 286v956h194v-950q0 -104 48.5 -190.5t134.5 -136.5t192 -50t192 50t134.5 136.5t48.5 190.5v950h192v-956zM1014 1823v-150h-578v150h578z" />
    <glyph glyph-name="umacron" unicode="&#x16b;" horiz-adv-x="1180" 
d="M1026 1032v-1032h-184v94q-53 -56 -127 -86.5t-160 -30.5q-117 0 -210 53.5t-145.5 147t-52.5 207.5v647h185v-620q0 -71 31.5 -129t90 -91.5t134.5 -33.5q74 0 132 34t90 93t32 131v616h184zM877 1393v-150h-578v150h578z" />
    <glyph glyph-name="Ubreve" unicode="&#x16c;" horiz-adv-x="1448" 
d="M1292 539q0 -158 -73.5 -286.5t-202.5 -202t-289 -73.5q-164 0 -294.5 74t-203.5 202t-73 286v956h194v-950q0 -104 48.5 -190.5t134.5 -136.5t192 -50t192 50t134.5 136.5t48.5 190.5v950h192v-956zM725 1593q-92 0 -158 39t-102 107.5t-39 156.5h139q6 -76 45.5 -121
t114.5 -45q76 0 116.5 45t45.5 121h137q-2 -88 -37.5 -156.5t-102.5 -107.5t-159 -39z" />
    <glyph glyph-name="ubreve" unicode="&#x16d;" horiz-adv-x="1180" 
d="M1026 1032v-1032h-184v94q-53 -56 -127 -86.5t-160 -30.5q-117 0 -210 53.5t-145.5 147t-52.5 207.5v647h185v-620q0 -71 31.5 -129t90 -91.5t134.5 -33.5q74 0 132 34t90 93t32 131v616h184zM588 1163q-92 0 -158 39t-102 107.5t-39 156.5h139q6 -76 45.5 -121
t114.5 -45q76 0 116.5 45t45.5 121h137q-2 -88 -37.5 -156.5t-102.5 -107.5t-159 -39z" />
    <glyph glyph-name="Uring" unicode="&#x16e;" horiz-adv-x="1448" 
d="M1292 539q0 -158 -73.5 -286.5t-202.5 -202t-289 -73.5q-164 0 -294.5 74t-203.5 202t-73 286v956h194v-950q0 -104 48.5 -190.5t134.5 -136.5t192 -50t192 50t134.5 136.5t48.5 190.5v950h192v-956zM725 1937q69 0 123 -31t84.5 -85t30.5 -119q0 -66 -30.5 -120.5
t-84.5 -86t-123 -31.5q-68 0 -122 31.5t-84.5 86t-30.5 120.5q0 65 30.5 119t84.5 85t122 31zM725 1581q53 0 85 35t32 86q0 49 -32.5 84t-84.5 35t-84 -35t-32 -84q0 -51 32 -86t84 -35z" />
    <glyph glyph-name="uring" unicode="&#x16f;" horiz-adv-x="1180" 
d="M1026 1032v-1032h-184v94q-53 -56 -127 -86.5t-160 -30.5q-117 0 -210 53.5t-145.5 147t-52.5 207.5v647h185v-620q0 -71 31.5 -129t90 -91.5t134.5 -33.5q74 0 132 34t90 93t32 131v616h184zM588 1595q69 0 123 -31t84.5 -85t30.5 -119q0 -66 -30.5 -120.5t-84.5 -86
t-123 -31.5q-68 0 -122 31.5t-84.5 86t-30.5 120.5q0 65 30.5 119t84.5 85t122 31zM588 1239q53 0 85 35t32 86q0 49 -32.5 84t-84.5 35t-84 -35t-32 -84q0 -51 32 -86t84 -35z" />
    <glyph glyph-name="Uhungarumlaut" unicode="&#x170;" horiz-adv-x="1448" 
d="M1292 539q0 -158 -73.5 -286.5t-202.5 -202t-289 -73.5q-164 0 -294.5 74t-203.5 202t-73 286v956h194v-950q0 -104 48.5 -190.5t134.5 -136.5t192 -50t192 50t134.5 136.5t48.5 190.5v950h192v-956zM594 1589h-127l144 318h210zM899 1589h-127l154 318h211z" />
    <glyph glyph-name="uhungarumlaut" unicode="&#x171;" horiz-adv-x="1180" 
d="M1026 1032v-1032h-184v94q-53 -56 -127 -86.5t-160 -30.5q-117 0 -210 53.5t-145.5 147t-52.5 207.5v647h185v-620q0 -71 31.5 -129t90 -91.5t134.5 -33.5q74 0 132 34t90 93t32 131v616h184zM457 1159h-127l144 318h210zM762 1159h-127l154 318h211z" />
    <glyph glyph-name="Uogonek" unicode="&#x172;" horiz-adv-x="1448" 
d="M1292 1495v-956q0 -155 -73 -283t-195 -199l-141 -84q-86 -48 -121 -84.5t-35 -70.5q0 -32 20.5 -52t63.5 -20h86v-145h-141q-67 0 -113.5 24.5t-70 66t-23.5 91.5q0 53 25 102t79 96q-145 16 -258 93t-176 198.5t-63 266.5v956h194v-948q0 -105 48.5 -191t135 -136
t193.5 -50q106 0 192 50t134.5 136.5t48.5 190.5v948h190z" />
    <glyph glyph-name="uogonek" unicode="&#x173;" horiz-adv-x="1180" 
d="M856 -193q0 -27 18.5 -44t59.5 -17h92v-145h-142q-67 0 -113.5 24.5t-69.5 66.5t-23 93q0 64 38.5 123t125.5 123v63q-53 -56 -127 -86.5t-160 -30.5q-117 0 -210 53.5t-145.5 147t-52.5 207.5v647h185v-620q0 -71 31.5 -129t90 -91.5t134.5 -33.5q74 0 132 34t90 93
t32 131v616h184v-1032q-73 -55 -109 -88.5t-48.5 -56.5t-12.5 -48z" />
    <glyph glyph-name="Wcircumflex" unicode="&#x174;" horiz-adv-x="1987" 
d="M1745 1495h199l-443 -1495h-198l-311 1053l-312 -1053h-199l-438 1495h203l339 -1177l341 1177h137l339 -1174zM1069 1907l213 -318h-127l-162 156l-162 -156h-124l210 318h152z" />
    <glyph glyph-name="wcircumflex" unicode="&#x175;" horiz-adv-x="1554" 
d="M1513 1032l-342 -1032h-186l-210 654l-210 -654h-182l-342 1032h195l241 -752l242 752h119l237 -738l246 738h192zM854 1477l213 -318h-127l-162 156l-162 -156h-124l210 318h152z" />
    <glyph glyph-name="Ycircumflex" unicode="&#x176;" horiz-adv-x="1307" 
d="M557 512l-530 983h215l413 -768l416 768h209l-528 -981v-514h-195v512zM729 1907l213 -318h-127l-162 156l-162 -156h-124l210 318h152z" />
    <glyph glyph-name="ycircumflex" unicode="&#x177;" horiz-adv-x="1051" 
d="M1018 1032l-569 -1466h-197l174 450l-393 1016h200l292 -761l294 761h199zM600 1477l213 -318h-127l-162 156l-162 -156h-124l210 318h152z" />
    <glyph glyph-name="Ydieresis" unicode="&#x178;" horiz-adv-x="1307" 
d="M557 512l-530 983h215l413 -768l416 768h209l-528 -981v-514h-195v512zM457 1874q54 0 89.5 -36t35.5 -89t-35.5 -89t-89.5 -36q-55 0 -90 36t-35 89t35 89t90 36zM850 1874q55 0 90 -36t35 -89t-35 -89t-90 -36t-90 36t-35 89t35 89t90 36z" />
    <glyph glyph-name="Zacute" unicode="&#x179;" horiz-adv-x="1393" 
d="M117 0v178l911 1127h-911v190h1159v-178l-911 -1127h911v-190h-1159zM734 1589h-127l112 318h238z" />
    <glyph glyph-name="zacute" unicode="&#x17a;" horiz-adv-x="1110" 
d="M96 0v168l668 690h-668v174h918v-168l-668 -690h668v-174h-918zM581 1159h-127l112 318h238z" />
    <glyph glyph-name="Zdotaccent" unicode="&#x17b;" horiz-adv-x="1393" 
d="M117 0v178l911 1127h-911v190h1159v-178l-911 -1127h911v-190h-1159zM696 1876q55 0 91 -36.5t36 -90.5t-36 -90.5t-91 -36.5t-91 36.5t-36 90.5t36 90.5t91 36.5z" />
    <glyph glyph-name="zdotaccent" unicode="&#x17c;" horiz-adv-x="1110" 
d="M96 0v168l668 690h-668v174h918v-168l-668 -690h668v-174h-918zM543 1446q55 0 91 -36.5t36 -90.5t-36 -90.5t-91 -36.5t-91 36.5t-36 90.5t36 90.5t91 36.5z" />
    <glyph glyph-name="Zcaron" unicode="&#x17d;" horiz-adv-x="1393" 
d="M117 0v178l911 1127h-911v190h1159v-178l-911 -1127h911v-190h-1159zM621 1589l-213 318h127l162 -156l162 156h124l-210 -318h-152z" />
    <glyph glyph-name="zcaron" unicode="&#x17e;" horiz-adv-x="1110" 
d="M96 0v168l668 690h-668v174h918v-168l-668 -690h668v-174h-918zM468 1159l-213 318h127l162 -156l162 156h124l-210 -318h-152z" />
    <glyph glyph-name="longs" unicode="&#x17f;" horiz-adv-x="692" 
d="M242 858h-215v174h215v248q0 83 35 147t99 99t148 35h185v-175h-162q-55 0 -88 -33.5t-33 -88.5v-1264h-184v858z" />
    <glyph glyph-name="florin" unicode="&#x192;" horiz-adv-x="952" 
d="M545 1186v-193h284v-172h-284v-536q0 -84 -35.5 -149t-100 -100.5t-149.5 -35.5h-104v174h71q63 0 99 36.5t36 98.5v512h-206v172h206v217q0 84 36 149t101 100.5t150 35.5h180v-174h-147q-63 0 -100 -36.5t-37 -98.5z" />
    <glyph glyph-name="AEacute" unicode="&#x1fc;" horiz-adv-x="1989" 
d="M1063 1305v-459h467v-191h-467v-465h809v-190h-1004v279h-507l-148 -279h-203l795 1495h1067v-190h-809zM868 465v770l-408 -770h408zM1326 1589h-127l112 318h238z" />
    <glyph glyph-name="aeacute" unicode="&#x1fd;" horiz-adv-x="1806" 
d="M1716 432h-804q14 -80 59 -142.5t114 -97t154 -34.5q90 0 164 40.5t121 111.5l150 -98q-70 -109 -184 -172t-253 -63q-124 0 -228 51t-174 142q-53 -90 -149.5 -141.5t-224.5 -51.5q-112 0 -195 39.5t-127.5 110t-44.5 160.5q0 137 93.5 216.5t261.5 94.5l284 29v51
q0 56 -28.5 100.5t-79 70t-113.5 25.5q-85 0 -144.5 -45t-70.5 -118h-180q7 99 59 177t139.5 122.5t196.5 44.5q111 0 198.5 -44t140.5 -123q68 79 164 123t208 44q146 0 259.5 -70.5t176.5 -193.5t63 -275q0 -43 -6 -84zM910 596h625q-12 84 -54 147t-108.5 97t-149.5 34
q-128 0 -212 -75t-101 -203zM733 362v112l-260 -25q-97 -11 -145.5 -52t-48.5 -108q0 -42 22.5 -76t66 -54t103.5 -20q76 0 136 30t93 81t33 112zM931 1159h-127l112 318h238z" />
    <glyph glyph-name="Oslashacute" unicode="&#x1fe;" horiz-adv-x="1733" 
d="M1632 748q0 -221 -98 -396.5t-273 -275t-395 -99.5q-116 0 -221 28.5t-194 82.5l-154 -197l-123 97l153 196q-109 104 -168 249t-59 315q0 220 98.5 395.5t273 275t394.5 99.5q116 0 221 -28.5t194 -82.5l153 197l122 -97l-152 -195q109 -104 168.5 -249t59.5 -315z
M448 339l712 914q-132 74 -294 74q-165 0 -295.5 -75t-203 -207t-72.5 -297q0 -121 39.5 -226t113.5 -183zM1438 748q0 121 -40.5 226t-114.5 183l-712 -914q131 -75 295 -75q165 0 295.5 75t203.5 207.5t73 297.5zM906 1589h-127l112 318h238z" />
    <glyph glyph-name="oslashacute" unicode="&#x1ff;" horiz-adv-x="1241" 
d="M1157 516q0 -149 -69.5 -272.5t-191.5 -195t-275 -71.5q-160 0 -286 78l-118 -149l-115 90l120 152q-66 73 -102 167.5t-36 200.5q0 149 69.5 272.5t192 195t275.5 71.5q143 0 262 -64l112 142l117 -93l-109 -139q74 -74 114 -173t40 -212zM337 295l431 549
q-68 28 -147 28q-103 0 -183.5 -45.5t-125 -126.5t-44.5 -184q0 -64 18 -120t51 -101zM973 516q0 71 -22 132.5t-62 108.5l-440 -557q77 -40 172 -40q103 0 183 45.5t124.5 127t44.5 183.5zM646 1159h-127l112 318h238z" />
    <glyph glyph-name="Scommaaccent" unicode="&#x218;" horiz-adv-x="1247" 
d="M616 1331q-90 0 -159.5 -32.5t-107.5 -89.5t-38 -128q0 -69 38.5 -121.5t107.5 -76.5q35 -14 76.5 -20t113.5 -12q68 -6 117.5 -13t97.5 -21q134 -42 208.5 -139.5t74.5 -237.5q0 -132 -64.5 -237.5t-182 -165.5t-271.5 -60q-149 0 -269 57.5t-188 161t-68 236.5h195
q0 -79 43.5 -140t119.5 -94.5t171 -33.5q97 0 170 33.5t112 93.5t39 137t-39.5 128t-109.5 77q-38 14 -81 20.5t-119 13.5q-67 6 -115.5 13t-92.5 20q-134 42 -206 139.5t-72 231.5q0 127 63 229t176.5 160t259.5 58q144 0 259.5 -55.5t181.5 -154.5t67 -225h-196
q-3 74 -43 130.5t-109.5 87t-159.5 30.5zM745 -193q0 -30 -14 -65l-98 -240h-117l53 189q-36 14 -57 45t-21 71q0 56 35.5 93t91.5 37t91.5 -37t35.5 -93z" />
    <glyph glyph-name="scommaaccent" unicode="&#x219;" horiz-adv-x="950" 
d="M479 154q46 0 83.5 11t64 31t41 47t14.5 60q0 34 -13 57.5t-40.5 39t-72 25t-107.5 16.5q-38 5 -66 8.5t-45 7.5q-121 25 -180.5 98t-59.5 179q0 70 29 129t80 101.5t121 66.5t152 24q79 0 147.5 -24.5t118 -67t78 -101t28.5 -127.5h-188q0 33 -14 59.5t-39 45.5
t-60.5 29t-77.5 10q-43 0 -78 -10.5t-60 -29.5t-38.5 -45.5t-13.5 -58.5q0 -49 26.5 -72.5t73 -35t109 -18t135.5 -19.5q118 -23 178.5 -98t60.5 -184q0 -73 -29.5 -134t-82 -104.5t-125.5 -68t-159 -24.5q-82 0 -152.5 25.5t-122 70t-80.5 105.5t-29 133h188
q0 -36 14.5 -65.5t41.5 -49.5t65 -31t84 -11zM606 -193q0 -30 -14 -65l-98 -240h-117l53 189q-36 14 -57 45t-21 71q0 56 35.5 93t91.5 37t91.5 -37t35.5 -93z" />
    <glyph glyph-name="uni021A" unicode="&#x21a;" horiz-adv-x="1251" 
d="M528 1305h-465v190h1125v-190h-465v-1305h-195v1305zM752 -193q0 -30 -14 -65l-98 -240h-117l53 189q-36 14 -57 45t-21 71q0 56 35.5 93t91.5 37t91.5 -37t35.5 -93z" />
    <glyph glyph-name="uni021B" unicode="&#x21b;" horiz-adv-x="793" 
d="M367 1032h350v-174h-350v-526q0 -73 41 -115.5t114 -42.5h195v-174h-234q-89 0 -157.5 38t-106 106.5t-37.5 156.5v557h-141v96l223 277h103v-199zM559 -193q0 -30 -14 -65l-98 -240h-117l53 189q-36 14 -57 45t-21 71q0 56 35.5 93t91.5 37t91.5 -37t35.5 -93z" />
    <glyph glyph-name="uni0237" unicode="&#x237;" 
d="M338 1032v-1229q0 -71 -29 -124.5t-82.5 -83t-124.5 -29.5h-110v174h71q43 0 67 25t24 67v1200h184z" />
    <glyph glyph-name="circumflex" unicode="&#x2c6;" horiz-adv-x="1303" 
d="M727 1477l213 -318h-127l-162 156l-162 -156h-124l210 318h152z" />
    <glyph glyph-name="caron" unicode="&#x2c7;" horiz-adv-x="1303" 
d="M576 1159l-213 318h127l162 -156l162 156h124l-210 -318h-152z" />
    <glyph glyph-name="breve" unicode="&#x2d8;" horiz-adv-x="1298" 
d="M649 1163q-92 0 -158 39t-102 107.5t-39 156.5h139q6 -76 45.5 -121t114.5 -45q76 0 116.5 45t45.5 121h137q-2 -88 -37.5 -156.5t-102.5 -107.5t-159 -39z" />
    <glyph glyph-name="dotaccent" unicode="&#x2d9;" horiz-adv-x="1303" 
d="M651 1446q55 0 91 -36.5t36 -90.5t-36 -90.5t-91 -36.5t-91 36.5t-36 90.5t36 90.5t91 36.5z" />
    <glyph glyph-name="ring" unicode="&#x2da;" horiz-adv-x="1303" 
d="M651 1595q69 0 123 -31t84.5 -85t30.5 -119q0 -66 -30.5 -120.5t-84.5 -86t-123 -31.5q-68 0 -122 31.5t-84.5 86t-30.5 120.5q0 65 30.5 119t84.5 85t122 31zM651 1239q53 0 85 35t32 86q0 49 -32.5 84t-84.5 35t-84 -35t-32 -84q0 -51 32 -86t84 -35z" />
    <glyph glyph-name="ogonek" unicode="&#x2db;" horiz-adv-x="1305" 
d="M713 -193q0 -27 18.5 -44t59.5 -17h92v-145h-142q-67 0 -113.5 24.5t-69.5 66.5t-23 93q0 70 48 136t158 140l111 -2l31 -59q-73 -55 -109 -88.5t-48.5 -56.5t-12.5 -48z" />
    <glyph glyph-name="tilde" unicode="&#x2dc;" horiz-adv-x="1303" 
d="M801 1190q-46 0 -82.5 15t-85.5 44q-37 23 -64.5 35t-56.5 12q-39 0 -59.5 -24.5t-26.5 -77.5h-132q6 140 65.5 198t142.5 58q46 0 83 -15.5t84 -44.5q42 -25 67.5 -36t54.5 -11q39 0 59.5 25t26.5 78h132q-6 -140 -65.5 -198t-142.5 -58z" />
    <glyph glyph-name="hungarumlaut" unicode="&#x2dd;" horiz-adv-x="1303" 
d="M518 1159h-127l144 318h210zM823 1159h-127l154 318h211z" />
    <glyph glyph-name="uni0307" unicode="&#x307;" horiz-adv-x="498" 
d="M0 1528q58 0 94.5 -37.5t36.5 -93.5t-36.5 -93.5t-94.5 -37.5t-94.5 37.5t-36.5 93.5t36.5 93.5t94.5 37.5z" />
    <glyph glyph-name="uni0326" unicode="&#x326;" horiz-adv-x="0" 
d="M-525 -193q0 -30 -14 -65l-98 -240h-117l53 189q-36 14 -57 45t-21 71q0 56 35.5 93t91.5 37t91.5 -37t35.5 -93z" />
    <glyph glyph-name="uni0394" unicode="&#x394;" horiz-adv-x="1313" 
d="M1274 0h-1235l520 1495h199zM1006 190l-351 1016l-350 -1016h701z" />
    <glyph glyph-name="uni03A9" unicode="&#x3a9;" horiz-adv-x="1399" 
d="M104 190h302q-141 229 -212 406.5t-71 325.5q0 167 71.5 303t202 214.5t301.5 78.5q172 0 303 -78.5t202 -214.5t71 -303q0 -148 -70.5 -325.5t-210.5 -406.5h301v-190h-512v176q148 244 222.5 424t74.5 315q0 116 -46.5 209.5t-133 147t-201.5 53.5t-201.5 -53.5
t-133 -147t-46.5 -209.5q0 -134 75 -313.5t224 -425.5v-176h-512v190z" />
    <glyph glyph-name="uni03BC" unicode="&#x3bc;" horiz-adv-x="1178" 
d="M1024 1032v-1032h-182v96q-53 -57 -126.5 -88t-160.5 -31q-121 0 -218 58l17 -469h-200v1466h184v-629q0 -69 30.5 -124.5t87 -88t130.5 -32.5q75 0 132.5 33.5t89.5 91t32 127.5v622h184z" />
    <glyph glyph-name="pi" unicode="&#x3c0;" horiz-adv-x="1286" 
d="M254 858h-188v174h1144v-174h-190v-590q0 -43 25 -68.5t69 -25.5h96v-174h-133q-72 0 -126.5 29.5t-84.5 84t-30 126.5v618h-398v-858h-184v858z" />
    <glyph glyph-name="Wgrave" unicode="&#x1e80;" horiz-adv-x="1987" 
d="M1745 1495h199l-443 -1495h-198l-311 1053l-312 -1053h-199l-438 1495h203l339 -1177l341 1177h137l339 -1174zM975 1907l112 -318h-127l-223 318h238z" />
    <glyph glyph-name="wgrave" unicode="&#x1e81;" horiz-adv-x="1554" 
d="M1513 1032l-342 -1032h-186l-210 654l-210 -654h-182l-342 1032h195l241 -752l242 752h119l237 -738l246 738h192zM760 1477l112 -318h-127l-223 318h238z" />
    <glyph glyph-name="Wacute" unicode="&#x1e82;" horiz-adv-x="1987" 
d="M1745 1495h199l-443 -1495h-198l-311 1053l-312 -1053h-199l-438 1495h203l339 -1177l341 1177h137l339 -1174zM1031 1589h-127l112 318h238z" />
    <glyph glyph-name="wacute" unicode="&#x1e83;" horiz-adv-x="1554" 
d="M1513 1032l-342 -1032h-186l-210 654l-210 -654h-182l-342 1032h195l241 -752l242 752h119l237 -738l246 738h192zM816 1159h-127l112 318h238z" />
    <glyph glyph-name="Wdieresis" unicode="&#x1e84;" horiz-adv-x="1987" 
d="M1745 1495h199l-443 -1495h-198l-311 1053l-312 -1053h-199l-438 1495h203l339 -1177l341 1177h137l339 -1174zM797 1874q54 0 89.5 -36t35.5 -89t-35.5 -89t-89.5 -36q-55 0 -90 36t-35 89t35 89t90 36zM1190 1874q55 0 90 -36t35 -89t-35 -89t-90 -36t-90 36t-35 89
t35 89t90 36z" />
    <glyph glyph-name="wdieresis" unicode="&#x1e85;" horiz-adv-x="1554" 
d="M1513 1032l-342 -1032h-186l-210 654l-210 -654h-182l-342 1032h195l241 -752l242 752h119l237 -738l246 738h192zM582 1444q54 0 89.5 -36t35.5 -89t-35.5 -89t-89.5 -36q-55 0 -90 36t-35 89t35 89t90 36zM975 1444q55 0 90 -36t35 -89t-35 -89t-90 -36t-90 36t-35 89
t35 89t90 36z" />
    <glyph glyph-name="Ygrave" unicode="&#x1ef2;" horiz-adv-x="1307" 
d="M557 512l-530 983h215l413 -768l416 768h209l-528 -981v-514h-195v512zM635 1907l112 -318h-127l-223 318h238z" />
    <glyph glyph-name="ygrave" unicode="&#x1ef3;" horiz-adv-x="1051" 
d="M1018 1032l-569 -1466h-197l174 450l-393 1016h200l292 -761l294 761h199zM506 1477l112 -318h-127l-223 318h238z" />
    <glyph glyph-name="endash" unicode="&#x2013;" horiz-adv-x="1057" 
d="M969 668v-172h-881v172h881z" />
    <glyph glyph-name="emdash" unicode="&#x2014;" horiz-adv-x="1618" 
d="M1550 664v-164h-1482v164h1482z" />
    <glyph glyph-name="quoteleft" unicode="&#x2018;" horiz-adv-x="510" 
d="M373 1075q0 -55 -36.5 -91t-92.5 -36q-57 0 -92 35.5t-35 91.5q0 25 8 49l127 371h129l-82 -304q34 -15 54 -46t20 -70z" />
    <glyph glyph-name="quoteright" unicode="&#x2019;" horiz-adv-x="510" 
d="M393 1391q0 -25 -8 -49l-127 -371h-129l82 304q-34 15 -54 46t-20 70q0 55 36.5 91t92.5 36q57 0 92 -35.5t35 -91.5z" />
    <glyph glyph-name="quotesinglbase" unicode="&#x201a;" horiz-adv-x="510" 
d="M393 244q0 -25 -8 -49l-127 -371h-129l82 304q-34 15 -54 46t-20 70q0 55 36.5 91t92.5 36q57 0 92 -35.5t35 -91.5z" />
    <glyph glyph-name="quotedblleft" unicode="&#x201c;" horiz-adv-x="850" 
d="M713 1075q0 -55 -36.5 -91t-92.5 -36q-57 0 -92 35.5t-35 91.5q0 25 8 49l127 371h129l-82 -304q34 -15 54 -46t20 -70zM373 1075q0 -55 -36.5 -91t-92.5 -36q-57 0 -92 35.5t-35 91.5q0 25 8 49l127 371h129l-82 -304q34 -15 54 -46t20 -70z" />
    <glyph glyph-name="quotedblright" unicode="&#x201d;" horiz-adv-x="848" 
d="M393 1391q0 -25 -8 -49l-127 -371h-129l82 304q-34 15 -54 46t-20 70q0 55 36.5 91t92.5 36q57 0 92 -35.5t35 -91.5zM731 1391q0 -25 -8 -49l-127 -371h-129l82 304q-34 15 -54 46t-20 70q0 55 36.5 91t92.5 36q57 0 92 -35.5t35 -91.5z" />
    <glyph glyph-name="quotedblbase" unicode="&#x201e;" horiz-adv-x="848" 
d="M393 244q0 -25 -8 -49l-127 -371h-129l82 304q-34 15 -54 46t-20 70q0 55 36.5 91t92.5 36q57 0 92 -35.5t35 -91.5zM731 244q0 -25 -8 -49l-127 -371h-129l82 304q-34 15 -54 46t-20 70q0 55 36.5 91t92.5 36q57 0 92 -35.5t35 -91.5z" />
    <glyph glyph-name="dagger" unicode="&#x2020;" horiz-adv-x="1184" 
d="M133 885v174h371v436h176v-436h371v-174h-371v-1174h-176v1174h-371z" />
    <glyph glyph-name="daggerdbl" unicode="&#x2021;" horiz-adv-x="1184" 
d="M680 885v-563h371v-175h-371v-436h-176v436h-371v175h371v563h-371v174h371v436h176v-436h371v-174h-371z" />
    <glyph glyph-name="bullet" unicode="&#x2022;" horiz-adv-x="782" 
d="M391 846q65 0 118 -31t83.5 -84t30.5 -117q0 -63 -30.5 -116t-83.5 -84t-118 -31t-118 31t-83 84t-30 116q0 64 30 117t83 84t118 31z" />
    <glyph glyph-name="ellipsis" unicode="&#x2026;" horiz-adv-x="1548" 
d="M268 254q59 0 96 -37.5t37 -95.5t-37 -95.5t-96 -37.5q-58 0 -95.5 38t-37.5 95t37.5 95t95.5 38zM774 254q59 0 96 -37.5t37 -95.5t-37 -95.5t-96 -37.5q-58 0 -95.5 38t-37.5 95t37.5 95t95.5 38zM1280 254q59 0 96 -37.5t37 -95.5t-37 -95.5t-96 -37.5q-58 0 -95.5 38
t-37.5 95t37.5 95t95.5 38z" />
    <glyph glyph-name="perthousand" unicode="&#x2030;" horiz-adv-x="2824" 
d="M449 1518q110 0 197.5 -50.5t137.5 -138.5t50 -196q0 -109 -49.5 -197t-137.5 -138t-198 -50t-198 50t-138 138t-50 197q0 108 50 196t138 138.5t198 50.5zM1399 1495h205l-1117 -1495h-204zM449 918q61 0 110 27.5t77 76.5t28 111q0 61 -28 110t-77 77t-110 28
q-62 0 -111 -28t-77 -77t-28 -110q0 -62 28 -111t77 -76.5t111 -27.5zM1438 750q110 0 197.5 -50.5t137.5 -138.5t50 -196q0 -109 -49.5 -197t-137.5 -138t-198 -50t-198 50t-137.5 138t-49.5 197q0 108 49.5 196t137.5 138.5t198 50.5zM2376 750q110 0 197.5 -50.5
t137.5 -138.5t50 -196q0 -109 -49.5 -197t-137.5 -138t-198 -50t-198 50t-137.5 138t-49.5 197q0 108 49.5 196t137.5 138.5t198 50.5zM1438 150q62 0 111 27.5t76.5 76.5t27.5 111q0 61 -27.5 110t-76.5 77t-111 28t-111 -28t-76.5 -77t-27.5 -110q0 -62 27.5 -111
t76.5 -76.5t111 -27.5zM2376 150q62 0 111 27.5t76.5 76.5t27.5 111q0 61 -27.5 110t-76.5 77t-111 28t-111 -28t-76.5 -77t-27.5 -110q0 -62 27.5 -111t76.5 -76.5t111 -27.5z" />
    <glyph glyph-name="guilsinglleft" unicode="&#x2039;" horiz-adv-x="733" 
d="M399 934h199l-285 -387l285 -387h-199l-282 387z" />
    <glyph glyph-name="guilsinglright" unicode="&#x203a;" horiz-adv-x="733" 
d="M334 162h-199l285 387l-285 387h199l282 -387z" />
    <glyph glyph-name="fraction" unicode="&#x2044;" horiz-adv-x="446" 
d="M553 1495h176l-835 -1495h-177z" />
    <glyph glyph-name="four.sups" unicode="&#x2074;" horiz-adv-x="801" 
d="M735 1184v-142h-135v-237h-151v237h-373v115l358 516h166v-489h135zM449 1184v295l-205 -295h205z" />
    <glyph glyph-name="Euro" unicode="&#x20ac;" horiz-adv-x="1257" 
d="M952 375h189q-8 -113 -67 -204t-157 -142.5t-219 -51.5q-135 0 -237 60.5t-157.5 167t-55.5 239.5v66h-162v158h162v161h-162v158h162v64q0 133 55.5 239.5t157.5 167t237 60.5q121 0 219 -51.5t157 -142.5t67 -204h-189q-17 97 -84 154t-172 57q-89 0 -147.5 -39.5
t-85.5 -105.5t-27 -146v-53h518l-80 -158h-438v-161h357l-80 -158h-277v-55q0 -80 27 -146t85.5 -105.5t147.5 -39.5q105 0 172 57t84 154z" />
    <glyph glyph-name="uni2113" unicode="&#x2113;" horiz-adv-x="868" 
d="M119 431q78 74 114 110v503q0 134 37 228.5t100.5 142t143.5 47.5q68 0 118.5 -36.5t77.5 -105t27 -161.5q0 -308 -309 -639v-129q0 -145 28.5 -205.5t90.5 -60.5q45 0 85.5 27.5t86.5 80.5l72 -94q-115 -166 -287 -166q-134 0 -201 89.5t-67 240.5v68q-70 -76 -95 -90
l-63 110zM520 1319q-42 0 -67 -65t-25 -193v-352q78 106 122 224.5t44 225.5q0 74 -19.5 117t-54.5 43z" />
    <glyph glyph-name="trademark" unicode="&#x2122;" horiz-adv-x="1348" 
d="M264 1372h-184v123h493v-123h-182v-467h-127v467zM674 1495h125l164 -340l161 340h127v-588h-127v334l-161 -342l-166 342v-334h-123v588z" />
    <glyph glyph-name="uni2126" unicode="&#x2126;" horiz-adv-x="1399" 
d="M104 190h302q-141 229 -212 406.5t-71 325.5q0 167 71.5 303t202 214.5t301.5 78.5q172 0 303 -78.5t202 -214.5t71 -303q0 -148 -70.5 -325.5t-210.5 -406.5h301v-190h-512v176q148 244 222.5 424t74.5 315q0 116 -46.5 209.5t-133 147t-201.5 53.5t-201.5 -53.5
t-133 -147t-46.5 -209.5q0 -134 75 -313.5t224 -425.5v-176h-512v190z" />
    <glyph glyph-name="estimated" unicode="&#x212e;" horiz-adv-x="1481" 
d="M1214 252l66 -14q-99 -131 -234 -201t-303 -70q-187 0 -336.5 83.5t-233 227t-83.5 316.5q0 174 84 318.5t232.5 228.5t334.5 84q177 0 325.5 -73.5t236.5 -209t88 -313.5q0 -22 -4 -31t-15.5 -11.5t-40.5 -2.5h-923q-34 0 -46 -3.5t-15 -14.5t-3 -44v-254
q0 -80 64.5 -135.5t158.5 -82.5t183 -27q131 0 257.5 58.5t206.5 170.5zM1139 702v242q0 62 -54 113.5t-146 81.5t-200 30q-106 0 -197 -30t-144.5 -81.5t-53.5 -113.5v-242q0 -33 3 -44.5t15 -15t46 -3.5h667q34 0 46 3.5t15 15t3 44.5z" />
    <glyph glyph-name="arrowleft" unicode="&#x2190;" horiz-adv-x="1937" 
d="M976 1556l121 -120l-604 -605h1249v-167h-1249l604 -605l-121 -120l-808 809z" />
    <glyph glyph-name="arrowup" unicode="&#x2191;" horiz-adv-x="1937" 
d="M1784 729l-121 -121l-610 611v-1250h-168v1250l-611 -611l-120 121l815 815z" />
    <glyph glyph-name="arrowright" unicode="&#x2192;" horiz-adv-x="1937" 
d="M961 -61l-121 120l604 605h-1249v167h1249l-604 605l121 120l808 -808z" />
    <glyph glyph-name="arrowdown" unicode="&#x2193;" horiz-adv-x="1937" 
d="M153 766l121 121l610 -611v1250h168v-1250l611 611l120 -121l-815 -815z" />
    <glyph glyph-name="uni2196" unicode="&#x2196;" horiz-adv-x="1937" 
d="M1560 1321v-170h-864l883 -883l-121 -121l-883 883v-864h-170v1155h1155z" />
    <glyph glyph-name="uni2197" unicode="&#x2197;" horiz-adv-x="1937" 
d="M1532 166h-170v864l-883 -883l-121 121l883 883h-864v170h1155v-1155z" />
    <glyph glyph-name="uni2198" unicode="&#x2198;" horiz-adv-x="1937" 
d="M377 174v170h864l-883 883l121 121l883 -883v864h170v-1155h-1155z" />
    <glyph glyph-name="uni2199" unicode="&#x2199;" horiz-adv-x="1937" 
d="M405 1329h170v-864l883 883l121 -121l-883 -883h864v-170h-1155v1155z" />
    <glyph glyph-name="partialdiff" unicode="&#x2202;" horiz-adv-x="1290" 
d="M1155 795q0 -217 -60.5 -403t-187 -300.5t-313.5 -114.5q-136 0 -245 66t-170.5 179t-61.5 247q0 136 63 248.5t172 178t240 65.5q121 0 223 -55.5t162 -152.5v1q0 271 -97.5 425t-297.5 154q-139 0 -275 -82l-87 160q83 52 167.5 79.5t187.5 27.5q188 0 318.5 -92.5
t196 -256t65.5 -374.5zM941 520q-55 120 -142 189t-195 69q-85 0 -153 -40.5t-106 -111.5t-38 -157t37.5 -156.5t104.5 -110.5t151 -40q134 0 222.5 98.5t118.5 259.5z" />
    <glyph glyph-name="uni2206" unicode="&#x2206;" horiz-adv-x="1313" 
d="M1274 0h-1235l520 1495h199zM1006 190l-351 1016l-350 -1016h701z" />
    <glyph glyph-name="product" unicode="&#x220f;" horiz-adv-x="1473" 
d="M84 1305v190h1305v-190h-218v-1493h-194v1493h-481v-1493h-195v1493h-217z" />
    <glyph glyph-name="summation" unicode="&#x2211;" horiz-adv-x="1186" 
d="M567 680l-456 637v178h950v-190h-705l445 -619l-461 -684h739v-190h-975v180z" />
    <glyph glyph-name="minus" unicode="&#x2212;" horiz-adv-x="1251" 
d="M162 791h928v-173h-928v173z" />
    <glyph glyph-name="radical" unicode="&#x221a;" horiz-adv-x="1360" 
d="M-6 809l395 156l342 -877l547 1604h192l-653 -1917h-158l-378 960l-224 -86z" />
    <glyph glyph-name="infinity" unicode="&#x221e;" horiz-adv-x="1884" 
d="M1776 629q0 -118 -49 -210t-134.5 -143t-191.5 -51q-88 0 -167 39t-159 117l-133 129l-133 -129q-79 -78 -158.5 -117t-167.5 -39q-106 0 -191 51t-134 143t-49 210q0 117 49 209t134 143t191 51q88 0 167.5 -39t158.5 -116l133 -129l133 129q80 78 159 116.5t167 38.5
q106 0 191.5 -51t134.5 -143t49 -209zM819 629l-131 127q-52 50 -98 74t-101 24q-57 0 -101.5 -28t-69.5 -79t-25 -118t25 -118.5t69.5 -79.5t101.5 -28q55 0 101.5 24t97.5 75zM1591 629q0 67 -25 118t-69.5 79t-101.5 28q-54 0 -100 -24t-99 -74l-131 -127l131 -127
q52 -51 98 -75t101 -24q57 0 101.5 28t69.5 79.5t25 118.5z" />
    <glyph glyph-name="integral" unicode="&#x222b;" horiz-adv-x="674" 
d="M41 -182h127q81 0 117.5 35t36.5 110q0 26 -13 119l-131 997q-12 77 -12 150q0 147 81 229t234 82h152v-174h-127q-81 0 -117.5 -34.5t-36.5 -110.5q0 -39 13 -119l133 -998q12 -102 12 -149q0 -148 -82 -229.5t-235 -81.5h-152v174z" />
    <glyph glyph-name="approxequal" unicode="&#x2248;" horiz-adv-x="1251" 
d="M391 1063q61 0 115 -17t132 -50q69 -30 115.5 -45t94.5 -15q55 0 85.5 31t37.5 100h166q-13 -165 -89.5 -236t-189.5 -71q-61 0 -114.5 17t-133.5 51q-71 31 -117 46t-94 15q-53 0 -83 -31t-40 -100h-163q13 163 89 234t189 71zM391 649q60 0 113.5 -17t133.5 -51
q71 -31 117 -46t93 -15q55 0 85.5 31t37.5 100h166q-13 -163 -89.5 -234t-189.5 -71q-61 0 -115.5 17t-132.5 50q-69 30 -116 45t-95 15q-53 0 -83 -31t-40 -100h-163q13 165 89 236t189 71z" />
    <glyph glyph-name="notequal" unicode="&#x2260;" horiz-adv-x="1251" 
d="M783 829l-128 -251h435v-168h-522l-165 -322l-137 68l130 254h-234v168h321l128 251h-449v170h537l165 322l137 -68l-130 -254h219v-170h-307z" />
    <glyph glyph-name="lessequal" unicode="&#x2264;" horiz-adv-x="1251" 
d="M1106 1080l-690 -299l690 -299v-177l-963 416v119l963 416v-176zM1108 158v-158h-963v158h963z" />
    <glyph glyph-name="greaterequal" unicode="&#x2265;" horiz-adv-x="1251" 
d="M145 479l690 299l-690 299v177l963 -416v-119l-963 -416v176zM145 158h963v-158h-963v158z" />
    <glyph glyph-name="uni25B6" unicode="&#x25b6;" horiz-adv-x="1499" 
d="M258 137v1221l1057 -610z" />
    <glyph glyph-name="uni25B7" unicode="&#x25b7;" horiz-adv-x="1499" 
d="M258 137v1221l1057 -610zM414 1102v-709l610 355z" />
    <glyph glyph-name="uni25C0" unicode="&#x25c0;" horiz-adv-x="1499" 
d="M1241 1358v-1221l-1057 611z" />
    <glyph glyph-name="uni25C1" unicode="&#x25c1;" horiz-adv-x="1499" 
d="M1241 1358v-1221l-1057 611zM1085 393v709l-610 -354z" />
    <glyph glyph-name="lozenge" unicode="&#x25ca;" horiz-adv-x="1092" 
d="M475 1495h141l353 -747l-353 -748h-141l-352 748zM547 246l233 502l-233 501l-236 -501z" />
    <glyph glyph-name="space.case" horiz-adv-x="807" 
 />
    <glyph glyph-name="i.TRK" 
d="M338 0h-184v1032h184v-1032z" />
    <glyph glyph-name="caron.alt" horiz-adv-x="1300" 
d="M391 1436q0 -27 -10 -56l-117 -319h-123l72 260q-35 14 -54.5 44.5t-19.5 70.5q0 55 35.5 91t91.5 36q55 0 90 -36t35 -91z" />
    <glyph glyph-name="uni0326.alt" horiz-adv-x="0" 
d="M-525 1270q0 -56 -35 -91.5t-92 -35.5t-92 35.5t-35 91.5q0 33 15 63l98 244h117l-53 -189q36 -14 56.5 -45t20.5 -73z" />
    <glyph glyph-name="hyphen.case" horiz-adv-x="705" 
d="M594 832v-185h-483v185h483z" />
    <glyph glyph-name="endash.case" horiz-adv-x="1057" 
d="M969 826v-172h-881v172h881z" />
    <glyph glyph-name="emdash.case" horiz-adv-x="1618" 
d="M1550 822v-164h-1482v164h1482z" />
    <glyph glyph-name="exclamdown.case" horiz-adv-x="639" 
d="M320 1241q-59 0 -96 37.5t-37 95.5t37 95.5t96 37.5q58 0 95.5 -38t37.5 -95t-37.5 -95t-95.5 -38zM219 0l19 1085h163l19 -1085h-201z" />
    <glyph glyph-name="questiondown.case" horiz-adv-x="977" 
d="M523 1241q-59 0 -96 37.5t-37 95.5t37 95.5t96 37.5q58 0 95.5 -38t37.5 -95t-37.5 -95t-95.5 -38zM606 1049v-54q0 -87 -16 -144t-53 -105.5t-109 -112.5q-82 -72 -119 -127.5t-37 -126.5q0 -63 27.5 -112.5t76 -77t109.5 -27.5t109.5 28t76 78t27.5 113h189
q0 -114 -52.5 -206.5t-145 -145t-206.5 -52.5t-206 52t-143.5 142.5t-51.5 201.5q0 82 25.5 146t70.5 117.5t121 119.5q56 49 83.5 82t39.5 69t12 88v54h172z" />
    <glyph glyph-name="guilsinglleft.case" horiz-adv-x="733" 
d="M399 1135h199l-285 -387l285 -387h-199l-282 387z" />
    <glyph glyph-name="guilsinglright.case" horiz-adv-x="733" 
d="M334 360h-199l285 387l-285 387h199l282 -387z" />
    <glyph glyph-name="guillemotleft.case" horiz-adv-x="1100" 
d="M399 1135h199l-285 -387l285 -387h-199l-282 387zM766 1135h199l-285 -387l285 -387h-199l-282 387z" />
    <glyph glyph-name="guillemotright.case" horiz-adv-x="1100" 
d="M334 360h-199l285 387l-285 387h199l282 -387zM701 360h-199l285 387l-285 387h199l282 -387z" />
    <glyph glyph-name="periodcentered.case" horiz-adv-x="537" 
d="M268 885q59 0 96 -37.5t37 -95.5t-37 -95.5t-96 -37.5q-58 0 -95.5 38t-37.5 95t37.5 95t95.5 38z" />
    <glyph glyph-name="at.case" horiz-adv-x="1855" 
d="M1733 747q0 -130 -35 -224.5t-102 -145t-162 -50.5q-87 0 -152 37.5t-95 103.5q-50 -66 -127.5 -103.5t-168.5 -37.5q-116 0 -208 55.5t-144 151.5t-52 213q0 118 52 214t144 151t208 55q79 0 146.5 -27.5t117.5 -77.5v85h152v-533q0 -63 35.5 -102t95.5 -39
q145 0 145 272q-1 184 -79.5 333.5t-225.5 236t-346 86.5t-346.5 -86t-226 -234.5t-78.5 -333.5q0 -182 78 -331t225.5 -235.5t345.5 -86.5h358v-147h-356q-240 0 -421.5 104t-280.5 286t-99 408q0 227 98 410t280 288t423 105q239 0 421 -104t281 -286.5t99 -410.5z
M1161 747q0 77 -33 139t-92 97t-135 35q-75 0 -134 -35t-91.5 -97t-32.5 -139t32.5 -138t91.5 -95.5t134 -34.5q76 0 135 34.5t92 95.5t33 138z" />
    <glyph glyph-name="parenleft.case" horiz-adv-x="748" 
d="M145 747q0 276 99.5 517.5t279.5 428.5l135 -116q-158 -163 -245.5 -376t-87.5 -454t87.5 -453t245.5 -376l-135 -117q-180 188 -279.5 429t-99.5 517z" />
    <glyph glyph-name="parenright.case" horiz-adv-x="748" 
d="M603 748q0 -276 -99.5 -517.5t-279.5 -428.5l-135 116q158 163 245.5 376t87.5 454t-87.5 453t-245.5 376l135 117q180 -188 279.5 -429t99.5 -517z" />
    <glyph glyph-name="bracketleft.case" horiz-adv-x="731" 
d="M618 1640v-174h-245v-1438h245v-174h-425v1786h425z" />
    <glyph glyph-name="bracketright.case" horiz-adv-x="731" 
d="M113 -145v174h245v1438h-245v174h425v-1786h-425z" />
    <glyph glyph-name="braceleft.case" horiz-adv-x="782" 
d="M551 28h104v-174h-137q-72 0 -126 29.5t-83.5 83.5t-29.5 125v473q0 44 -25.5 69t-71.5 25h-129v176h129q46 0 71.5 25t25.5 69v473q0 71 29.5 125t83.5 83.5t126 29.5h137v-174h-104q-44 0 -69 -25.5t-25 -68.5v-445q0 -56 -19.5 -102.5t-54.5 -77.5q36 -31 55 -77
t19 -103v-445q0 -43 25 -68.5t69 -25.5z" />
    <glyph glyph-name="braceright.case" horiz-adv-x="782" 
d="M231 1467h-104v174h137q72 0 126 -29.5t83.5 -83.5t29.5 -125v-473q0 -44 25.5 -69t71.5 -25h129v-176h-129q-46 0 -71.5 -25t-25.5 -69v-473q0 -71 -29.5 -125t-83.5 -83.5t-126 -29.5h-137v174h104q44 0 69 25.5t25 68.5v445q0 56 19.5 102.5t54.5 77.5q-36 31 -55 77
t-19 103v445q0 43 -25 68.5t-69 25.5z" />
    </font>
</defs>
</svg>
